<svg width="103" height="130" viewBox="0 0 103 130" fill="none" xmlns="http://www.w3.org/2000/svg">
<g clip-path="url(#clip0_1918_1988)">
<path d="M32.6803 95.9336C33.7032 96.7718 34.7346 97.6101 35.7828 98.4483C37.0042 99.392 38.3254 100.2 39.7229 100.858C40.5946 100.768 41.4755 100.875 42.2999 101.171C43.1242 101.467 43.8708 101.945 44.484 102.568C44.8305 102.036 45.294 101.589 45.8395 101.261L45.9068 101.223C46.6989 100.769 47.6038 100.549 48.5167 100.586C46.6104 100.023 44.7522 99.3099 42.9601 98.4525C39.6584 96.8719 36.5916 94.8451 33.8464 92.4297C33.4843 93.5865 33.1097 94.7642 32.6719 95.9336" fill="#32BDB9"/>
<path d="M61.6927 66.4731C61.8653 66.2762 61.9916 66.1211 62.1137 65.9786C63.313 64.7423 64.1185 63.1805 64.4289 61.4897C64.7258 60.1453 64.5081 58.7389 63.8185 57.5458C63.3096 56.7036 62.5827 56.013 61.7138 55.5466C60.2151 54.7293 58.6829 53.979 57.1674 53.1995C54.8381 52.0036 52.5102 50.8091 50.1837 49.6159C49.8301 49.4315 49.4639 49.2848 49.0977 49.1172C49.1386 49.3139 49.2492 49.4894 49.4092 49.6118C50.1711 50.2237 50.9372 50.8356 51.7118 51.4349C54.3582 53.4719 57.0103 55.506 59.6679 57.5374C59.9444 57.7376 60.2048 57.959 60.4467 58.1996C61.3307 59.1259 61.6759 59.9516 61.0739 61.2173C60.7129 61.9994 60.2906 62.7519 59.811 63.468C58.9691 64.6793 58.0641 65.8445 57.1422 67.0809C57.3147 67.2066 57.4368 67.3072 57.5631 67.3868C58.6281 68.0407 59.7268 68.6442 60.7624 69.3441C64.7194 72.0014 67.7419 75.4299 69.392 79.948C70.3263 82.3489 70.7298 84.9221 70.5749 87.4923C70.339 90.5156 69.305 93.4232 67.5777 95.9209C66.7821 97.0986 65.8139 98.1674 64.9299 99.2739C64.8352 99.4014 64.748 99.5344 64.6689 99.672L65.0183 100.091L70.6886 96.6208C69.7625 97.853 68.7802 99.0378 67.7419 100.175C67.2231 100.753 66.5936 101.223 65.8903 101.556C65.187 101.889 64.424 102.08 63.646 102.116C63.0945 102.153 62.5388 102.183 61.9874 102.204C62.6134 102.439 63.1859 102.797 63.6712 103.256C63.8581 103.229 64.0465 103.215 64.2353 103.214C64.8937 103.204 65.5467 103.334 66.1507 103.595C66.4369 102.605 67.0919 101.761 67.9818 101.235L68.0492 101.198C68.6909 100.825 69.4123 100.61 70.154 100.569C70.5749 99.9151 71.0296 99.2739 71.4547 98.6158C72.5071 96.9687 73.5595 95.3131 74.5824 93.6576C74.6366 93.5361 74.6734 93.4078 74.6919 93.2762L74.5656 93.1882L73.7237 93.7833C73.8255 93.4131 73.9876 93.0619 74.2036 92.7439C74.7773 91.871 75.2464 90.9341 75.6012 89.9525C76.1703 88.2969 76.3756 86.5388 76.2031 84.7973C76.0683 83.1007 75.6796 81.4337 75.0497 79.8516C73.8397 76.9787 72.0136 74.4039 69.6993 72.3074C68.0977 70.8559 66.3754 69.5421 64.551 68.3802L61.6843 66.4731" fill="#32BDB9"/>
<path d="M56.9009 103.005C57.3564 102.649 57.8649 102.366 58.4079 102.167C57.566 102.12 56.7662 102.066 55.9453 101.986C56.3096 102.274 56.6313 102.611 56.9009 102.988" fill="#32BDB9"/>
<path d="M25.745 57.3327C25.4273 54.2432 25.2966 51.1375 25.3535 48.0323C25.4208 44.7338 25.9302 41.5317 27.5214 38.5769C28.2398 37.2579 29.1239 36.0354 30.1524 34.9389C30.2871 34.7922 30.4471 34.6664 30.6786 34.4569L32.3624 39.3858H32.5266C32.5771 39.1382 32.6108 38.8876 32.6276 38.6355C32.6276 37.1141 32.5687 35.5927 32.5897 34.0713C32.5941 29.3668 33.4807 24.7045 35.2039 20.324C36.705 16.4338 38.9982 12.8949 41.9392 9.92968C44.3238 7.52089 47.3599 5.85367 50.6783 5.13069C52.8612 4.63915 55.1471 4.90074 57.1611 5.87255L56.3907 6.29167C54.6143 7.20956 52.8168 8.0981 51.0656 9.06628C50.0543 9.6008 49.1589 10.3286 48.4304 11.208C48.0349 11.665 47.7587 12.212 47.6264 12.8007C47.8242 12.6749 47.9547 12.6079 48.0473 12.5241C50.0511 10.9733 52.1222 9.51894 54.5048 8.60106C55.8662 8.08426 57.258 7.65034 58.6723 7.30175C59.2615 7.15113 59.8775 7.13705 60.473 7.26057C61.0685 7.38409 61.6276 7.64193 62.1073 8.01427C63.1666 8.75244 64.0484 9.71535 64.6889 10.8336C65.3295 11.9519 65.713 13.1978 65.8117 14.4814C65.8671 14.8788 65.813 15.2837 65.655 15.6529C65.4971 16.022 65.2413 16.3414 64.9151 16.577C63.5596 17.5745 62.2294 18.6223 60.6382 19.2426C59.3458 19.7414 58.0282 20.1899 56.7064 20.6216C53.1367 21.7867 49.5501 22.8806 45.9888 24.0961C43.5352 24.8986 41.2363 26.1103 39.1904 27.6796C37.8115 28.6983 36.664 29.995 35.8227 31.4853C35.3929 32.247 35.1075 33.081 34.9808 33.9455C37.3339 31.2715 40.4532 29.9345 43.863 28.7149C43.5389 29.5531 43.3031 30.2447 42.9958 30.9111C41.9359 33.229 40.5341 35.3763 38.8368 37.2818C37.1158 39.2006 35.1318 40.8683 32.9433 42.2358C32.0425 42.8058 31.0995 43.3214 30.2197 43.9123C27.8708 45.5302 26.4858 47.718 26.3427 50.6183C26.3006 51.4985 26.2375 52.3787 26.2122 53.263C26.1449 55.5514 26.0944 57.844 25.9765 60.1408C25.8797 59.2062 25.7786 58.2715 25.686 57.3327M63.9174 24.0249C63.417 25.2199 62.7136 26.3201 61.8379 27.2773C61.6933 27.4445 61.5858 27.6401 61.5222 27.8515C61.4287 28.1535 61.3639 28.4636 61.3285 28.7777C60.9413 32.4451 57.422 35.9364 53.524 36.6321C52.8045 36.77 52.0631 36.7448 51.3547 36.5583C50.6464 36.3718 49.9893 36.0289 49.4323 35.555C48.1274 34.5456 47.1806 33.1477 46.7297 31.5649C46.4309 30.4166 46.5166 29.2025 46.9739 28.1071C47.0607 27.9096 47.1921 27.7346 47.3578 27.5958C47.5235 27.457 47.7191 27.358 47.9294 27.3066C49.5375 26.7282 51.1456 26.1624 52.741 25.5588C54.9131 24.7206 57.1021 23.9662 59.2238 23.0441C61.1283 22.2116 62.8579 21.0285 64.3216 19.557C64.5868 19.2845 64.8604 19.0205 65.134 18.7564C65.0176 20.5706 64.6067 22.354 63.9174 24.0374M24.0359 71.3524C23.7791 72.5386 23.5812 73.7331 23.4297 74.9318C24.1606 75.143 24.8314 75.5224 25.3879 76.0393C25.9443 76.5562 26.3709 77.1962 26.6332 77.9076C26.6795 77.0442 26.7553 76.1808 26.8815 75.3258C27.3935 71.7606 28.0961 68.2251 28.9863 64.7345C29.7186 62.1281 29.9303 59.4041 29.6094 56.7166C29.5265 56.0645 29.4815 55.4082 29.4747 54.7509C29.4494 53.7995 29.441 52.8439 29.4747 51.8925C29.4967 50.6012 29.6376 49.3147 29.8956 48.0491C30.092 46.9608 30.524 45.928 31.1615 45.0226C31.799 44.1172 32.6268 43.3608 33.5874 42.8058C34.4756 42.2945 35.4186 41.888 36.3236 41.4101C40.197 39.4534 43.3943 36.3882 45.5047 32.6085C45.6093 32.4444 45.7232 32.2862 45.8457 32.1349C46.0562 32.466 46.2667 32.7217 46.3972 32.9983C47.0749 34.2557 47.0665 35.5466 46.7886 36.892C46.4771 38.3799 46.0057 39.8259 45.8541 41.3515C45.6511 43.01 45.921 44.6919 46.6329 46.2049C46.9428 46.9298 47.422 47.5707 48.0305 48.0742C46.4982 44.4153 46.9528 40.9491 48.9145 37.5542L51.4402 38.2877C52.7085 38.6977 54.0696 38.7283 55.3552 38.3757C59.1985 37.2399 61.7916 34.767 62.9577 30.9404C63.3695 29.5021 63.9517 28.1176 64.692 26.8162C65.9696 24.7826 66.6303 22.4249 66.5947 20.0264C66.6069 19.9025 66.6323 19.7803 66.6705 19.6617C66.856 19.8331 67.0017 20.0425 67.0977 20.2756C67.1936 20.5087 67.2375 20.7597 67.2262 21.0113C67.1841 21.9376 67.1294 22.8639 67.041 23.7859C66.9312 24.5059 67.0021 25.2416 67.2472 25.9277C67.3688 26.2596 67.5659 26.559 67.8229 26.8025C68.0799 27.0461 68.39 27.2272 68.729 27.3317C68.7106 27.265 68.6852 27.2004 68.6532 27.1389C68.2588 26.5614 68.0501 25.8782 68.0546 25.1798C68.0591 24.4814 68.2767 23.8009 68.6785 23.2285C68.9164 22.8408 69.1058 22.4256 69.2426 21.9921C69.5097 21.2756 69.5604 20.497 69.3883 19.7522C69.2163 19.0074 68.829 18.3291 68.2744 17.8008L67.5166 17.0422C67.7313 16.7865 67.9376 16.5686 68.1102 16.3339C68.8289 15.4712 69.2168 14.3825 69.2047 13.2617C69.1905 11.2648 68.597 9.31441 67.4956 7.64544C66.4642 6.06953 65.1256 4.82892 63.2439 4.29244C62.301 4.02839 61.3706 3.72243 60.4235 3.48353C59.8701 3.34924 59.3547 3.09125 58.9164 2.72911C57.868 1.85271 56.6743 1.16483 55.3888 0.69634C53.4673 0.0294766 51.4134 -0.170252 49.3986 0.113776C47.017 0.39045 44.7106 1.11889 42.6043 2.25969C40.3514 3.51525 38.3276 5.14054 36.6183 7.06704C33.3819 10.6137 31.1758 14.9704 30.2366 19.6701C29.7239 22.4162 29.55 25.2143 29.7188 28.0023C29.7788 29.0669 29.4549 30.1178 28.8053 30.9656C27.1347 33.3002 25.8552 35.889 25.0167 38.6313C24.2466 41.1469 23.7996 43.7494 23.6865 46.3768C23.5559 49.0512 23.7111 51.7319 24.1495 54.3737C24.6042 57.098 25.2188 59.7972 25.7492 62.5089C25.7954 62.7484 25.7954 62.9945 25.7492 63.234C25.1879 65.9415 24.6084 68.6449 24.0106 71.3441" fill="#32BDB9"/>
<path d="M51.5178 101.332C51.3074 101.29 51.0969 101.244 50.8906 101.193C51.0211 101.265 51.1516 101.336 51.2779 101.42L51.5178 101.332Z" fill="#32BDB9"/>
<path d="M60.2156 99.8946C60.1104 99.8569 60.0009 99.815 59.8915 99.7856C57.8095 99.1808 55.8464 98.2269 54.0865 96.9649C52.007 95.5148 50.1926 93.7586 48.3025 92.0863C46.4124 90.414 44.4802 88.6579 42.5186 86.9981C41.7761 86.369 40.969 85.8197 40.1107 85.3594C39.8847 86.2403 39.3616 87.0172 38.6289 87.5598C39.1088 87.8657 39.5803 88.1927 40.0391 88.5405C43.9161 91.4744 47.8353 94.3747 51.746 97.2709C53.0756 98.3117 54.5952 99.0859 56.2207 99.5509C57.5346 99.9024 58.8939 100.056 60.2535 100.008C60.2283 99.9365 60.2283 99.8988 60.2156 99.8946Z" fill="#32BDB9"/>
<path d="M39.1704 66.6368C38.2948 69.424 37.4108 72.2154 36.6446 75.0193C36.0733 77.0202 35.7274 79.0782 35.6133 81.1553L35.6764 81.2098C36.0861 81.0553 36.5226 80.984 36.9604 81.0002C37.1372 80.4428 37.314 79.8854 37.495 79.3237C38.8968 75.1073 40.2817 70.8825 41.7045 66.6787C42.7948 63.4766 43.8093 60.2619 44.3229 56.9089C44.7276 54.3526 44.5492 51.7383 43.8009 49.2599C43.2663 47.4954 41.3215 46.1626 39.3051 46.041C39.3598 46.1416 39.4861 46.1668 39.5703 46.2422C41.1994 47.684 42.1424 49.4318 42.096 51.6615C42.0193 53.3358 41.8323 55.0033 41.5362 56.6533C40.9925 60.034 40.2018 63.3707 39.1704 66.6368Z" fill="#32BDB9"/>
<path d="M55.0283 26.991C56.0976 27.4101 57.1584 27.8712 58.2613 28.328L58.6822 27.6155C57.3057 26.924 56.0555 26.1611 54.4727 25.8594C54.641 26.3288 54.4727 26.7856 54.9947 26.991" fill="#32BDB9"/>
<path d="M6.05479 109.568C6.28211 109.426 6.85041 109.149 6.85041 109.111C6.40011 109.244 5.96209 109.415 5.54122 109.623C5.91166 108.885 6.28212 108.147 6.68203 107.41C6.79568 107.242 7.70495 105.507 7.70495 105.507C7.67171 105.507 7.63967 105.519 7.61432 105.541C7.58897 105.562 7.5719 105.592 7.56604 105.624C8.91227 103.57 10.3975 101.61 12.0114 99.7565C12.4955 99.1907 15.3159 95.5275 15.177 98.2519V98.2812C15.1475 98.3944 15.1475 98.365 15.177 98.3105C15.0338 100.268 13.9141 102.196 12.807 103.759C12.2269 104.578 11.5896 105.355 10.9 106.085C10.5843 106.395 10.2433 106.71 9.90235 106.995C9.53626 107.256 9.1836 107.536 8.84574 107.833C9.15532 107.587 9.47857 107.359 9.81395 107.15C10.2728 106.752 10.7274 106.312 11.1568 105.872C11.8474 105.142 12.4847 104.365 13.0638 103.545C11.3252 106.127 8.93414 108.37 6.05479 109.564M7.31766 105.96C7.31591 105.98 7.30698 105.999 7.29241 106.014C7.29241 105.989 7.31766 105.989 7.31766 105.96ZM0.780187 114.732C0.893846 114.166 1.00751 113.454 1.15063 112.946C1.43688 111.723 2.03464 110.901 2.41351 109.795C1.89994 111.442 1.27272 113.114 0.788614 114.732M0.590764 116.576C0.561296 116.689 0.35923 116.832 0.333972 116.995C0.418164 116.513 0.502361 116.086 0.61602 115.633C0.561295 115.947 0.645488 116.287 0.590764 116.597M6.83356 102.946L6.85882 102.921L6.26107 104.396L6.83356 102.946ZM6.88829 102.804C6.88829 102.862 6.85882 102.862 6.85882 102.892C6.85882 102.921 6.85882 102.862 6.88829 102.804ZM6.94723 102.665V102.69L6.91776 102.72L6.94723 102.665ZM17.0923 101.726C17.3777 101.082 17.6154 100.418 17.8037 99.7398C17.8627 99.4841 18.0605 99.1153 18.0058 98.8596L17.8627 99.2033C17.9579 98.726 17.996 98.2393 17.9763 97.7531C18.0058 97.8663 18.0605 98.0381 18.0353 98.0674C18.09 98.0381 18.0605 97.6693 18.0605 97.4974C17.4406 97.1185 16.8956 96.6299 16.4525 96.0556C16.1438 95.6562 15.8746 95.2281 15.6484 94.7773C15.5061 94.7811 15.3647 94.8022 15.2275 94.8402C14.3435 95.0958 13.4594 96.173 12.8322 96.7975C12.4236 97.1744 12.0345 97.5717 11.6662 97.9878C11.4094 98.2728 10.7527 98.8261 10.698 99.2452C10.7232 99.2745 10.7232 99.2745 10.7527 99.2745L10.3528 99.7859C10.3275 99.8152 10.639 99.3667 10.639 99.3667C10.4959 99.3961 10.2181 99.9367 10.2181 99.9367C9.42246 100.959 8.53424 101.894 7.79756 102.971C6.99179 104.179 6.26755 105.44 5.62963 106.743C6.00954 105.381 6.47635 104.044 7.02721 102.741C7.17034 102.401 8.7363 98.7129 8.79523 98.738C8.70683 98.7129 7.31345 101.831 7.22505 102.003C7.87004 100.413 8.60365 98.8596 9.42245 97.3507C9.36352 97.4639 9.3088 97.6064 9.33406 97.6064C9.62005 97.2887 9.82634 96.9081 9.93602 96.4957L9.84762 96.5544C9.94764 96.4219 10.0088 96.2645 10.0244 96.0995C10.0401 95.9345 10.0094 95.7685 9.93602 95.6197C9.76343 95.1629 9.33406 94.3624 8.7363 94.6264C8.36586 94.7647 8.05435 95.4647 7.89439 95.7329C7.81019 95.8754 7.78072 96.1017 7.69232 96.2149C7.60392 96.3281 7.38082 96.4706 7.20822 96.6969C6.85629 97.293 6.56036 97.9201 6.32421 98.5704C6.18529 98.9099 4.61511 102.288 4.67405 102.317C4.72505 102.282 4.76455 102.232 4.78771 102.175C4.69931 102.431 4.58566 102.686 4.472 102.942C4.44253 102.913 4.56039 102.711 4.53092 102.711C4.24467 102.657 3.39013 105.012 3.33119 105.226C3.22272 105.761 3.06054 106.283 2.84709 106.785C2.70397 107.129 2.56505 107.468 2.45139 107.808C2.45139 107.837 2.30827 108.546 2.42193 108.29C2.41677 108.368 2.39677 108.445 2.36299 108.516C2.36676 108.476 2.35633 108.436 2.33352 108.403C2.2788 108.432 2.13568 109.199 2.10622 109.241C1.99256 109.522 1.82417 109.778 1.68526 110.08C1.3351 110.889 1.06851 111.731 0.88964 112.594L0.291887 115.486C0.178228 116.027 -0.280627 117.247 0.14875 117.787C0.14875 117.729 0.148753 117.703 0.17822 117.674C0.176514 117.723 0.185118 117.771 0.203477 117.817C0.460261 118.751 2.00098 118.466 2.51454 117.93C2.51572 117.951 2.52116 117.972 2.53055 117.992C2.53994 118.011 2.55309 118.029 2.56926 118.043C2.83289 116.426 3.28351 114.845 3.91212 113.332C4.13943 112.678 4.36675 111.601 4.82139 111.09C4.85085 110.805 4.99398 110.721 5.2213 110.863C5.40084 110.894 5.58228 110.912 5.76434 110.918C5.9625 110.947 6.16393 110.947 6.36209 110.918C7.55761 110.721 8.84154 109.924 9.86868 109.3C10.2686 109.074 10.5506 108.734 10.9211 108.533C11.2915 108.332 11.5988 108.227 11.9356 108.009L12.1208 107.883C13.1712 107.062 14.1183 106.118 14.9412 105.071C15.6329 104.271 16.229 103.393 16.7177 102.456C16.8355 102.229 16.9492 101.995 17.0502 101.752" fill="#32BDB9"/>
<path d="M17.7035 108.801C17.9049 108.911 18.1305 108.97 18.3602 108.972C18.1561 108.957 17.9599 108.888 17.7919 108.771C17.7181 108.712 17.6504 108.646 17.5898 108.574C17.5997 108.661 17.64 108.741 17.7035 108.801Z" fill="#32BDB9"/>
<path d="M16.7398 117.966C16.737 117.945 16.7267 117.926 16.7109 117.912C16.7109 117.937 16.7398 117.937 16.7398 117.966Z" fill="#32BDB9"/>
<path d="M16.5998 117.711L16.5451 117.421L16.5156 117.342L16.5998 117.711Z" fill="#32BDB9"/>
<path d="M17.5664 108.546L17.5965 108.516C17.5885 108.516 17.5809 108.519 17.5752 108.524C17.5696 108.53 17.5664 108.538 17.5664 108.546Z" fill="#32BDB9"/>
<path d="M93.3583 120.661L92.8448 121.919C92.8822 121.671 92.9604 121.432 93.0763 121.21C93.2568 120.899 93.3539 120.547 93.3583 120.188C93.4025 120.345 93.4025 120.512 93.3583 120.67M92.2765 124.245L92.0197 124.702C92.1253 124.382 92.249 124.068 92.3901 123.763C92.5269 123.398 92.6989 123.047 92.9037 122.715C92.7557 123.248 92.5451 123.761 92.2765 124.245ZM92.5627 122.912C92.5339 122.975 92.4956 123.033 92.4491 123.084L92.5627 122.912ZM90.7358 124.169V124.199L90.6221 124.425V124.454C90.6182 124.454 90.6144 124.455 90.6108 124.456C90.6072 124.458 90.604 124.46 90.6013 124.463C90.5985 124.466 90.5964 124.469 90.5949 124.472C90.5934 124.476 90.5926 124.48 90.5926 124.484C90.5879 124.512 90.5794 124.541 90.5674 124.567C90.2744 125.23 89.9412 125.873 89.5697 126.495C89.254 127.007 88.8288 127.832 88.2268 128.029C87.0903 128.428 87.0019 126.554 87.1745 125.934C87.5954 124.4 88.7404 123.067 89.7002 121.847C90.6832 120.579 91.7687 119.393 92.9458 118.301C92.2638 120.259 91.5777 122.245 90.7231 124.169M79.1805 108.758C79.1736 108.806 79.1638 108.854 79.151 108.9C79.151 108.976 79.1131 109.056 79.0963 109.135C79.0708 109.12 79.0416 109.113 79.0121 109.114C79.071 108.997 79.1299 108.88 79.1805 108.758ZM78.0986 112.22C77.998 112.502 77.9593 112.802 77.985 113.1C77.9416 112.749 77.9702 112.392 78.0691 112.052C78.0691 112.052 78.1533 112.165 78.0986 112.22ZM78.0691 111.939C78.0691 111.797 78.0691 111.654 78.2123 111.595L78.1533 111.683C78.1157 111.765 78.0875 111.851 78.0691 111.939ZM62.0222 110.975C62.0222 110.975 62.1064 110.577 62.1359 110.489L62.279 110.292L62.0222 110.975ZM61.6013 109.215V108.93C61.6854 109.043 61.6854 109.127 61.6013 109.215ZM61.3739 109.584C61.2234 109.775 61.0829 109.973 60.953 110.179L60.4647 110.87L60.2121 111.227C59.728 111.939 59.2144 112.618 58.6714 113.272C58.5325 113.469 57.8295 114.349 57.5601 114.265C57.1391 114.123 57.5895 112.647 57.6485 112.421C57.7327 112.023 59.2439 107.652 59.6438 107.568C59.1302 107.538 57.4759 112.677 57.3917 113.1C57.656 111.708 58.0959 110.355 58.7009 109.072C58.9879 108.363 59.3795 107.701 59.8627 107.107C59.9616 106.987 60.0838 106.888 60.2219 106.816C60.36 106.744 60.5113 106.7 60.6667 106.688C61.1803 106.688 61.294 107.74 61.3824 108.079C61.2912 107.795 61.1859 107.515 61.0667 107.241C60.9235 107.354 61.4876 108.917 61.4876 109.139C61.4979 109.221 61.4904 109.304 61.4657 109.383C61.441 109.462 61.3997 109.535 61.3445 109.596M37.2867 119.073C37.2405 119.174 37.2025 119.279 37.1731 119.387C36.6187 121.127 35.9623 122.833 35.2072 124.496C34.8073 125.334 32.9256 128.725 32.2394 126.227C31.7848 124.634 33.3255 122.82 34.2095 121.659C35.2618 120.288 36.4247 119.006 37.6866 117.824C37.573 118.243 37.4299 118.662 37.2867 119.081M37.1731 121.068C37.0065 121.696 36.7969 122.312 36.5458 122.912C36.2891 123.398 35.9481 123.821 35.7039 124.274C36.2175 123.168 36.7563 122.12 37.1857 120.984L37.1731 121.068ZM35.9733 110.057C36.094 109.948 36.2001 109.824 36.2891 109.688L35.746 110.569C35.5472 110.886 35.3278 111.189 35.0893 111.478C35.2986 110.957 35.5977 110.476 35.9733 110.057ZM35.7165 111.315L35.464 111.683C35.642 111.359 35.8417 111.047 36.0617 110.749L35.7165 111.315ZM17.99 111.855L17.447 113.113C17.134 113.803 16.8669 114.513 16.6472 115.238C16.871 114.391 17.1667 113.565 17.5312 112.769C17.7316 112.265 17.9606 111.772 18.2173 111.294C18.2721 111.21 18.672 110.187 18.874 110.133C18.7309 110.217 18.1331 111.608 17.99 111.864M16.9292 118.41C16.9318 118.423 16.9318 118.436 16.9292 118.448C16.7633 118.197 16.6223 117.93 16.5082 117.652C16.4594 117.457 16.4298 117.257 16.4198 117.057C16.4093 116.896 16.4093 116.735 16.4198 116.575C16.4184 116.316 16.4481 116.059 16.5082 115.808V115.778C16.5082 115.749 16.5335 115.749 16.5335 115.724C16.5335 115.699 16.5082 115.778 16.5082 115.808V115.837C16.4439 116.211 16.4242 116.59 16.4493 116.969V117.111C16.441 117.104 16.4341 117.096 16.429 117.087C16.424 117.078 16.4208 117.067 16.4198 117.057C16.4233 117.086 16.4333 117.115 16.4493 117.14V117.17L16.5082 117.476C16.5756 117.656 16.6977 117.92 16.8197 118.193L16.7903 118.163C16.7903 118.192 16.8198 118.218 16.8492 118.247V118.218C17.024 118.474 17.2718 118.672 17.5606 118.788C17.3257 118.708 17.1105 118.579 16.9292 118.41ZM20.6378 111.038V111.067L20.0401 112.325L20.6378 111.038ZM29.1917 106.725L29.7053 106.046C29.8329 105.851 30.0101 105.694 30.2188 105.589C30.6398 105.506 30.7577 106.243 30.7282 106.528L30.6145 107.123C30.5893 107.291 30.644 107.408 30.6145 107.543C30.5851 107.677 30.4167 107.798 30.3325 107.941L29.8484 108.565C29.76 108.666 29.6632 108.762 29.5706 108.859C28.9601 109.504 28.2494 110.047 27.4658 110.468C27.6089 110.154 27.6931 109.844 27.8362 109.559C27.8522 109.533 27.8623 109.504 27.8657 109.475C28.2151 108.724 28.4929 107.937 28.9181 107.19C29.0065 107.031 29.0991 106.876 29.2043 106.721M80.6538 109.873C80.6244 109.898 80.6243 109.898 80.6243 109.927C80.6197 109.87 80.6299 109.812 80.6538 109.76V109.873ZM80.1403 111.575C80.2539 111.122 80.397 110.665 80.5612 110.212L80.1403 111.575ZM101.719 109.701C101.234 110.099 100.721 110.439 100.237 110.837C98.8392 111.885 97.53 112.991 96.2166 114.102C96.7908 112.544 97.5272 111.051 98.414 109.647C98.6078 109.396 98.6995 109.081 98.6708 108.766C98.5277 107.999 97.5006 107.685 96.8144 107.798C96.2166 107.911 96.1619 108.217 96.0483 108.595C95.8167 109.303 94.9917 109.927 94.5076 110.468C94.3097 110.694 92.9668 112.312 92.9374 112.312C93.0258 112.312 93.0805 112.253 93.1394 112.228C92.3938 112.922 91.6036 113.566 90.7737 114.156C90.4579 114.412 89.5487 115.321 89.0646 115.15C89.0032 115.13 88.947 115.097 88.9004 115.053C87.9575 114.215 90.5127 109.274 90.4327 109.248C90.3527 109.223 89.435 111.461 89.2329 111.973C89.7069 110.585 90.2693 109.228 90.9168 107.911C90.8873 108.029 90.8031 108.255 90.8578 108.255C91.0773 107.984 91.2223 107.66 91.2788 107.316C91.2493 107.316 91.2199 107.346 91.1904 107.346C91.2409 107.288 91.2958 107.235 91.3546 107.186C91.4105 107.138 91.4526 107.076 91.4767 107.006C91.5608 106.637 91.1357 106.239 90.82 106.126C90.6191 106.043 90.3991 106.017 90.1843 106.05C89.9372 106.085 89.7023 106.18 89.5005 106.326C89.2986 106.472 89.1359 106.665 89.0267 106.889C88.9425 107.002 88.8541 107.199 88.7994 107.258C88.711 107.425 88.5678 107.484 88.4542 107.656C88.2159 108.11 88.0173 108.584 87.8606 109.072C87.1871 109.437 86.2399 110.921 86.0631 111.143C85.6043 111.742 85.1202 112.308 84.6656 112.874C84.4148 113.19 84.1478 113.494 83.8657 113.783C83.6632 114.012 83.4828 114.259 83.3269 114.521C83.418 114.484 83.5042 114.436 83.5837 114.378C83.3412 114.625 83.0824 114.854 82.8091 115.066C82.4934 115.313 82.1609 115.556 81.8409 115.799C81.4452 116.084 80.6749 116.709 80.1908 116.365C79.9887 116.252 79.934 115.946 79.8751 115.77C79.8243 115.526 79.7933 115.277 79.7824 115.028C79.7745 114.325 79.8351 113.624 79.9634 112.932C80.3052 111 80.8834 109.117 81.6852 107.325C81.7441 107.186 81.8073 107.052 81.8704 106.905C82.1515 106.213 82.563 105.58 83.0828 105.04C83.1375 104.986 83.2511 105.099 83.2806 105.07C83.3101 105.04 83.108 104.957 83.0828 104.986C82.7776 105.194 82.5393 105.485 82.3966 105.824C82.1883 106.161 81.9986 106.51 81.8283 106.868C81.5728 107.388 81.3438 107.921 81.1421 108.465C81.34 107.924 81.5631 107.379 81.803 106.838C81.8788 106.671 81.9462 106.503 82.0261 106.335C82.2105 105.87 82.4819 105.443 82.826 105.078C83.7942 104.311 83.4237 106.838 83.3101 107.207C83.3508 106.991 83.3789 106.773 83.3943 106.553C83.2179 107.027 83.0661 107.51 82.9396 107.999L83.0828 107.886C82.9396 108.113 82.6618 108.284 83.0238 108.54C83.3858 108.796 84.1141 108.452 84.434 108.096C84.4847 108.041 84.5285 107.981 84.5645 107.916C84.6686 107.678 84.7394 107.427 84.775 107.17C84.8129 106.935 84.8339 106.7 84.8466 106.495C84.8859 105.892 84.7484 105.29 84.4509 104.764C84.1646 104.169 83.9078 103.8 83.1375 103.687C82.8347 103.66 82.5297 103.694 82.2404 103.787C81.9512 103.88 81.6836 104.029 81.4536 104.227C80.9069 104.627 80.4317 105.116 80.0476 105.673C79.9424 105.82 79.8372 105.971 79.7403 106.126C79.6435 106.281 78.6038 108.398 78.629 108.427L78.7427 108.284C78.6038 108.595 78.5154 108.909 78.4017 109.194C78.3722 109.194 78.4606 108.938 78.4312 108.938C78.3133 108.917 78.0397 109.638 77.8671 110.141C77.585 110.388 77.2904 110.627 77.0252 110.866C76.3685 111.436 75.716 112.031 75.0298 112.568C74.6824 112.913 74.278 113.197 73.8343 113.406L73.6912 113.448C73.628 113.448 73.5775 113.477 73.5775 113.49L73.548 113.461C73.5333 113.3 73.5333 113.139 73.548 112.979C73.5902 112.611 73.6764 112.249 73.8048 111.901L73.8301 111.834C73.947 111.525 74.0344 111.205 74.0911 110.879L73.948 111.051C74.1163 110.711 74.3479 110.367 74.5457 109.999C74.3582 110.177 74.189 110.374 74.0406 110.585C73.8378 110.869 73.6722 111.178 73.548 111.503C73.3379 111.889 73.1754 112.298 73.064 112.723C73.1841 112.083 73.4149 111.469 73.7459 110.908C73.889 110.611 74.0406 110.292 74.2005 109.973C74.3571 109.662 74.53 109.358 74.7183 109.064C75.4003 108.041 76.882 107.107 76.4274 105.686C76.3802 105.52 76.3123 105.361 76.2254 105.212C75.7413 104.374 74.8615 104.428 74.1458 105.091C73.969 105.254 73.2029 106.193 72.4157 107.186C71.7118 108.032 71.0528 108.913 70.4414 109.827C70.4414 109.827 70.7276 109.483 71.0981 108.989L69.4142 111.432C69.3848 111.432 69.7005 110.95 69.671 110.921C69.6416 110.891 69.4437 111.088 69.4142 111.201C69.4732 110.606 69.671 110.011 69.7299 109.416C69.7336 109.207 69.7518 108.998 69.7847 108.792C69.8889 108.419 70.0299 108.059 70.2056 107.714C70.3193 107.484 70.5466 107.295 70.6266 107.061C70.664 106.756 70.7817 106.467 70.9676 106.222C71.0345 106.139 71.1062 106.059 71.1823 105.983C71.3759 105.778 71.6032 105.564 71.7379 105.397C72.222 104.688 71.3969 104.206 70.9381 104.118C70.5749 104.028 70.1914 104.07 69.8563 104.236C69.4858 104.462 69.57 104.655 69.4858 104.973C69.437 105.163 69.3693 105.346 69.2837 105.522C69.1743 105.753 69.0522 105.988 68.9722 106.193C68.7449 106.788 68.5513 107.383 68.345 107.978C68.1387 108.574 67.8904 109.144 67.7178 109.739C67.6199 110.197 67.5636 110.662 67.5494 111.13C67.5494 111.302 67.5073 111.453 67.4947 111.595C66.8253 112.601 66.1476 113.603 65.3899 114.563C65.2846 114.693 65.1836 114.806 65.091 114.915C63.3272 116.893 63.765 114.496 64.0891 112.932C64.2051 112.569 64.2688 112.191 64.2786 111.809C64.1649 111.839 64.0765 112.266 64.0512 112.35C64.3041 111.223 64.7062 110.135 65.2468 109.114C65.5625 108.49 65.9329 107.978 65.3604 107.299C65.2402 107.154 65.0982 107.028 64.9394 106.926C63.9923 106.31 62.9778 107.295 62.38 108.066C62.0938 106.985 61.5381 105.397 60.1279 105.397C59.6 105.421 59.1034 105.653 58.7472 106.042L58.7009 106.08C58.4638 106.194 58.2358 106.325 58.0189 106.474C57.6731 106.756 57.3747 107.091 57.1349 107.467C56.5941 108.276 56.1505 109.145 55.8131 110.057C55.51 110.326 55.1901 110.585 54.9123 110.845C54.2556 111.415 53.5988 112.01 52.9169 112.547C52.5687 112.893 52.1628 113.177 51.7172 113.385C51.6751 113.406 51.5572 113.427 51.4983 113.448C51.4393 113.469 51.4604 113.448 51.4604 113.448L51.4351 113.419C51.4204 113.258 51.4204 113.097 51.4351 112.937C51.461 112.659 51.5189 112.384 51.6077 112.119C51.633 112.031 51.6624 111.943 51.6919 111.86C51.8174 111.528 51.9118 111.186 51.9739 110.837L51.8308 111.009C52.0034 110.669 52.2307 110.326 52.4328 109.957C52.2532 110.127 52.0897 110.314 51.9445 110.514C51.7336 110.806 51.5624 111.125 51.4351 111.461C51.225 111.847 51.0625 112.257 50.951 112.681C51.0712 112.041 51.3019 111.427 51.633 110.866C51.7929 110.535 51.9571 110.183 52.1381 109.835C52.2855 109.554 52.437 109.274 52.6012 109.022C53.2873 107.999 54.7691 107.065 54.3145 105.644C54.2892 105.564 54.264 105.493 54.2345 105.422C54.1682 105.247 54.0728 105.084 53.9525 104.94C53.5315 104.433 52.9085 104.437 52.336 104.81C52.2282 104.881 52.1268 104.961 52.0329 105.049C51.8561 105.212 51.0815 106.159 50.2901 107.144C49.5892 107.983 48.9344 108.859 48.3285 109.768C48.3285 109.768 48.6105 109.424 48.9809 108.93L47.2971 111.373C47.2676 111.373 47.5834 110.891 47.5539 110.862C47.5244 110.833 47.3266 111.03 47.2971 111.143C47.3518 110.548 47.5539 109.952 47.6086 109.357C47.6136 109.148 47.6333 108.939 47.6676 108.733C47.765 108.362 47.899 108.001 48.0675 107.656C48.1811 107.425 48.4084 107.237 48.4632 107.002C48.5039 106.698 48.6228 106.409 48.8084 106.164C48.8739 106.081 48.9442 106.003 49.0188 105.929C49.2125 105.724 49.4398 105.51 49.5787 105.338C49.9702 104.764 49.4987 104.336 49.0651 104.152C48.9736 104.11 48.8775 104.079 48.7789 104.06H48.682C48.349 103.985 48.0004 104.03 47.697 104.185C47.3266 104.412 47.4108 104.604 47.3266 104.923C47.2822 105.095 47.2201 105.262 47.1414 105.422C47.0277 105.673 46.8972 105.921 46.813 106.143C46.5857 106.738 46.392 107.333 46.1858 107.928C45.9795 108.523 45.7269 109.093 45.5585 109.688C45.5223 109.813 45.4955 109.941 45.4786 110.07C45.226 110.242 44.9734 110.414 44.7293 110.598C44.0768 111.051 43.4664 111.562 42.8223 112.073C42.7045 112.161 42.3172 112.513 41.913 112.857C41.4332 113.276 40.9322 113.695 40.8565 113.632C41.1066 112.879 41.4178 112.148 41.7868 111.445C42.1277 110.77 42.5066 110.108 42.877 109.462C42.9657 109.329 43.0248 109.179 43.0503 109.022C43.0758 108.865 43.0671 108.704 43.0248 108.55C42.9825 108.396 42.9076 108.253 42.8051 108.131C42.7027 108.008 42.575 107.909 42.4308 107.84C42.2101 107.715 41.9633 107.643 41.7099 107.629C41.4564 107.616 41.2032 107.66 40.9701 107.76C40.6249 107.903 40.2545 108.523 40.0272 108.838C39.4841 109.605 38.9748 110.426 38.4317 111.193L37.6614 112.425C37.5772 112.539 37.0342 113.331 37.1183 113.331C37.1535 113.324 37.1849 113.304 37.2067 113.276C36.5997 114.124 35.8804 114.887 35.0683 115.544C34.8789 115.695 34.7441 115.732 34.6473 115.69C34.2264 115.523 34.6473 113.884 34.7778 113.557C35.2437 112.274 35.8869 111.062 36.689 109.957C36.7689 109.831 37.6067 108.766 38.2591 107.999C38.5117 107.706 38.739 107.45 38.8822 107.316C38.6585 107.522 38.4463 107.741 38.2465 107.97C37.5982 108.699 36.7563 109.73 36.5627 109.957C37.0549 109.222 37.5978 108.521 38.1876 107.861C38.9074 107.09 39.7367 106.444 40.6375 106.294L40.2671 106.436C40.6364 106.4 41.0078 106.39 41.3784 106.407L41.2942 106.323C41.4374 106.407 41.5216 106.52 41.7152 106.52C42.4266 106.491 42.254 105.359 41.9425 105.015C41.5216 104.449 40.486 104.223 39.8041 104.391C39.6062 104.449 39.5178 104.563 39.2905 104.592C39.0254 104.599 38.764 104.656 38.5201 104.76C37.9592 105.056 37.4491 105.44 37.0089 105.895L36.8068 106.097C35.9126 107.012 35.0694 107.977 34.2811 108.984C34.0102 109.224 33.7811 109.508 33.6033 109.823C33.1192 110.472 32.6604 111.08 32.1468 111.696C31.7059 112.19 31.2968 112.71 30.9218 113.255C30.9117 113.323 30.8934 113.389 30.8671 113.452C30.7351 113.621 30.5946 113.783 30.4462 113.938C30.1894 114.19 29.9326 114.475 29.6506 114.731C29.5453 114.827 29.3264 115.032 29.0528 115.263C28.1856 115.996 26.7501 117.023 26.527 115.921C26.5247 115.89 26.5247 115.859 26.527 115.829C26.4647 115.097 26.5374 114.359 26.7417 113.653C26.8259 113.285 26.9143 112.941 26.969 112.572C27.028 112.291 26.9438 112.006 27.0827 111.734C27.1711 111.566 27.1964 111.591 27.3984 111.537L27.8825 111.365C28.1987 111.262 28.5045 111.13 28.796 110.971C29.0036 110.841 29.2046 110.702 29.398 110.552C29.4737 110.497 29.5411 110.443 29.6085 110.384C29.6758 110.326 29.8695 110.183 29.9915 110.082C30.8755 109.345 31.8143 108.465 32.1847 107.358C32.3549 106.898 32.3711 106.395 32.231 105.925C32.182 105.775 32.1096 105.633 32.0163 105.506C31.6084 105.051 31.0523 104.754 30.4462 104.667C29.1833 104.437 28.1814 104.982 27.3732 105.82C27.1922 106.013 27.0196 106.214 26.8554 106.428C25.9913 107.509 25.3336 108.74 24.9148 110.057L23.5803 111.847L22.0396 113.863L21.1977 114.915C21.1261 115.003 20.7178 115.523 20.5831 115.732C20.5494 115.783 20.5284 115.82 20.541 115.82L20.5915 115.787C20.6555 115.761 20.7152 115.726 20.7683 115.682L20.6042 115.845C20.0359 116.403 18.7435 117.522 18.4994 117.212C18.2552 116.902 18.9203 115.736 18.9835 115.451C19.2992 114.613 19.5854 113.775 19.9264 112.983C20.2674 112.191 20.722 111.34 21.0672 110.514C21.4124 109.688 20.8946 109.324 20.0695 109.123C19.6991 109.039 19.2276 109.039 18.8067 108.984C18.8067 109.009 18.8361 109.009 18.8361 109.009C19.2969 109.053 19.7541 109.129 20.2043 109.236C19.5181 109.039 18.6635 109.123 18.0995 108.984C17.729 108.896 17.5017 108.896 17.5606 108.473C17.6154 107.903 18.2131 107.308 18.4026 106.767C18.3359 106.944 18.2783 107.125 18.23 107.308C18.3731 107.367 18.6004 106.57 18.6004 106.47C18.5813 106.408 18.5514 106.349 18.512 106.298C18.3983 106.13 18.2215 105.95 18.2005 106.071L18.2594 106.155C16.8913 105.221 15.2664 107.149 15.5527 108.54C15.6074 108.741 15.7211 108.854 15.8095 109.081C15.8286 109.169 15.8426 109.259 15.8515 109.349C15.8623 109.467 15.9061 109.581 15.9778 109.676C16.5756 110.414 17.6617 110.443 18.5036 110.271C17.9192 111.378 17.3951 112.515 16.9334 113.679L16.7356 114.387C16.7061 114.358 16.8197 114.131 16.765 114.131C16.563 114.102 16.1673 115.749 16.1378 115.891C16.0016 116.531 16.0708 117.196 16.3356 117.794C16.4732 118.186 16.7328 118.524 17.0765 118.758C17.4175 118.994 17.8381 119.086 18.2468 119.014C18.3899 118.955 18.9287 118.595 18.7898 118.595L18.9877 118.511C18.9582 118.536 18.9288 118.566 18.9288 118.595C19.4714 118.243 19.9954 117.864 20.4989 117.459C20.6463 117.337 20.781 117.199 20.9199 117.069C21.626 116.379 22.2672 115.625 22.8352 114.819C23.2983 114.165 23.7698 113.511 24.237 112.857C24.1949 113.092 24.157 113.331 24.1192 113.57C23.976 114.408 23.8918 115.217 24.3465 116.013C24.317 115.728 24.2623 115.472 24.2623 115.217C24.2623 115.074 24.317 114.936 24.317 114.819C24.317 114.764 24.2623 114.592 24.2623 114.508C24.2713 114.269 24.3095 114.031 24.3759 113.8C24.4012 113.544 24.3759 113.289 24.4012 113.033C24.4439 112.765 24.5306 112.506 24.658 112.266C24.6605 112.256 24.6605 112.246 24.658 112.237C24.7338 112.136 24.8095 112.031 24.8811 111.927C24.9095 111.878 24.9404 111.83 24.9737 111.784C24.9737 111.935 24.9737 112.09 24.9737 112.237C24.9148 112.606 24.8011 112.974 24.7464 113.373C24.6917 113.771 24.5191 114.081 24.4601 114.45C24.3698 114.755 24.3216 115.071 24.317 115.389C24.3205 115.578 24.3402 115.768 24.3759 115.954C24.421 116.162 24.5299 116.351 24.6875 116.495C24.9183 116.765 25.1845 117.004 25.4789 117.203C25.8098 117.435 26.1787 117.608 26.5691 117.715C26.8083 117.79 27.0603 117.817 27.31 117.792C27.5597 117.768 27.8018 117.693 28.0214 117.572C28.5192 117.289 28.9765 116.941 29.3811 116.537C29.5327 116.39 29.68 116.244 29.8021 116.097C30.2862 115.556 30.644 114.961 31.086 114.395C31.528 113.829 31.97 113.402 32.3489 112.891L32.492 112.71C32.4531 113.11 32.4348 113.512 32.4373 113.913C32.427 114.305 32.4752 114.696 32.5804 115.074C32.6057 115.133 32.9509 115.787 32.8919 115.493L32.9761 115.69C32.9509 115.69 32.9214 115.665 32.8919 115.636C32.8077 115.783 33.3971 116.365 33.7802 116.684C33.8664 116.761 33.961 116.828 34.0622 116.885C34.2691 116.97 34.4951 116.999 34.717 116.969C34.9389 116.939 35.1488 116.851 35.3251 116.713C36.2638 116.147 36.9205 115.066 37.5772 114.161C38.3407 113.192 39.0436 112.177 39.682 111.122L39.0548 113.335C38.798 114.173 38.6548 115.38 38.1413 116.034C37.5299 116.665 36.8834 117.261 36.2049 117.819C35.5619 118.381 34.9519 118.978 34.3779 119.609C33.5526 120.558 32.7824 121.553 32.0711 122.589C31.2291 123.779 30.6735 125.058 31.2291 126.449C31.7427 127.669 32.913 128.805 34.3358 128.461C35.565 128.151 36.0196 127.128 36.5627 126.164C38.2718 123.23 39.1263 119.806 40.0945 116.524C40.1766 116.041 40.3728 115.584 40.667 115.192C41.0361 114.847 41.4255 114.526 41.8331 114.228L42.2246 113.896C42.9023 113.314 43.5969 112.756 44.3294 112.182L45.3228 111.428C45.2508 111.771 45.3029 112.129 45.4701 112.438C45.7564 112.92 46.5268 113.662 47.0403 113.037L47.154 113.264C47.6381 112.212 48.379 111.277 48.9767 110.254C49.3114 109.814 49.6727 109.394 50.0586 108.997C50.2817 108.699 50.4795 108.406 50.7111 108.113C50.9931 107.731 51.2794 107.35 51.5993 106.981C51.4364 107.248 51.2956 107.529 51.1784 107.819C51.2331 107.79 51.2625 107.731 51.3173 107.677L50.9552 108.486C50.9258 108.46 51.0689 108.259 51.01 108.259C50.951 108.259 50.9047 108.318 50.8332 108.427C50.5731 108.914 50.3467 109.418 50.1554 109.936C49.9902 110.538 49.8942 111.156 49.8692 111.78C49.8692 111.994 49.8229 112.199 49.806 112.425C49.806 112.522 49.806 112.618 49.806 112.715C49.7936 113.036 49.8525 113.357 49.9786 113.653C50.0639 113.849 50.1789 114.03 50.3196 114.19C50.349 114.19 50.6606 114.475 50.5174 114.249L50.69 114.42L50.6058 114.362C50.5806 114.479 51.3004 114.89 51.6456 115.057C51.7172 115.091 51.7719 115.12 51.8014 115.129C52.6012 115.384 53.4557 114.475 53.9693 113.938C54.3902 113.465 54.7902 112.949 55.1816 112.434C55.0165 113.22 55.0309 114.034 55.2238 114.814C55.3627 115.271 55.8762 116.294 56.5329 116.206C56.5624 116.206 56.5035 116.177 56.4193 116.122C56.5173 116.147 56.6173 116.164 56.7182 116.172C57.0336 116.2 57.3492 116.122 57.6148 115.95C57.6443 116.009 57.3033 116.151 57.3033 116.151C57.6148 116.633 59.9553 113.821 60.1237 113.565C60.4942 113.058 60.7509 112.518 61.0919 111.977C61.3487 111.579 61.7486 111.072 62.0349 110.644C62.0158 110.794 62.0059 110.945 62.0054 111.097C61.4918 112.715 61.0077 114.475 61.6939 116.151C61.8781 116.695 62.2493 117.157 62.7421 117.455C63.0362 117.614 63.3764 117.669 63.706 117.61C63.9208 117.571 64.1272 117.496 64.3164 117.388C64.8937 117.023 65.3929 116.549 65.7856 115.992C65.8403 115.929 65.8908 115.862 65.9413 115.795C66.5044 115.088 67.0245 114.347 67.4989 113.578C67.6462 113.331 67.7893 113.079 67.9198 112.828C68.2819 113.209 68.8081 113.511 69.1827 113.041L69.2964 113.268C69.7805 112.216 70.5214 111.281 71.1191 110.258C71.3759 109.806 71.8347 109.491 72.2052 109.001C72.4325 108.699 72.6472 108.398 72.8661 108.1C73.1439 107.723 73.426 107.35 73.7417 106.985C73.5788 107.253 73.438 107.533 73.3207 107.823C73.3755 107.794 73.4049 107.735 73.4638 107.681L73.064 108.473C73.0345 108.448 73.1776 108.247 73.1187 108.247C73.0597 108.247 73.0219 108.297 72.9545 108.398C72.6884 108.889 72.4577 109.399 72.2641 109.923C72.0983 110.525 72.0036 111.144 71.9821 111.767C71.9526 112.077 71.8937 112.392 71.8937 112.702C71.8937 112.735 71.8937 112.769 71.8937 112.803C71.8914 113.091 71.9487 113.376 72.0621 113.641C72.1474 113.836 72.2624 114.017 72.403 114.177C72.4325 114.177 72.744 114.462 72.6051 114.236L72.7735 114.408L72.6893 114.349C72.6683 114.454 73.2534 114.798 73.6196 114.99C73.7417 115.053 73.8427 115.099 73.8848 115.116C74.6846 115.372 75.5392 114.462 76.0527 113.926C76.511 113.41 76.9423 112.872 77.3451 112.312C77.343 112.348 77.343 112.385 77.3451 112.421C77.3156 113.1 77.202 113.783 77.1725 114.492C77.1627 114.871 77.1824 115.251 77.2314 115.627C77.2314 115.741 77.4588 116.336 77.4588 116.164L77.6019 116.65C77.5475 116.548 77.4997 116.443 77.4588 116.336C77.3788 116.432 77.5808 116.809 77.8039 117.174C77.9387 117.391 78.0892 117.599 78.2544 117.794C78.503 118.032 78.8247 118.18 79.1678 118.213C80.3086 118.356 81.3905 117.702 82.2198 117.023C82.5018 116.784 82.7797 116.533 83.0617 116.277C84.1983 115.239 85.2161 114.08 86.0968 112.819C86.3788 112.4 86.6904 111.981 87.0061 111.562C86.8862 111.838 86.8205 112.133 86.8124 112.434L86.8672 112.379C86.8167 112.585 86.7787 112.793 86.7535 113.004C86.6988 112.974 86.783 112.803 86.724 112.803C86.442 112.777 86.3283 114.592 86.3536 114.789C86.3872 115.106 86.492 115.411 86.6604 115.682C86.8287 115.952 87.0563 116.182 87.326 116.353C87.457 116.423 87.5996 116.47 87.747 116.491C87.9141 116.52 88.085 116.52 88.2521 116.491C88.3658 116.491 88.9088 116.265 88.711 116.265L88.8794 116.206L88.8246 116.265C88.8499 116.29 89.877 115.845 90.0496 115.778C90.8649 115.388 91.5924 114.838 92.1881 114.161L94.0697 112.291C94.4907 111.872 94.8654 111.21 95.3326 110.87C95.0758 111.667 94.8191 112.459 94.5875 113.255C94.276 114.19 94.1034 115.351 93.6488 116.189C93.2783 116.868 92.3396 117.493 91.7966 118.033C91.0262 118.742 90.2559 119.454 89.5444 120.192C88.5611 121.275 87.6378 122.411 86.7787 123.595C85.8653 124.815 84.615 126.529 85.7516 128.025C86.1355 128.564 86.6689 128.98 87.2864 129.222C87.9039 129.464 88.5789 129.521 89.2287 129.387C90.399 129.102 90.8536 128.13 91.4261 127.229C93.2489 124.22 94.2465 120.728 95.3032 117.409C95.4715 116.927 95.5852 116.076 95.8715 115.678C96.2356 115.29 96.6375 114.939 97.0712 114.63C97.9131 113.863 98.8098 113.125 99.6938 112.413L102.173 110.455C102.544 110.17 103.057 109.919 103.015 109.378C102.931 108.469 102.047 109.349 101.752 109.605" fill="#32BDB9"/>
<path d="M65.6306 78.8581C65.6071 78.2793 65.4418 77.7151 65.149 77.2145C64.8562 76.714 64.4449 76.2924 63.9508 75.9865C63.4568 75.6806 62.8951 75.4998 62.3147 75.4597C61.7343 75.4196 61.1529 75.5215 60.6212 75.7566C60.2078 75.9432 59.8119 76.1662 59.4383 76.423C58.492 77.0958 57.6423 77.8939 56.9126 78.7952C56.6474 79.1012 56.3906 79.4113 56.1801 79.6586C55.6833 79.2102 55.2077 78.791 54.7446 78.3593C53.9803 77.6051 53.0358 77.057 52 76.7667C50.5645 76.4062 48.948 76.9595 48.2492 78.0743C47.7482 78.9282 47.5974 79.9416 47.8283 80.9034C48.1612 82.6042 48.9612 84.1798 50.1393 85.4551C50.9223 86.3395 51.7348 87.1945 52.4967 88.0914C53.2199 88.9682 53.8308 89.9312 54.3152 90.9582C54.3726 91.1187 54.4755 91.2592 54.6115 91.3627C54.7475 91.4661 54.9107 91.528 55.0814 91.5408C55.2552 91.539 55.4242 91.4836 55.5652 91.3823C55.7061 91.281 55.8121 91.1387 55.8686 90.975L55.957 90.7906C56.4131 89.8517 57.0171 88.9914 57.7461 88.2423C58.8811 87.1268 60.1028 86.1023 61.4 85.1785C62.6452 84.2962 63.7361 83.2158 64.6287 81.9806C65.2934 81.0763 65.6383 79.9783 65.6095 78.8581" fill="#F0AFCC"/>
<path d="M44.4398 126.291L45.5848 123.512L46.7298 126.291H44.4398ZM46.4814 121.262H44.7345L41.0469 129.892H42.958L43.7452 127.972H47.3865L47.7359 128.81L48.1568 129.879H50.1396L47.7191 124.221L46.4814 121.262Z" fill="#F0AFCC"/>
<path d="M53.174 124.639V123.323H51.3008V129.891H53.174V127.464C53.1266 126.842 53.3126 126.225 53.696 125.733C53.8848 125.533 54.1155 125.378 54.3716 125.277C54.6277 125.176 54.903 125.133 55.1778 125.15H55.2746V123.201C54.298 123.164 53.5908 123.641 53.1698 124.647" fill="#F0AFCC"/>
<path d="M60.0368 127.566C60.0392 127.765 59.9805 127.961 59.8684 128.127C59.803 128.227 59.7236 128.318 59.6327 128.395C59.3258 128.619 58.9519 128.733 58.5719 128.718C58.3093 128.73 58.0502 128.655 57.8352 128.504C57.7438 128.438 57.6702 128.35 57.621 128.248C57.5718 128.147 57.5485 128.035 57.5531 127.922V127.897C57.5531 127.897 57.5531 127.867 57.5531 127.851C57.5529 127.726 57.584 127.604 57.6436 127.495C57.7032 127.386 57.7893 127.293 57.8941 127.226C58.0019 127.153 58.1215 127.099 58.2477 127.067C58.4409 127.014 58.6408 126.988 58.8413 126.991C59.1904 126.989 59.537 127.05 59.8642 127.172C59.9189 127.193 59.9778 127.209 60.0326 127.234L60.0368 127.566ZM59.8684 123.345C59.5392 123.275 59.2032 123.241 58.8665 123.244H58.8244C57.955 123.245 57.0951 123.425 56.2987 123.772L56.7659 125.193C57.346 124.968 57.9618 124.847 58.5845 124.837C58.6602 124.833 58.7361 124.833 58.8118 124.837C59.0201 124.83 59.2265 124.879 59.4099 124.978C59.5933 125.076 59.7472 125.222 59.8558 125.399C59.9551 125.592 60.0043 125.806 59.9989 126.023V126.132L59.8558 126.09C59.4874 125.978 59.1076 125.906 58.7234 125.876C58.6139 125.876 58.5003 125.876 58.3866 125.876C57.701 125.841 57.022 126.026 56.4502 126.405C56.2094 126.586 56.0176 126.825 55.892 127.098C55.7664 127.372 55.7108 127.672 55.7304 127.972V127.997C55.7165 128.276 55.7678 128.555 55.8803 128.811C55.9927 129.067 56.1634 129.293 56.3787 129.473C56.4827 129.557 56.594 129.633 56.7112 129.699C57.0995 129.905 57.5339 130.011 57.9741 130.005C58.3156 130.016 58.6561 129.96 58.9756 129.839C59.2951 129.718 59.5871 129.535 59.8347 129.301C59.881 129.259 59.9231 129.217 59.9652 129.171V129.883H61.7753V126.073C61.7753 124.545 61.1285 123.636 59.8347 123.345" fill="#F0AFCC"/>
<path d="M68.4737 126.609C68.4798 126.936 68.4062 127.259 68.259 127.552C68.1926 127.686 68.1076 127.81 68.0064 127.921C67.8634 128.082 67.687 128.21 67.4893 128.297C67.2917 128.384 67.0775 128.427 66.8614 128.424C66.6464 128.426 66.4333 128.382 66.237 128.295C66.0407 128.207 65.866 128.078 65.7248 127.916C65.5546 127.724 65.4295 127.497 65.3586 127.25C65.2963 127.042 65.2651 126.826 65.266 126.609C65.2661 126.398 65.2959 126.187 65.3544 125.984C65.4249 125.732 65.5515 125.498 65.7248 125.301C65.866 125.14 66.0407 125.01 66.237 124.923C66.4333 124.835 66.6464 124.791 66.8614 124.794C67.0777 124.791 67.2921 124.835 67.4897 124.923C67.6874 125.01 67.8636 125.139 68.0064 125.301C68.1067 125.414 68.1916 125.539 68.259 125.674C68.4053 125.964 68.479 126.285 68.4737 126.609ZM68.259 123.323C67.9624 123.228 67.6528 123.18 67.3413 123.18C66.9372 123.175 66.5381 123.269 66.1796 123.455C65.8211 123.641 65.5144 123.912 65.287 124.245V120.93H63.418V129.865H65.2702V129.027L65.3418 129.103C65.585 129.389 65.8889 129.619 66.2316 129.776C66.5743 129.932 66.9475 130.011 67.3245 130.008C67.636 130.009 67.9457 129.961 68.2422 129.865C68.7024 129.714 69.1165 129.448 69.4461 129.094C69.7502 128.759 69.9846 128.367 70.1356 127.941C70.2866 127.515 70.3513 127.064 70.3259 126.613C70.3505 126.162 70.285 125.71 70.1333 125.284C69.9816 124.858 69.7466 124.467 69.4419 124.132C69.1206 123.769 68.7142 123.491 68.259 123.323Z" fill="#F0AFCC"/>
<path d="M71.7578 120.938V121.407V122.593H72.263H72.7639H73.7237V120.938H73.4837H71.7578Z" fill="#F0AFCC"/>
<path d="M72.0867 123.314H71.8047V126.051V129.87V129.878H71.8089H73.177H73.6737V128.482V124.714V123.314H73.1728H72.0867Z" fill="#F0AFCC"/>
<path d="M79.3327 127.564C79.3348 127.727 79.2976 127.888 79.2244 128.034C79.1512 128.18 79.044 128.306 78.9118 128.402C78.6059 128.628 78.2313 128.742 77.851 128.725C77.6263 128.732 77.4039 128.678 77.2069 128.57L77.1143 128.511C77.0232 128.445 76.9498 128.357 76.9007 128.255C76.8515 128.153 76.828 128.041 76.8322 127.929V127.904C76.8257 127.772 76.8542 127.64 76.9147 127.522C76.9753 127.405 77.0659 127.305 77.1774 127.233L77.2069 127.212C77.4861 127.055 77.8045 126.981 78.1246 126.998C78.5348 126.991 78.9416 127.074 79.3159 127.241L79.3327 127.564ZM78.1625 123.243C77.8481 123.245 77.5343 123.27 77.2238 123.318C76.6667 123.395 76.1228 123.548 75.6073 123.771L76.0745 125.188C76.4476 125.054 76.8323 124.954 77.2238 124.89C77.4453 124.856 77.6689 124.838 77.8931 124.836C78.836 124.836 79.3075 125.235 79.3075 126.034V126.143C78.7884 125.967 78.2438 125.876 77.6952 125.875C77.5376 125.876 77.3802 125.886 77.2238 125.904C76.6989 125.934 76.1922 126.107 75.7588 126.403C75.518 126.585 75.3262 126.823 75.2006 127.097C75.075 127.37 75.0194 127.671 75.039 127.971V127.996C75.0251 128.275 75.0764 128.553 75.1889 128.809C75.3013 129.065 75.472 129.292 75.6872 129.471C76.1212 129.818 76.6631 130.003 77.2195 129.995H77.3037C77.6772 130.011 78.0496 129.944 78.3939 129.799C78.7383 129.654 79.046 129.435 79.2949 129.157V129.869H81.105V126.06C81.105 124.174 80.1227 123.23 78.1583 123.23" fill="#F0AFCC"/>
<path d="M16.5921 83.4141L16.5508 83.476C16.5714 83.4553 16.5921 83.4347 16.5921 83.4141Z" fill="#F0AFCC"/>
<path d="M15.4006 85.3123C15.5311 85.1656 15.9141 84.5453 16.2425 84.0214L16.5666 83.4766C15.9899 84.4028 15.3711 85.3459 15.3711 85.3459C15.3711 85.3459 15.3921 85.3459 15.4132 85.3123" fill="#F0AFCC"/>
<path d="M16.5938 83.4112L16.6822 83.3022V83.2812L16.5938 83.4112Z" fill="#F0AFCC"/>
<path d="M19.043 80.1797V80.2015C19.0449 80.1982 19.0459 80.1944 19.0459 80.1906C19.0459 80.1868 19.0449 80.183 19.043 80.1797Z" fill="#F0AFCC"/>
<path d="M18.3423 89.6796C18.3302 89.6782 18.3187 89.6729 18.3097 89.6646C18.3006 89.6564 18.2944 89.6455 18.2918 89.6335C18.2918 89.6084 18.2918 89.5748 18.3423 89.5246C18.3718 89.5246 18.3718 89.5707 18.3634 89.6126C18.3585 89.6355 18.3514 89.658 18.3423 89.6796ZM19.2685 86.8002C19.4663 86.4021 19.6431 85.983 19.8199 85.568C19.9187 85.155 20.0671 84.7554 20.2619 84.3777C20.304 84.3777 20.3166 84.428 20.304 84.4867C20.2948 84.526 20.2807 84.564 20.2619 84.5998C20.0395 85.4398 19.7203 86.2513 19.3106 87.0182C19.1043 87.4792 18.8896 87.9487 18.7254 88.4223L18.6623 88.5857C18.6244 88.6905 18.5823 88.7953 18.5444 88.8959L18.5192 88.9755C18.7082 88.2311 18.9588 87.5035 19.2685 86.8002ZM19.0917 80.1529L19.0454 80.22L19.0243 80.2409L18.9822 80.2829L18.957 80.308L18.9359 80.3499L18.9149 80.3709L18.8685 80.417L18.9149 80.3499V80.3709C18.9451 80.314 18.9834 80.2618 19.0285 80.2158L19.0496 80.1906L19.0959 80.1487C19.3514 79.8536 19.6241 79.5737 19.9125 79.3105L19.0917 80.1529ZM10.7188 77.0933C10.4677 78.1166 10.1137 79.1122 9.6622 80.0649C9.24124 80.9032 8.86659 81.7833 8.50456 82.6677L8.37828 82.9653C8.73188 82.0432 9.08549 81.1421 9.4854 80.2409C9.7927 79.5159 10.0369 78.7447 10.3273 78.0196C10.462 77.7094 10.6136 77.3616 10.7483 77.0095L10.723 77.0933M23.3518 93.1709C23.2844 92.8189 22.4214 93.347 22.2025 93.414L22.0931 93.4476C21.4565 93.6569 20.7714 93.67 20.1272 93.4853C20.0666 93.4659 20.0075 93.4421 19.9504 93.414C19.8491 93.3568 19.7618 93.2778 19.6948 93.1829C19.6278 93.0879 19.5828 92.9793 19.5631 92.865C19.5107 92.588 19.5107 92.3037 19.5631 92.0267C19.5968 91.8423 19.6347 91.6705 19.6726 91.5196C19.9739 90.3242 20.3723 89.1552 20.8639 88.0241L21.0659 87.5547C21.2554 87.1062 21.4406 86.6536 21.6385 86.2009C21.6974 86.0794 22.1689 84.9058 22.2446 84.6795C22.2446 84.6543 22.2446 84.6376 22.2446 84.6376C22.2038 84.6491 22.1681 84.6742 22.1436 84.7088C22.1235 84.7347 22.1066 84.7628 22.0931 84.7926C22.4762 83.9879 22.9982 83.1455 23.377 82.2779C23.5654 81.8457 23.7065 81.3947 23.798 80.9325C23.8352 80.7473 23.8577 80.5595 23.8653 80.3709C23.884 80.0821 23.867 79.7921 23.8148 79.5075C23.7308 79.0238 23.488 78.5816 23.1244 78.2501C22.8674 78.0162 22.5296 77.89 22.1815 77.898C21.4069 77.898 20.6997 78.4722 20.1693 78.9542C19.2039 79.8503 18.3374 80.8464 17.5846 81.9258C17.4962 82.0348 17.1637 82.5629 16.7427 83.1832C16.8395 83.0239 16.949 82.8689 17.0626 82.718L17.4289 82.236C17.3405 82.3533 17.2605 82.4791 17.1805 82.5964C16.848 83.0784 16.528 83.5604 16.2165 84.0508C16.0313 84.3442 15.8503 84.6418 15.6735 84.9393C15.4125 85.3585 15.1557 85.8027 14.8989 86.2386V86.2596C15.5177 84.1933 16.5364 82.2821 17.3952 80.3248C17.7278 79.5955 18.2792 78.9375 18.5907 78.1914C18.6293 78.0901 18.6616 77.9865 18.6875 77.8813C18.7699 77.4958 18.7662 77.0971 18.6767 76.7133C18.5872 76.3294 18.4142 75.9698 18.1698 75.6599C16.9532 74.1888 15.2231 76.7371 14.4822 77.5082C13.0466 79.1075 11.7615 80.8345 10.643 82.6677C10.7988 82.1857 10.8872 81.7246 11.064 81.2385C11.2871 80.6223 11.527 80.0314 11.7291 79.4153C11.9312 78.7991 12.1501 78.116 12.3437 77.4789C12.4534 77.1371 12.5406 76.7884 12.6047 76.4353C12.6763 76.0614 12.6763 75.6775 12.6047 75.3036C12.5105 74.7446 12.2839 74.2159 11.9438 73.7613C11.3923 73.1703 10.6178 73.2122 9.91056 73.4344C9.29352 73.6277 8.72119 73.9412 8.22673 74.3564C7.96152 74.5995 7.72158 74.8384 7.47742 75.1025L7.25432 75.4126C7.12382 75.5887 7.14487 75.7647 7.08172 75.9156C6.85861 76.4018 6.48397 76.7748 6.32822 77.3029C6.30717 77.3867 6.29033 77.4747 6.27349 77.5669C6.13777 78.1327 6.21255 78.7283 6.48397 79.2434C6.66077 79.4865 6.94701 79.6625 7.21222 79.4404C7.26748 79.3869 7.30181 79.3156 7.30904 79.2392C7.30904 79.1512 7.30904 79.059 7.30904 78.9584C7.34583 78.7187 7.40503 78.483 7.48585 78.2543C7.8775 77.1488 8.4856 76.1316 9.27492 75.2617C9.59075 74.8713 10.0132 74.5802 10.4915 74.4235C11.1524 74.2684 11.1734 74.7965 11.085 75.3246L10.9545 76.1377V75.9198C10.3147 78.2962 9.07706 80.4966 8.23936 82.7808C7.8184 83.9041 7.3301 84.9603 6.86704 86.0584C6.39971 87.0634 6.05896 88.122 5.85253 89.2102C5.83148 89.3653 5.81464 89.5162 5.80622 89.6671C5.78124 89.8704 5.80653 90.0767 5.8799 90.2681C5.95326 90.4595 6.07248 90.6301 6.22718 90.7652C6.31058 90.8462 6.40995 90.909 6.51901 90.9498C6.62807 90.9906 6.74445 91.0084 6.86077 91.0021C6.9771 90.9958 7.09084 90.9655 7.19481 90.9132C7.29878 90.8609 7.39072 90.7876 7.4648 90.6981C7.66315 90.3139 7.81844 89.9091 7.92785 89.491C8.14675 88.9168 8.34881 88.3468 8.58876 87.8145C8.84627 87.2283 9.1577 86.6671 9.51907 86.138C10.2263 84.9938 10.9293 83.8496 11.6828 82.7305C12.4363 81.6115 13.0972 80.5972 13.8676 79.5829C14.58 78.5451 15.4311 77.6088 16.3975 76.7999C16.5533 76.6868 17.0795 76.2718 17.3026 76.3598C17.3784 76.385 17.3868 76.4646 17.3699 76.5568C17.334 76.6842 17.289 76.8089 17.2352 76.9299C16.8558 77.9599 16.3823 78.9532 15.8208 79.8973C14.5579 82.0558 13.2151 84.4741 12.731 86.9595C12.7099 87.0643 12.6889 87.1691 12.672 87.2739C12.5881 87.6244 12.5938 87.9904 12.6887 88.3382C12.7835 88.686 12.9645 89.0046 13.2151 89.2647C13.9012 89.906 14.1454 89.3527 14.3643 88.7408C14.5928 88.2475 14.8661 87.7762 15.181 87.3325C15.5598 86.7164 15.9092 86.0752 16.3091 85.4423C16.5093 85.0534 16.7461 84.6843 17.0163 84.34C17.4498 83.8689 17.8413 83.3612 18.1866 82.8228C18.9113 81.7136 19.7585 80.6887 20.7123 79.7673C20.9565 79.5452 21.508 78.9752 21.8826 79.0632C22.072 79.1093 22.0973 79.2518 22.0678 79.4278C22.0384 79.6039 21.8826 79.9476 21.8616 80.1278V80.1865L22.0173 79.8763C22.0056 79.9036 21.9958 79.9316 21.9878 79.9601C21.8658 80.3248 21.7395 80.6726 21.5964 81.0205C21.5964 81.0205 21.5964 81.0205 21.5964 80.987C21.6077 80.9155 21.626 80.8453 21.6511 80.7774C21.6493 80.7635 21.6493 80.7494 21.6511 80.7355C21.5627 80.7104 21.0996 81.7666 21.0323 81.8797C20.6629 82.5566 20.3381 83.2566 20.0599 83.9753C19.8157 84.6334 19.5758 85.2327 19.2853 85.8866L18.8012 86.9889C18.6821 87.2525 18.5863 87.5259 18.5149 87.8062C18.5002 87.8766 18.5002 87.9494 18.5149 88.0199C18.536 88.0199 18.557 88.0199 18.557 87.9989V88.0492L18.4644 88.3845V88.3217C18.4644 88.2253 18.4981 88.0912 18.4981 88.0744C18.4499 88.1405 18.4221 88.2191 18.4181 88.3007C18.4017 88.3936 18.3905 88.4874 18.3844 88.5815C18.2508 89.0357 18.1454 89.4976 18.0687 89.9646C17.971 90.5405 17.9484 91.1266 18.0014 91.7082C18.0809 92.5479 18.3992 93.3475 18.9191 94.0134C19.4916 94.7469 20.1819 95.0947 21.0239 94.9355L21.2301 94.8936C21.6937 94.778 22.1253 94.5603 22.493 94.2565C22.8362 93.9946 23.1142 93.6576 23.3054 93.2715C23.3157 93.2189 23.3157 93.1649 23.3054 93.1123" fill="#F0AFCC"/>
<path d="M29.2282 94.7801C29.1187 95.1713 28.9633 95.5484 28.7651 95.9034L28.5841 96.2177L28.563 96.2554C28.6453 96.0068 28.7423 95.7633 28.8535 95.5262C28.9586 95.243 29.0912 94.9707 29.2492 94.713L29.2282 94.7801ZM27.4812 96.0375C27.4601 96.0375 27.4601 96.0626 27.4601 96.0626C27.4565 96.0846 27.4494 96.1058 27.4391 96.1255C27.2112 96.6392 26.9526 97.1389 26.6645 97.6218C26.4204 98.0199 26.092 98.657 25.629 98.8079C24.8081 99.0929 24.6902 97.8733 24.7871 97.3074C24.7871 97.2599 24.7955 97.218 24.8123 97.1817C24.942 96.751 25.1259 96.3384 25.3596 95.9537C25.5913 95.5755 25.8457 95.2116 26.1215 94.8639C26.3404 94.5789 26.5677 94.3023 26.7782 94.0257C27.293 93.3671 27.8424 92.7362 28.4241 92.1354C28.7062 91.8462 28.9924 91.557 29.2955 91.2762C29.2973 91.2929 29.2973 91.3098 29.2955 91.3265L28.8746 92.5546C28.4831 93.6527 28.0747 94.7508 27.6117 95.8279V95.8489L27.5233 96.0249L27.4812 96.0375ZM28.8956 94.9855L28.984 94.8514C28.9635 94.9013 28.9335 94.9469 28.8956 94.9855ZM29.6028 93.1162L29.5565 93.2252L29.2113 94.0634C29.2383 93.8722 29.2966 93.6867 29.3839 93.5144C29.426 93.4263 29.4807 93.3048 29.527 93.1791C29.5566 93.1041 29.5806 93.027 29.5986 92.9485C29.6026 92.8983 29.6026 92.8479 29.5986 92.7977C29.5986 92.7725 29.5986 92.7474 29.5986 92.7222C29.6157 92.8263 29.6157 92.9325 29.5986 93.0365C29.6005 93.0575 29.6005 93.0785 29.5986 93.0994M36.0898 84.566C35.7151 84.872 35.3194 85.136 34.9448 85.4462L34.7722 85.5761C33.7577 86.3473 32.7979 87.1562 31.8255 87.961C32.2084 86.918 32.689 85.9133 33.2609 84.96C33.3493 84.8091 33.4335 84.6541 33.5261 84.5074V84.4822C33.6144 84.3556 33.6773 84.2133 33.7114 84.0631C33.7219 83.9908 33.7219 83.9174 33.7114 83.8451C33.6019 83.25 32.8063 83.0069 32.2759 83.0949C31.8128 83.1829 31.7666 83.4051 31.6781 83.711C31.5013 84.2601 30.8615 84.7463 30.4868 85.1654C30.3311 85.3414 29.2955 86.5946 29.2703 86.5946C29.2856 86.597 29.3012 86.597 29.3166 86.5946L29.426 86.5401L29.3418 86.6239C29.2197 86.7455 29.0808 86.867 28.9209 86.9928C28.4999 87.349 27.999 87.7095 27.578 88.0364C27.3339 88.2334 26.6266 88.9375 26.252 88.8034C25.9573 88.7112 25.9152 88.3214 26.0036 87.8017C26.2141 86.5443 27.1949 84.5786 27.3044 84.2726C27.3044 84.2475 27.3044 84.2307 27.3044 84.2307C26.976 84.8603 26.6878 85.5098 26.4414 86.1755L26.3741 86.3431C26.6634 85.4862 27.0022 84.6465 27.3886 83.8284L27.679 83.2081C27.679 83.229 27.679 83.25 27.679 83.2751C27.663 83.3203 27.6504 83.3665 27.6412 83.4134C27.6412 83.447 27.6412 83.4721 27.6412 83.4721C27.6412 83.4721 27.9316 83.0027 27.9737 82.8183C27.9737 82.7806 27.9737 82.7512 27.9737 82.747H27.9527C27.9373 82.7489 27.9217 82.7489 27.9064 82.747C27.9737 82.6632 28.079 82.6171 28.1253 82.4956C28.1926 82.2106 27.86 81.9046 27.6159 81.8166C27.493 81.7636 27.3605 81.7363 27.2265 81.7363C27.0926 81.7363 26.9601 81.7636 26.8371 81.8166H26.8034C26.5515 81.9313 26.3475 82.1299 26.2267 82.3782C26.1594 82.4662 26.092 82.6213 26.0499 82.6674C25.9826 82.7973 25.8731 82.8434 25.7847 82.9734C25.5831 83.4174 25.4142 83.8754 25.2796 84.3439C25.2249 84.5074 24.6902 86.0204 24.5639 86.5695C24.5639 86.6114 24.564 86.6449 24.5429 86.6742C24.5219 86.7036 24.5429 86.7622 24.5429 86.7622L24.5892 86.7203C24.5892 86.7203 24.5892 86.7497 24.5892 86.7622C24.5689 86.8366 24.5535 86.9122 24.5429 86.9886C24.5429 87.0598 24.5177 87.1353 24.5092 87.2023C24.4671 87.1772 24.5303 87.0514 24.5092 87.0514C24.4882 87.0514 24.3577 87.2526 24.3072 87.5209C24.2654 87.7719 24.2387 88.0253 24.2272 88.2795C24.2272 88.4346 24.2272 88.5519 24.2272 88.5896C24.2494 88.8304 24.3252 89.0633 24.4489 89.2713C24.5727 89.4794 24.7414 89.6574 24.9428 89.7925C25.159 89.9085 25.4082 89.9483 25.65 89.9057C25.775 89.8801 25.8946 89.8333 26.0036 89.7674C26.0289 89.7674 26.0331 89.738 26.0036 89.738L26.1341 89.6919L26.092 89.738C26.141 89.727 26.1889 89.7115 26.2352 89.6919C26.4751 89.5997 26.9424 89.3944 27.0392 89.3608C27.6726 89.0591 28.2371 88.6311 28.6978 88.1035L29.2955 87.5083L30.1374 86.67C30.4386 86.2845 30.7634 85.9178 31.1099 85.5719C31.111 85.5873 31.111 85.6027 31.1099 85.618C30.9162 86.2174 30.7226 86.8167 30.5542 87.4161C30.4153 87.8352 30.3142 88.2921 30.188 88.7363C30.0999 89.0708 29.9772 89.3953 29.8217 89.7045C29.5355 90.2326 28.8072 90.7146 28.3863 91.1337C28.2179 91.293 28.0495 91.4523 27.8769 91.6073C27.4559 92.0013 27.035 92.3995 26.6435 92.806C26.593 92.8563 26.5467 92.915 26.4962 92.9695C25.7847 93.7407 25.1407 94.5999 24.5008 95.4423C23.9837 96.0439 23.6044 96.7505 23.3895 97.5128V97.5547C23.3444 97.785 23.35 98.0223 23.406 98.2503C23.4619 98.4782 23.5669 98.6913 23.7136 98.875C24.0108 99.2929 24.424 99.6153 24.9025 99.8029C25.3811 99.9905 25.9042 100.035 26.4077 99.9312C27.3128 99.709 27.6706 98.963 28.0916 98.2547C28.9213 96.8259 29.5945 95.3126 30.0996 93.7407C30.4532 92.7096 30.7731 91.666 31.0972 90.6475C31.1604 90.4673 31.2109 90.2284 31.274 89.9853C31.3225 89.7455 31.4122 89.5158 31.5392 89.3063C31.8192 89.0045 32.1296 88.7321 32.4653 88.4932C33.1262 87.8981 33.8124 87.3239 34.4986 86.7748L35.5636 85.9366L36.4055 85.2618C36.6497 85.0732 36.9738 84.9013 37.0369 84.5954C37.0476 84.54 37.0476 84.4831 37.0369 84.4277C36.9738 83.7236 36.2876 84.4068 36.0645 84.6038" fill="#F0AFCC"/>
</g>
<defs>
<clipPath id="clip0_1918_1988">
<rect width="103" height="130" fill="white"/>
</clipPath>
</defs>
</svg>
