<svg width="561" height="342" viewBox="0 0 561 342" fill="none" xmlns="http://www.w3.org/2000/svg">
<g opacity="0.8">
<path d="M286.137 37.677C219.499 -41.925 107.899 26.3699 60.4287 70.4676C-21.9433 162.126 -8.18587 239.283 31.409 298.306C66.7276 350.955 139.815 350.955 180.269 319.789C198.929 305.415 265.716 262.689 396.304 274.561C526.893 286.434 598.905 149.052 538.178 37.677C477.452 -73.6983 369.434 137.179 286.137 37.677Z" stroke="#3AB8B7"/>
<path d="M286.568 80.2459C227.735 23.5946 129.207 72.1989 87.2962 103.582C14.5721 168.814 26.7182 223.725 61.6755 265.731C92.8573 303.2 157.384 303.2 193.1 281.02C209.574 270.79 268.539 240.383 383.832 248.832C499.125 257.282 562.702 159.51 509.088 80.2459C455.475 0.982109 360.109 151.06 286.568 80.2459Z" stroke="#3AB8B7"/>
<path d="M290.184 110.396C238.77 71.7461 152.664 104.906 116.038 126.317C52.4836 170.821 63.0982 208.284 93.6478 236.942C120.898 262.505 177.289 262.505 208.501 247.373C222.898 240.393 274.428 219.648 375.184 225.413C475.94 231.177 531.501 164.473 484.648 110.396C437.794 56.3189 354.453 158.708 290.184 110.396Z" stroke="#3AB8B7"/>
</g>
</svg>
