<svg width="190" height="190" viewBox="0 0 190 190" fill="none" xmlns="http://www.w3.org/2000/svg">
<g clip-path="url(#clip0_1918_278)">
<path d="M95 156.5C128.966 156.5 156.5 128.966 156.5 95C156.5 61.0345 128.966 33.5 95 33.5C61.0345 33.5 33.5 61.0345 33.5 95C33.5 128.966 61.0345 156.5 95 156.5Z" stroke="#3AB8B7"/>
<path d="M95 113C104.941 113 113 104.941 113 95C113 85.0589 104.941 77 95 77C85.0589 77 77 85.0589 77 95C77 104.941 85.0589 113 95 113Z" fill="#3AB8B7"/>
<path d="M59.4023 14.2002L61.7023 13.2002L71.7023 22.7002L69.0023 23.9002L66.8023 21.8002L62.0023 23.8002L62.1023 26.9002L59.5023 28.0002L59.4023 14.2002ZM65.0023 19.8002L61.8023 16.7002L61.9023 21.1002L65.0023 19.8002Z" fill="#3AB8B7"/>
<path d="M75.2992 20.5L75.5992 21.7L72.8992 22.4L69.6992 9.7L72.3992 9L73.5992 13.7C73.9992 12.6 74.6992 11.8 76.0992 11.5C78.2992 11 80.7992 12.2 81.5992 15.3C82.3992 18.4 80.7992 20.6 78.4992 21.2C77.0992 21.6 76.0992 21.1 75.2992 20.5ZM78.8992 16C78.4992 14.4 77.1992 13.6 75.9992 13.9C74.7992 14.2 73.9992 15.5 74.3992 17.1C74.7992 18.7 76.0992 19.4 77.2992 19.1C78.4992 18.8 79.2992 17.6 78.8992 16Z" fill="#3AB8B7"/>
<path d="M83.3996 15.1001C83.0996 12.3001 85.1996 9.90009 88.1996 9.60009C91.1996 9.30009 93.5996 11.3001 93.7996 14.1001C94.0996 16.9001 91.9996 19.3001 88.9996 19.6001C86.0996 19.8001 83.6996 17.8001 83.3996 15.1001ZM91.0996 14.4001C90.9996 12.9001 89.7996 11.8001 88.2996 11.9001C86.6996 12.0001 85.8996 13.3001 85.9996 14.7001C86.0996 16.1001 87.2996 17.3001 88.7996 17.1001C90.3996 17.1001 91.2996 15.8001 91.0996 14.4001Z" fill="#3AB8B7"/>
<path d="M95.9008 15.5008L96.2008 9.30078L99.0008 9.40078L98.7008 14.8008C98.6008 16.1008 99.2008 16.8008 100.201 16.8008C101.201 16.8008 101.901 16.2008 102.001 14.9008L102.301 9.50078L105.001 9.60078L104.501 19.2008L101.801 19.1008L101.901 17.7008C101.201 18.5008 100.401 19.2008 99.0008 19.1008C96.9008 19.1008 95.8008 17.7008 95.9008 15.5008Z" fill="#3AB8B7"/>
<path d="M107.601 17.1004L108.401 12.6004L107.301 12.4004L107.701 10.1004L108.801 10.3004L109.201 7.90039L111.901 8.40039L111.501 10.8004L113.701 11.2004L113.301 13.5004L111.101 13.1004L110.401 17.2004C110.301 17.8004 110.501 18.2004 111.101 18.3004C111.601 18.4004 112.001 18.4004 112.501 18.2004L112.101 20.4004C111.501 20.6004 110.801 20.7004 109.901 20.6004C108.201 20.2004 107.201 19.3004 107.601 17.1004Z" fill="#3AB8B7"/>
<path d="M119.8 19.1008L122 13.3008L124.6 14.3008L122.7 19.3008C122.2 20.5008 122.6 21.3008 123.6 21.7008C124.6 22.1008 125.4 21.7008 125.9 20.5008L127.8 15.5008L130.4 16.5008L127 25.5008L124.4 24.5008L124.9 23.2008C124 23.7008 123 24.1008 121.7 23.7008C119.7 22.9008 119 21.2008 119.8 19.1008Z" fill="#3AB8B7"/>
<path d="M128.699 24.9005L130.599 23.9005C131.199 25.1005 131.899 25.9005 132.699 26.3005C133.399 26.7005 133.899 26.6005 134.099 26.2005C134.399 25.7005 133.599 25.1005 132.899 24.3005C131.899 23.3005 130.799 22.0005 131.699 20.4005C132.599 18.7005 134.499 18.4005 136.199 19.4005C137.299 20.0005 138.199 21.0005 138.899 22.1005L137.099 23.3005C136.499 22.4005 135.799 21.6005 135.199 21.3005C134.599 21.0005 134.199 21.1005 133.999 21.4005C133.799 21.8005 134.399 22.6005 135.199 23.3005C136.199 24.3005 137.299 25.6005 136.399 27.2005C135.399 29.1005 133.499 29.2005 131.699 28.2005C130.399 27.4005 129.299 26.4005 128.699 24.9005Z" fill="#3AB8B7"/>
<path d="M142.302 31.2002L144.602 33.0002L142.902 35.3002L140.602 33.5002L142.302 31.2002Z" fill="#3AB8B7"/>
<path d="M161.002 34.7002L162.702 36.6002L156.902 49.1002L155.002 47.0002L156.302 44.3002L152.702 40.3002L149.802 41.3002L147.902 39.2002L161.002 34.7002ZM157.402 41.8002L159.302 37.8002L155.102 39.3002L157.402 41.8002Z" fill="#3AB8B7"/>
<path d="M160.002 51.8006L158.902 52.5006L157.402 50.2006L168.502 43.1006L170.002 45.4006L165.902 48.0006C167.002 48.1006 168.102 48.5006 168.802 49.7006C170.002 51.6006 169.702 54.4006 167.002 56.1006C164.302 57.8006 161.702 57.0006 160.402 55.1006C159.602 53.9006 159.702 52.7006 160.002 51.8006ZM165.502 53.8006C166.902 52.9006 167.202 51.4006 166.502 50.4006C165.802 49.3006 164.302 49.0006 163.002 49.9006C161.602 50.8006 161.302 52.2006 162.002 53.3006C162.702 54.3006 164.102 54.7006 165.502 53.8006Z" fill="#3AB8B7"/>
<path d="M167.801 57.8005C170.401 56.7005 173.301 57.8005 174.501 60.6005C175.701 63.3005 174.601 66.2006 172.001 67.4006C169.501 68.5006 166.501 67.4005 165.301 64.6005C164.201 61.8005 165.301 58.9005 167.801 57.8005ZM170.901 64.9006C172.201 64.3006 173.001 62.9005 172.401 61.5005C171.801 60.1005 170.301 59.7005 169.001 60.3005C167.701 60.9005 167.001 62.3005 167.601 63.7006C168.101 65.1006 169.601 65.4006 170.901 64.9006Z" fill="#3AB8B7"/>
<path d="M171.4 69.8002L177.4 68.2002L178.1 70.8002L172.9 72.2002C171.7 72.5002 171.2 73.3002 171.4 74.3002C171.6 75.3002 172.5 75.8002 173.7 75.4002L179 74.0002L179.7 76.6002L170.4 79.1002L169.7 76.5002L171 76.1002C170.1 75.7002 169.1 75.1002 168.8 73.8002C168.2 71.8002 169.2 70.3002 171.4 69.8002Z" fill="#3AB8B7"/>
<path d="M173.503 81.3002L178.003 80.6002L177.803 79.5002L180.103 79.2002L180.303 80.3002L182.703 79.9002L183.103 82.6002L180.703 83.0002L181.003 85.2002L178.703 85.5002L178.403 83.3002L174.303 83.9002C173.703 84.0002 173.403 84.3002 173.503 84.9002C173.603 85.4002 173.703 85.8002 174.003 86.2002L171.803 86.5002C171.403 86.0002 171.103 85.4002 170.903 84.4002C170.803 82.9002 171.303 81.6002 173.503 81.3002Z" fill="#3AB8B7"/>
<path d="M175.399 93.6L181.599 93.8L181.499 96.5L176.099 96.3C174.799 96.3 174.099 96.8 174.099 97.9C174.099 99 174.699 99.6 175.999 99.7L181.399 99.9L181.299 102.6L171.699 102.2L171.799 99.5L173.199 99.6C172.399 98.9 171.699 98.1 171.799 96.7C171.799 94.6 173.199 93.5 175.399 93.6Z" fill="#3AB8B7"/>
<path d="M172.8 103.801L174.4 105.301C173.5 106.201 172.9 107.201 172.8 108.101C172.7 108.901 172.9 109.301 173.3 109.401C173.9 109.501 174.2 108.601 174.7 107.601C175.3 106.301 176.2 104.901 178 105.201C179.9 105.501 180.8 107.301 180.4 109.201C180.2 110.401 179.6 111.601 178.7 112.601L177 111.301C177.7 110.501 178.2 109.601 178.3 108.901C178.4 108.201 178.2 107.901 177.8 107.801C177.3 107.701 176.8 108.601 176.3 109.501C175.7 110.801 174.7 112.201 173 111.901C170.9 111.501 170.2 109.801 170.5 107.701C170.9 106.301 171.6 104.901 172.8 103.801Z" fill="#3AB8B7"/>
<path d="M171.1 118.8L170.2 121.6L167.5 120.7L168.4 117.9L171.1 118.8Z" fill="#3AB8B7"/>
<path d="M173.699 137.601L172.399 139.801L158.699 138.201L160.099 135.701L163.099 136.101L165.699 131.501L163.799 129.101L165.199 126.601L173.699 137.601ZM165.799 136.501L170.199 137.101L167.499 133.601L165.799 136.501Z" fill="#3AB8B7"/>
<path d="M157.2 142.1L156.2 141.3L157.9 139.2L168.1 147.5L166.4 149.6L162.6 146.5C162.9 147.6 162.8 148.7 161.9 149.8C160.5 151.5 157.8 152.1 155.3 150C152.8 148 152.8 145.2 154.2 143.4C155.1 142.3 156.2 142.1 157.2 142.1ZM157 147.9C158.3 148.9 159.8 148.8 160.6 147.8C161.4 146.8 161.3 145.3 160 144.3C158.8 143.3 157.3 143.4 156.5 144.4C155.7 145.4 155.7 146.9 157 147.9Z" fill="#3AB8B7"/>
<path d="M153.901 151.3C155.801 153.4 155.601 156.5 153.401 158.6C151.201 160.6 148.101 160.5 146.201 158.4C144.301 156.3 144.501 153.2 146.701 151.2C148.901 149.1 152.101 149.3 153.901 151.3ZM148.201 156.5C149.201 157.6 150.801 157.8 151.901 156.8C153.101 155.8 153.001 154.2 152.001 153.2C151.001 152.1 149.501 151.9 148.301 152.9C147.101 153.9 147.201 155.4 148.201 156.5Z" fill="#3AB8B7"/>
<path d="M143.702 158.5L147.202 163.7L144.902 165.2L141.902 160.7C141.202 159.6 140.302 159.4 139.402 160C138.502 160.6 138.302 161.5 139.102 162.6L142.102 167.1L139.802 168.6L134.402 160.6L136.702 159.1L137.502 160.2C137.602 159.2 137.902 158.1 139.002 157.3C140.702 156.2 142.402 156.6 143.702 158.5Z" fill="#3AB8B7"/>
<path d="M133.4 164.2L135.5 168.3L136.5 167.8L137.6 169.9L136.6 170.4L137.7 172.6L135.3 173.8L134.2 171.6L132.2 172.6L131.1 170.5L133.1 169.5L131.2 165.8C130.9 165.2 130.5 165.1 130 165.4C129.6 165.6 129.2 165.9 129 166.3L128 164.3C128.4 163.7 128.9 163.2 129.7 162.8C131.1 162.1 132.4 162.2 133.4 164.2Z" fill="#3AB8B7"/>
<path d="M122.4 169.9L124.1 175.9L121.5 176.7L120 171.5C119.6 170.3 118.9 169.8 117.9 170.1C116.9 170.4 116.4 171.2 116.8 172.5L118.3 177.7L115.7 178.5L113 169.2L115.6 168.4L116 169.7C116.4 168.7 117 167.8 118.3 167.4C120.3 166.8 121.8 167.7 122.4 169.9Z" fill="#3AB8B7"/>
<path d="M111.9 170.6L111 172.6C109.8 172 108.7 171.8 107.8 171.9C107 172 106.7 172.4 106.8 172.8C106.9 173.4 107.8 173.4 108.9 173.6C110.3 173.8 111.9 174.2 112.2 176C112.5 177.9 111.1 179.3 109.2 179.6C108 179.8 106.6 179.6 105.5 179L106.2 177C107.2 177.4 108.2 177.6 108.9 177.5C109.6 177.4 109.9 177.1 109.8 176.7C109.7 176.2 108.8 176 107.7 175.9C106.3 175.7 104.7 175.3 104.4 173.5C104.1 171.4 105.5 170.2 107.6 169.9C108.9 169.6 110.4 169.8 111.9 170.6Z" fill="#3AB8B7"/>
<path d="M97.0992 173.8H94.1992V170.9H97.0992V173.8Z" fill="#3AB8B7"/>
<path d="M80.0992 182.101L77.5992 181.601L74.6992 168.101L77.4992 168.701L78.0992 171.701L83.2992 172.701L84.9992 170.101L87.7992 170.601L80.0992 182.101ZM78.6992 174.301L79.5992 178.601L81.9992 174.901L78.6992 174.301Z" fill="#3AB8B7"/>
<path d="M70.5993 167.9L70.9993 166.7L73.5993 167.7L68.9993 180L66.3993 179L68.0993 174.4C67.1993 175 66.0993 175.3 64.6993 174.8C62.5993 174 61.1993 171.6 62.3993 168.6C63.4993 165.6 66.0993 164.7 68.2993 165.5C69.6993 166 70.2993 166.9 70.5993 167.9ZM64.9993 169.5C64.3993 171 65.0993 172.4 66.1993 172.9C67.3993 173.4 68.7993 172.7 69.2993 171.2C69.8993 169.7 69.2993 168.3 68.0993 167.9C66.9993 167.4 65.5993 168 64.9993 169.5Z" fill="#3AB8B7"/>
<path d="M60.8011 167.701C59.4011 170.101 56.4011 171.001 53.7011 169.501C51.1011 168.001 50.3011 165.001 51.6011 162.601C53.0011 160.201 56.0011 159.301 58.6011 160.801C61.3011 162.301 62.2011 165.301 60.8011 167.701ZM54.1011 163.901C53.4011 165.201 53.7011 166.801 55.0011 167.501C56.4011 168.301 57.8011 167.701 58.5011 166.401C59.2011 165.201 58.9011 163.601 57.6011 162.801C56.2011 162.101 54.8011 162.701 54.1011 163.901Z" fill="#3AB8B7"/>
<path d="M50.8023 160.301L47.0023 165.201L44.8023 163.501L48.1023 159.301C48.9023 158.301 48.8023 157.401 48.0023 156.701C47.2023 156.001 46.2023 156.201 45.4023 157.201L42.1023 161.401L39.9023 159.701L45.8023 152.101L48.0023 153.801L47.2023 154.901C48.2023 154.601 49.3023 154.601 50.4023 155.401C52.0023 156.701 52.2023 158.501 50.8023 160.301Z" fill="#3AB8B7"/>
<path d="M42.2008 152.3L39.0008 155.6L39.8008 156.4L38.2008 158.1L37.4008 157.3L35.7008 159.1L33.8008 157.2L35.5008 155.4L33.9008 153.8L35.5008 152.1L37.1008 153.7L40.0008 150.8C40.4008 150.4 40.5008 149.9 40.0008 149.5C39.7008 149.2 39.3008 148.9 38.8008 148.8L40.3008 147.2C41.0008 147.4 41.6008 147.7 42.2008 148.3C43.4008 149.4 43.7008 150.7 42.2008 152.3Z" fill="#3AB8B7"/>
<path d="M33.3016 143.701L28.2016 147.301L26.6016 145.101L31.0016 142.001C32.1016 141.301 32.3016 140.401 31.7016 139.501C31.1016 138.601 30.2016 138.501 29.1016 139.201L24.7016 142.301L23.1016 140.101L31.0016 134.601L32.6016 136.801L31.5016 137.601C32.5016 137.701 33.6016 137.901 34.4016 139.001C35.5016 140.701 35.1016 142.401 33.3016 143.701Z" fill="#3AB8B7"/>
<path d="M29.2027 133.901L27.1027 133.701C27.3027 132.401 27.1027 131.301 26.7027 130.501C26.3027 129.801 25.9027 129.601 25.5027 129.801C25.0027 130.101 25.2027 131.001 25.4027 132.101C25.7027 133.501 25.8027 135.101 24.1027 136.001C22.4027 136.901 20.7027 136.001 19.8027 134.301C19.2027 133.201 19.0027 131.901 19.1027 130.601L21.3027 130.701C21.2027 131.801 21.4027 132.801 21.7027 133.401C22.0027 134.001 22.4027 134.201 22.8027 134.001C23.2027 133.801 23.1027 132.801 22.9027 131.701C22.7027 130.301 22.5027 128.601 24.1027 127.801C26.0027 126.801 27.6027 127.801 28.6027 129.601C29.2027 130.801 29.5027 132.301 29.2027 133.901Z" fill="#3AB8B7"/>
<path d="M21.5992 120.9L20.6992 118.1L23.3992 117.2L24.2992 120L21.5992 120.9Z" fill="#3AB8B7"/>
<path d="M8.3 107.4L8 104.9L19.9 98L20.3 100.9L17.6 102.4L18.3 107.7L21.2 108.5L21.6 111.3L8.3 107.4ZM15.3 103.6L11.5 105.8L15.8 107L15.3 103.6Z" fill="#3AB8B7"/>
<path d="M18.8008 93.8999H20.1008L20.0008 96.6999L6.80078 96.1999L6.90078 93.4999L11.8008 93.6999C10.9008 92.9999 10.3008 92.0999 10.4008 90.5999C10.5008 88.3999 12.3008 86.2999 15.6008 86.3999C18.8008 86.4999 20.5008 88.6999 20.4008 90.9999C20.3008 92.3999 19.6008 93.2999 18.8008 93.8999ZM15.4008 89.0999C13.8008 88.9999 12.7008 90.0999 12.6008 91.2999C12.5008 92.5999 13.6008 93.6999 15.2008 93.6999C16.8008 93.7999 17.9008 92.6999 18.0008 91.4999C18.1008 90.2999 17.1008 89.1999 15.4008 89.0999Z" fill="#3AB8B7"/>
<path d="M15.8018 84.5003C13.0018 84.0003 11.3018 81.3003 11.8018 78.4003C12.4018 75.5003 15.0018 73.7003 17.7018 74.2003C20.4018 74.7003 22.2018 77.4003 21.6018 80.3003C21.1018 83.3003 18.5018 85.1003 15.8018 84.5003ZM17.3018 76.9003C15.9018 76.6003 14.5018 77.4003 14.2018 78.9003C13.9018 80.4003 14.9018 81.6003 16.3018 81.9003C17.7018 82.2003 19.1018 81.4003 19.4018 79.9003C19.7018 78.4003 18.7018 77.2003 17.3018 76.9003Z" fill="#3AB8B7"/>
<path d="M19.7008 72.7002L13.8008 70.6002L14.7008 68.0002L19.8008 69.8002C21.0008 70.2002 21.8008 69.9002 22.2008 68.9002C22.6008 67.9002 22.1008 67.1002 20.9008 66.6002L15.8008 64.8002L16.7008 62.2002L25.8008 65.4002L25.0008 68.0002L23.7008 67.5002C24.3008 68.4002 24.7008 69.4002 24.2008 70.7002C23.5008 72.7002 21.8008 73.4002 19.7008 72.7002Z" fill="#3AB8B7"/>
<path d="M24.5016 62L20.4016 60L19.9016 61L17.8016 60L18.3016 59L16.1016 57.9L17.3016 55.4L19.5016 56.5L20.5016 54.5L22.6016 55.5L21.6016 57.5L25.3016 59.3C25.9016 59.6 26.3016 59.5 26.5016 58.9C26.7016 58.5 26.8016 58 26.8016 57.5L28.8016 58.5C28.9016 59.2 28.7016 59.9 28.3016 60.7C27.7016 62.2 26.5016 63 24.5016 62Z" fill="#3AB8B7"/>
<path d="M29.9 50.8L25 47L26.6 44.8L30.9 48C31.9 48.8 32.8 48.7 33.5 47.9C34.1 47.1 34 46.1 33 45.4L28.7 42.2L30.3 40L38 45.8L36.3 48L35.2 47.2C35.5 48.2 35.6 49.3 34.7 50.4C33.5 52 31.7 52.1 29.9 50.8Z" fill="#3AB8B7"/>
<path d="M37.9026 43.9002L37.4026 41.8002C38.7026 41.6002 39.7026 41.1002 40.3026 40.4002C40.9026 39.8002 40.9026 39.4002 40.6026 39.1002C40.2026 38.7002 39.4026 39.2002 38.4026 39.7002C37.2026 40.4002 35.7026 41.0002 34.3026 39.7002C32.9026 38.3002 33.2026 36.4002 34.6026 35.0002C35.5026 34.1002 36.7026 33.5002 37.9026 33.2002L38.5026 35.3002C37.4026 35.6002 36.5026 36.0002 36.0026 36.5002C35.5026 37.0002 35.5026 37.4002 35.8026 37.7002C36.2026 38.1002 37.0026 37.6002 38.0026 37.1002C39.3026 36.4002 40.8026 35.8002 42.1026 37.0002C43.6026 38.5002 43.2026 40.3002 41.8026 41.8002C40.9026 42.9002 39.6026 43.7002 37.9026 43.9002Z" fill="#3AB8B7"/>
<path d="M47.8008 32.6004L50.1008 30.9004L51.8008 33.2004L49.5008 34.9004L47.8008 32.6004Z" fill="#3AB8B7"/>
</g>
<defs>
<clipPath id="clip0_1918_278">
<rect width="190" height="190" fill="white"/>
</clipPath>
</defs>
</svg>
