<svg width="374" height="198" viewBox="0 0 374 198" fill="none" xmlns="http://www.w3.org/2000/svg">
<path d="M372.91 116.932C366.715 111.298 358.49 107.451 349.996 108.04C342.463 108.561 335.359 112.67 330.765 118.637C327.91 122.374 325.235 126.252 322.782 130.273C321.31 128.82 319.559 127.695 317.578 127.091C319.108 125.692 320.842 124.44 321.878 122.596C324.282 119.023 324.716 114.181 322.777 110.309C321.371 107.054 318.192 104.844 314.854 103.953C311.739 103.442 308.386 103.665 305.543 105.137C304.769 103.383 303.663 101.752 303.144 99.9034C303.648 98.952 304.284 98.0863 304.888 97.1936C305.726 100.009 308.357 102.229 311.32 102.327C317.812 103.303 324.83 102.139 330.265 98.3186C333.786 96.5431 336.663 93.7477 339.216 90.8008C339.196 90.5978 339.16 90.1918 339.14 89.9888C336.999 88.9567 334.46 89.3774 332.156 88.9567C326.597 88.7097 321.025 89.3187 315.466 88.9029C315.697 88.0837 315.941 87.2717 316.163 86.4549C317.217 86.4353 318.275 86.5918 319.291 86.9147C323.724 88.2769 328.626 87.5041 332.709 85.4033C335.566 83.7476 337.808 81.1968 339.654 78.4846C340.107 77.9466 340.073 77.2227 340.159 76.5623C338.005 75.655 335.695 76.3838 333.464 76.3936C327.259 76.5526 321.166 79.1058 316.764 83.5104C316.928 82.7131 317.188 81.9109 317.865 81.3998C320.472 79.096 323.666 77.6189 326.623 75.8238C331.055 73.6692 335.661 71.9034 340.173 69.9176C339.654 71.27 338.938 72.5393 338.288 73.8281C339.357 73.8575 340.88 74.0213 341.411 72.8254C344.295 67.741 345.874 61.984 346.507 56.1903C346.872 47.8361 346.634 39.1223 343.006 31.4259C342.69 30.6629 341.579 29.8999 340.87 30.5895C334.748 36.3368 327.159 40.9272 323.023 48.4842C321.902 52.9548 320.501 57.5036 321.02 62.1723C321.305 64.5152 321.203 66.9828 322.194 69.179C322.708 69.7048 323.335 70.0961 323.922 70.5412C322.465 72.236 320.95 73.8771 319.478 75.5572C320.777 71.2994 320.204 66.7847 318.906 62.6076C318.116 60.2745 317.826 57.802 316.857 55.53C316.211 55.6645 315.427 55.6303 315.173 56.3786C313.293 59.218 312.815 62.7421 312.715 66.0828C312.547 70.5461 314.774 74.5618 316.601 78.4748C316.645 79.3283 315.899 79.7588 315.234 80.0473C315.283 76.3104 313.378 72.9844 311.868 69.6901C309.756 66.5524 307.592 63.4514 305.317 60.431C304.279 59.1251 303.638 57.1857 301.85 56.765C300.498 59.5066 300.574 62.6125 300.542 65.5913C300.354 69.2671 301.422 72.845 301.643 76.4987C301.85 79.9764 302.783 83.4076 304.472 86.4598C305.173 88.2035 306.774 89.8347 306.457 91.8206L306.048 92.1189C305.997 92.0896 305.953 92.0578 305.904 92.026C305.853 92.1018 305.792 92.1727 305.724 92.2339C305.641 92.3611 305.548 92.4833 305.446 92.5983C305.339 92.7181 305.222 92.8282 305.103 92.9333C305.02 93.0067 304.554 93.4004 304.817 93.1754C304.722 93.2586 304.623 93.332 304.52 93.3956C304.45 93.8602 304.189 94.2589 303.75 94.3885C303.575 95.1295 302.878 95.5942 302.459 96.1885C301.071 93.8945 301.353 90.9573 299.782 88.7318C297.977 86.1052 296.086 83.5177 293.874 81.2188C293.833 80.9376 293.789 80.6588 293.745 80.3775C292.932 80.6808 292.254 81.1699 291.704 81.8424C291.765 83.7084 291.667 85.5891 291.982 87.438C292.296 89.3847 292.53 91.3584 292.262 93.3246C290.274 91.9037 287.938 91.1407 285.528 90.8668C285.528 90.8497 285.528 90.8325 285.526 90.8154C284.912 90.8154 284.439 90.8301 283.842 91.0575C283.64 91.1358 283.426 91.1236 283.226 91.0502C282.088 91.2189 280.96 91.4537 279.852 91.7399C280.573 86.6065 280.607 81.3827 280.059 76.2273C279.689 68.4184 276.753 60.8125 272.151 54.5371C271.011 52.9963 270.295 51.1719 269.016 49.7412C263.201 43.2383 255.254 38.8778 246.867 36.7476C243.337 35.6373 239.61 35.7767 235.963 35.5566C229.497 35.5517 222.462 37.6647 218.398 43.0109C216.795 44.9918 216.598 47.6404 216.622 50.0934C214.135 51.0839 211.838 52.4852 209.682 54.0675C204.176 57.8729 200.385 63.625 197.418 69.5287C196.431 71.3874 195.949 73.5029 194.69 75.2124C194.417 73.0015 194.448 70.7515 194.872 68.5676C195.372 65.4935 196.685 62.2872 195.479 59.2107C194.417 56.4813 192.197 54.0015 189.328 53.17C188.336 54.7792 187.393 56.4251 186.57 58.1346C184.377 62.7984 183.771 68.4135 185.917 73.2094C186.918 75.589 188.875 77.3376 190.697 79.0887C185.493 80.9204 180.794 84.1878 177.515 88.6608C171.943 95.9512 169.154 105.55 170.786 114.67C171.868 121.623 175.654 128.177 181.371 132.305C186.524 135.8 192.992 136.708 199.082 136.24C199.172 136.485 199.345 136.964 199.428 137.206C190.972 138.417 182.526 141.364 175.822 146.805C173.744 142.362 172.401 137.61 171.405 132.812C168.348 119.887 167.4 106.602 165.215 93.5276C163.753 84.6427 162.172 75.4349 157.409 67.6407C155.826 64.86 152.83 63.0821 149.65 62.9525C150.199 60.1718 150.944 57.4327 151.407 54.6373C152.615 48.1002 155.938 42.2331 157.651 35.8501C158.026 34.5563 156.486 34.0012 155.504 33.8569C152.325 33.4607 149.127 33.133 146.001 32.4017C144.327 32.0447 142.561 31.5776 140.863 32.0202C140.176 32.4898 139.484 33.089 139.277 33.9376C138.537 36.7109 136.905 39.1052 135.611 41.6389C132.013 48.2102 129.396 55.2561 126.339 62.0745C119.82 65.1022 115.145 71.045 111.822 77.2789C107.474 85.2614 105.756 94.3273 104.599 103.256C103.785 108.375 104.299 113.584 104.022 118.732C103.444 117.099 103.4 115.347 103.218 113.648C102.813 108.182 102.102 102.383 98.572 97.9542C95.6998 93.8211 90.6692 92.1067 85.9309 91.2972C82.189 90.7983 78.4081 89.9497 74.6223 90.4559C73.1363 90.6785 72.2422 92.5029 73.1412 93.7771C78.6639 103.772 85.8821 112.914 94.8301 120.036C97.7339 122.217 100.701 124.357 103.203 127.008C104.333 128.199 105.266 129.659 105.396 131.344C100.509 127.832 93.9677 126.969 88.3256 128.962C86.3889 129.649 84.267 129.918 82.5447 131.117C80.5495 132.381 78.4617 133.555 76.754 135.211C74.6004 137.495 73.0267 140.29 71.9402 143.228C69.2702 151.748 71.4066 160.836 69.3627 169.459C68.761 171.565 67.789 173.617 66.2542 175.202C63.8254 177.679 60.2954 178.831 56.8849 178.819C47.3279 177.205 39.1839 171.024 32.8159 163.969C29.7488 159.919 26.5355 155.588 25.8948 150.388C25.5586 147.229 25.1591 144.052 25.2322 140.875C25.6658 136.128 26.1701 131.315 27.8193 126.81C29.398 122.45 31.3396 117.964 35.0352 114.981C35.4249 116.399 35.4859 117.886 35.8854 119.297C36.0121 119.429 36.1534 119.522 36.302 119.583C37.1619 119.938 38.0901 119.241 38.0803 118.307C38.0657 116.788 37.8099 115.279 37.5005 113.792C44.0659 110.334 52.3293 111.011 58.6413 114.748C65.6866 118.351 71.621 123.861 76.2497 130.254C76.5956 130.767 77.0171 131.224 77.497 131.611C77.9087 131.943 78.5153 131.86 78.8222 131.427L78.832 131.413C79.0537 131.105 79.0634 130.689 78.8563 130.371C72.9974 121.444 64.5343 114.064 54.4024 110.522C48.6117 108.722 42.1779 109.123 36.7088 111.774C36.6308 110.938 36.5724 110.099 36.5115 109.263C40.8819 105.57 47.0867 104.773 52.5217 106.057C60.3003 108.221 67.0776 112.875 73.4165 117.756C76.6906 120.398 79.843 123.227 82.5349 126.473C83.4436 127.475 84.2573 129.075 85.8602 128.427C86.0381 126.959 84.8298 125.983 84.0599 124.907C80.3034 120.581 76.0377 116.685 71.3774 113.352C65.0995 109.079 58.4683 104.699 50.8237 103.513C45.5008 102.603 39.9123 104.054 35.5882 107.26C34.1533 103.132 33.2203 98.8517 31.6684 94.7627C30.3213 90.6442 28.9984 86.5111 27.583 82.4172C29.8974 84.7919 32.4553 86.9416 35.3031 88.6413C42.0415 92.6619 50.0637 93.6523 57.7643 93.2757C58.2856 93.2023 58.7899 93.0532 59.2796 92.8355C58.6705 89.9301 55.64 88.8663 54.1198 86.5845C52.0467 83.7207 49.7519 81.0207 47.8224 78.0517C44.4752 71.9279 41.1718 65.6916 39.3008 58.9221C37.4104 52.5708 35.9097 45.9896 36.1704 39.318C36.3141 31.9493 37.1644 24.4315 40.0122 17.5788C41.9416 13.0593 44.0099 8.52025 46.9186 4.54122C46.4046 7.24608 45.7274 9.92159 45.0428 12.5873C41.7443 26.3488 41.2863 40.6924 42.9088 54.7156C44.3607 64.5128 47.7518 74.3246 54.4219 81.8033C56.115 83.503 57.7692 85.5842 60.2467 86.0709C60.5927 86.1247 60.9118 86.066 61.1968 85.934C61.3162 85.6698 61.4745 85.4228 61.7133 85.1978C62.0348 84.897 62.2322 84.5962 62.3613 84.2636C62.3686 84.2147 62.3759 84.1658 62.3783 84.1144C63.1238 78.6338 62.7096 73.0847 62.9216 67.5722C62.8972 63.1188 62.3637 58.6824 61.5598 54.3121C60.0981 46.5472 56.785 39.3204 54.3732 31.8441C51.4547 22.9421 50.3438 13.5264 50.585 4.18171C50.6313 3.02249 51.0795 1.73854 50.2951 0.716266C49.5448 0.305402 48.4095 -0.516327 47.7372 0.439911C45.3571 2.95646 43.3351 5.81539 41.7297 8.88953C36.6406 17.794 33.9657 28.0583 34.163 38.3202C33.6831 50.9958 37.6833 63.3951 43.2693 74.6156C39.3593 68.7633 34.0047 64.119 28.9497 59.3085C25.4003 56.249 21.7923 53.2653 18.1479 50.333C15.9968 48.8999 14.1258 46.8676 11.5484 46.2146C11.105 47.1513 10.5374 48.1516 10.8931 49.2227C11.9918 54.4075 14.2135 59.2571 16.2526 64.119C17.3927 67.0489 19.2344 69.6486 20.3014 72.6029C19.1857 71.5121 18.3866 69.8785 16.7764 69.4676C14.8762 69.7929 14.6545 72.1773 15.1125 73.7034C17.2149 81.7715 21.7217 88.8834 25.0884 96.4404C15.6167 86.5992 8.34489 74.4664 4.81493 61.2014C3.19734 55.4664 2.38123 49.411 3.04386 43.4633C3.40928 44.0796 3.71623 44.7301 4.01832 45.3782C4.28142 45.9456 4.95136 46.1902 5.51654 45.9309L5.53359 45.9211C6.05249 45.6815 6.32533 45.0896 6.14506 44.5467C5.76502 43.407 5.01957 42.3921 4.15961 41.5704C3.48237 40.9908 2.22776 40.4601 1.56757 41.3478C1.11201 42.15 0.880576 43.0573 0.768514 43.9695C0.25449 49.8415 1.05841 55.7599 2.56882 61.4337C5.80157 74.0996 12.6739 85.572 21.1005 95.4279C24.8716 99.3531 28.5892 103.388 31.5174 108.001C28.0167 109.652 24.3795 111.246 21.5439 113.978C18.5377 117.248 15.987 120.99 14.4206 125.176C10.6811 133.761 9.98928 143.46 11.4607 152.641C12.6447 159.718 17.0127 165.957 22.7156 170.154C23.2686 170.469 23.8606 170.738 24.4185 171.054C24.8156 171.223 25.22 171.369 25.6025 171.567C26.2456 171.902 26.7523 172.416 27.3346 172.842C28.0824 173.389 29.0009 173.879 29.8365 174.28C51.1137 184.488 62.0957 180.411 62.0957 180.411C62.069 180.411 62.0397 180.408 62.0129 180.408C64.7097 178.951 67.7939 177.677 69.4383 174.923C71.9962 170.863 72.2374 165.908 72.5687 161.259C72.5589 153.822 72.2033 145.769 76.2789 139.202C77.9672 137.091 79.6018 134.717 81.9965 133.379C77.5092 138.231 75.0121 144.727 74.5225 151.283C74.084 159.853 76.0134 168.831 81.3436 175.696C83.8139 178.706 86.7981 181.347 90.2087 183.248C91.4195 183.568 102.275 186.422 104.307 186.955C106.28 187.471 108.158 188.298 110.032 189.09C111.181 189.577 119.464 193.686 123.255 194.532C127.747 195.711 132.361 196.356 136.987 196.738C141.475 197.271 146.298 196.985 150.286 194.652C152.186 193.59 153.758 192.025 155.061 190.294C155.183 190.289 156.61 188.039 156.467 188.029C158.886 182.949 159.161 177.178 158.983 171.641C159.034 162.142 156.196 152.915 152.73 144.162C150.927 139.826 149.036 135.519 147.497 131.08C144.717 121.951 142.668 112.601 141.331 103.154C140.605 93.6744 140.522 83.9824 142.917 74.7134C143.633 71.8839 144.99 69.2793 146.795 66.9926C150.527 69.223 152.211 73.52 153.47 77.4843C156.511 89.194 157.139 101.366 159.911 113.137C162.662 125.524 168.097 137.096 174.095 148.197C168.165 154.025 163.436 161.389 162.021 169.699C160.883 175.549 161.48 181.587 162.84 187.347C162.918 187.537 162.969 187.738 162.983 187.943C163 188.009 163.753 190.795 163.887 190.939C165.003 193.316 166.421 195.588 168.143 197.574C168.328 197.574 168.516 197.574 168.706 197.579C169.744 197.616 170.74 197.76 171.7 197.995C167.164 194.74 165.018 186.725 164.764 186.048C163.239 179.853 163.22 173.282 164.84 167.102C166.067 162.832 168.221 158.87 170.801 155.277C172.119 153.414 173.902 151.958 175.269 150.134C176.755 151.868 177.866 153.881 179.249 155.7C182.477 160.195 186.173 164.321 189.817 168.476C190.154 168.904 190.526 168.946 190.887 168.801C191.725 168.469 191.939 167.363 191.338 166.688C186.227 160.951 180.928 155.24 177.186 148.473C182.689 143.973 189.525 141.437 196.363 139.806C201.75 138.825 207.194 138.038 212.678 138.018C217.682 138.349 222.659 139.39 227.353 141.19C233.237 143.939 239.19 147.17 243.288 152.379C247.671 157.464 250.575 163.905 250.984 170.655C251.252 173.267 250.862 175.889 250.967 178.503C250.986 178.978 251.374 179.357 251.846 179.374H251.863C252.311 179.389 252.701 179.073 252.784 178.63C253.664 174.02 253.461 169.173 252.312 164.624C249.922 156.155 244.448 148.564 237.02 143.841C235.193 142.504 232.888 141.76 231.441 139.946C228.959 134.46 230.35 127.448 234.876 123.433C238.243 120.231 243.023 118.71 247.617 119.207C248.93 121.574 250.377 124.103 252.928 125.296C254.075 126.054 255.773 126.58 256.183 128.018C253.946 130.222 251.374 132.146 249.666 134.827C246.952 139.068 245.415 144.499 247.208 149.395C247.337 150.347 248.752 150.645 249.208 149.787C248.891 147.83 248.511 145.857 248.665 143.866C249.045 138.71 252.307 134.181 256.251 131.065C259.055 128.657 262.821 127.407 266.495 127.561C268.889 128.28 271.07 129.623 273.538 130.168C273.637 132.64 274.176 135.089 275.326 137.299C270.473 138.092 265.691 139.946 261.944 143.206C253.388 150.352 250.916 164.426 257.766 173.539C261.311 178.153 267.342 180.298 273.036 179.902C278.515 179.486 284.057 177.718 288.313 174.113C292.011 171.423 294.503 167.346 295.787 162.988C297.855 164.678 300.313 166.131 303.073 166.126C305.176 166.319 307.176 165.517 309.066 164.698C310.572 165.422 311.86 166.581 313.463 167.136C319.032 169.511 325.834 167.742 329.932 163.384C332.499 160.631 334.222 157.067 334.687 153.316C335.021 149.246 333.812 145.054 331.274 141.848C329.888 140.197 327.912 139.256 326.17 138.067C325.371 136.377 324.718 134.604 323.866 132.934C324.531 132.477 325.237 131.814 326.121 132.129C327.142 132.621 327.498 133.78 328.095 134.668C329.291 136.837 331.162 138.498 332.653 140.457C335.452 144.03 340.071 145.888 344.548 145.629C346.607 145.522 348.882 145.204 350.454 143.731C350.931 142.582 349.608 141.934 349.06 141.115C351.277 141.022 353.572 140.718 355.499 139.525C357.867 137.811 358.885 134.934 360.415 132.562C363.643 127.536 367.38 122.408 372.868 119.715C373.339 119.459 373.955 119.241 374.004 118.603C373.845 117.928 373.378 117.397 372.912 116.927L372.91 116.932ZM327.086 79.7441C330.28 78.7732 333.642 78.5898 336.95 78.2669C334.283 82.8158 328.952 85.2859 323.824 85.4571C322.104 85.6307 320.594 84.6696 319.064 84.0753C321.612 82.4196 324.163 80.671 327.086 79.7441ZM327.145 56.6305C327.215 53.6738 326.153 50.8075 325.951 47.9192C329.673 42.6758 334.723 38.5182 339.847 34.7129C339.038 41.5851 338.071 48.6333 334.877 54.8623C332.521 59.8416 328.528 63.7277 325.298 68.1078C325.883 64.278 327.505 60.5802 327.145 56.6305ZM323.427 65.2636C322.791 60.8786 323.023 56.3297 324.48 52.1257C325.354 56.5033 325.269 61.1354 323.427 65.2636ZM328.823 69.1105C332.304 64.7842 335.033 59.9077 337.408 54.8966C340.285 48.692 341.026 41.8198 342.271 35.1726C345.479 45.4565 345.209 56.7161 341.949 66.9486C334.638 69.7097 327.318 72.7129 320.786 77.0637C323.3 74.2635 326.153 71.7665 328.823 69.1105ZM315.476 69.9616C314.508 66.5328 314.998 62.9402 315.668 59.5066C316.409 62.0476 317.317 64.5494 317.805 67.1565C318.409 70.1059 317.337 73.1287 318.202 76.0512C316.867 74.2439 316.128 72.0869 315.476 69.9616ZM311.225 100.097C309.848 99.6759 307.914 99.0865 307.665 97.4406C308.939 95.2542 311.719 94.8996 313.994 94.5866C318.328 94.3249 322.969 95.1955 326.441 97.9664C321.849 100.539 316.336 100.984 311.225 100.097ZM312.81 90.9695C315.614 91.5638 318.521 91.1065 321.376 91.2214C326.048 90.994 330.745 90.835 335.403 91.4488C333.508 93.5961 331.164 95.2958 328.76 96.8219C324.229 93.2537 318.206 91.5931 312.499 92.5347C310.608 92.6496 308.925 93.5496 307.295 94.4325C308.121 92.6032 309.492 91.1431 310.84 89.6953C311.787 88.7391 312.104 87.0834 313.522 86.6921C312.988 87.9956 311.729 89.6269 312.81 90.9695ZM302.691 60.9422C307.178 66.5671 312.218 72.5002 312.993 79.9618C313.329 81.5881 312.869 83.2487 311.926 84.5864C311.709 84.6011 311.276 84.6256 311.059 84.6402C309.156 81.0476 306.956 77.6189 305.02 74.0409C303.936 72.1871 302.532 70.3284 302.537 68.0785C302.44 65.6989 302.61 63.3169 302.691 60.9422ZM303.653 76.4645C305.293 78.3574 306.413 80.6221 307.716 82.7473C308.391 83.9163 309.193 85.0707 309.497 86.4157C309.385 87.2473 308.589 87.778 308.15 88.4505C305.928 84.7699 304.813 80.5658 303.653 76.4645ZM74.9634 92.5249C78.4544 92.1434 81.904 92.9651 85.3511 93.398C89.7142 94.1561 94.4038 95.6724 97.0786 99.4729C100.594 104.484 100.906 110.85 101.186 116.763C99.4685 114.636 97.2808 112.997 95.3514 111.09C90.1624 106.533 84.9759 101.994 79.7139 97.536C78.0159 95.983 76.1985 94.4961 74.9634 92.5249ZM97.0299 118.835C92.7594 115.741 89.0321 111.965 85.6117 107.971C83.9333 105.959 82.1427 103.988 80.9758 101.613C87.8968 107.189 94.6815 113.027 100.85 119.449C102.026 120.505 102.258 122.11 102.653 123.557C100.772 121.987 98.9057 120.4 97.0299 118.835ZM48.1903 8.02134C48.7579 11.9857 48.6532 16.0308 49.3255 19.9853C50.0807 25.5491 51.6155 30.9711 53.5303 36.2438C55.8349 43.1111 58.7972 49.8268 59.835 57.0585C61.0677 63.9649 60.9556 71.0034 60.807 77.9857C60.7364 79.996 60.2881 81.9598 59.9276 83.931C59.0189 83.2878 58.0615 82.6984 57.2527 81.9354C49.8371 74.2341 46.1805 63.6837 44.921 53.2115C43.815 44.713 43.9733 36.0849 44.6749 27.5521C45.2621 20.9465 46.9357 14.5145 48.1903 8.02134ZM20.1748 67.1565C17.4901 61.468 14.5911 55.7794 13.3536 49.5504C22.2674 56.2148 30.8962 63.3804 38.2728 71.7616C40.078 73.7523 41.5543 76.0414 43.5495 77.8659C45.4496 79.7881 47.5325 81.6077 48.9504 83.9457C45.7615 81.549 43.5056 77.9857 39.9951 76.0219C39.3837 76.8754 39.6882 77.861 40.3557 78.5751C43.6981 82.6642 47.9418 85.8606 51.9468 89.2551C52.6655 89.8739 53.4329 90.473 53.9396 91.307C50.9821 91.0086 48.0027 90.8546 45.0988 90.1967C36.9889 88.2035 29.7073 83.119 24.9228 76.2615C23.1517 73.3317 21.8289 70.1548 20.1748 67.1565ZM24.4745 90.0573C21.7509 84.3272 18.4573 78.7536 17.2124 72.4488C19.6973 74.6156 22.4501 76.7849 23.7486 79.9226C27.1811 87.4502 29.6586 95.3594 31.9973 103.278C28.5526 99.4583 26.9764 94.4667 24.4745 90.0573ZM21.5268 166.358C18.8227 163.697 16.3987 160.64 14.9931 157.072C12.8883 151.958 12.7421 146.329 12.8883 140.877C13.7385 131.723 16.5668 122.264 23.1371 115.563C25.4368 113.442 28.1117 111.54 31.1788 110.767C32.6697 110.341 33.4444 111.887 33.9681 113.002C29.683 116.514 27.2103 121.684 25.5221 126.861C22.7912 134.886 22.6377 143.597 23.98 151.907C22.6474 152.934 22.8399 154.744 22.9008 156.233C23.5853 162.335 26.6865 167.796 30.2798 172.634C27.2834 170.66 24.114 168.887 21.5268 166.358ZM40.8575 175.808C39.028 175.304 36.989 175.407 35.3446 174.333C32.8719 172.822 31.5198 170.169 29.8852 167.879C27.5562 164.504 25.8826 160.66 25.1664 156.61C26.5038 158.197 27.3175 160.149 28.5526 161.819C32.8378 168.144 38.7941 173.147 45.3449 176.98C43.8296 176.667 42.3436 176.226 40.8575 175.808ZM141.28 34.346C143.372 34.0525 145.416 34.7177 147.465 35.0357C149.765 35.5444 152.111 35.7938 154.411 36.2927C153.324 38.6332 152.203 40.9516 151.015 43.2407C150.466 44.1921 150.571 45.3269 150.423 46.3785C150.004 45.4809 149.736 44.5051 149.168 43.6932C147.426 41.8101 144.578 41.8834 142.603 40.3818C141.202 38.7212 140.995 36.4272 141.28 34.346ZM105.215 122.606C105.164 121.684 105.98 120.985 105.985 120.072C106.316 113.75 106.087 107.387 107.081 101.114C108.202 94.2344 109.381 87.2277 112.516 80.9327C114.816 75.6966 118.207 70.9374 122.449 67.1076C123.647 66.007 125.089 64.8233 126.831 65.0508C128.612 65.3638 129.669 67.3106 129.774 68.9956C129.116 71.7053 127.557 74.0751 126.59 76.6724C121.301 89.8788 119.852 104.259 119.645 118.378C114.504 120.642 109.603 124.196 107.401 129.559C106.721 127.228 105.235 125.098 105.215 122.606ZM109.047 136.901C109.52 137.033 109.595 137.681 109.162 137.911C107.544 138.774 105.59 138.894 103.783 138.578C103.4 138.512 103.123 138.172 103.123 137.784V137.766C103.12 137.358 103.417 137.013 103.822 136.957C105.561 136.715 107.357 136.424 109.047 136.901ZM93.4317 182.421C86.8956 179.447 81.6287 173.793 79.1097 167.043C76.8636 161.027 75.9013 154.387 77.1267 148.033C78.1669 141.577 81.8942 135.609 87.2366 131.863C89.3244 130.549 91.8458 130.261 94.2503 130.073C98.0068 129.826 102.158 130.946 104.494 134.108C102.989 134.851 100.964 135.287 100.46 137.15C99.9216 138.295 100.56 139.469 101.605 140.024C104.38 141.437 107.766 141.168 110.546 139.897C110.555 139.892 110.565 139.887 110.575 139.882C112.205 139.102 112.719 136.991 111.661 135.526C111.364 135.115 111.035 134.729 110.728 134.34C112.185 131.983 113.469 129.444 115.649 127.661C119.625 123.91 125.83 122.819 130.804 125.079C134.778 127.165 138.135 130.466 140.179 134.48C143.675 141.278 144.542 149.148 144.04 156.696C143.743 161.528 142.04 166.131 139.962 170.457C137.46 175.671 133.589 180.355 128.495 183.174C123.762 185.686 118.409 187.366 112.999 186.899C106.336 186.226 99.6999 184.832 93.4317 182.421ZM147.307 136.864C151.27 145.416 154.464 154.406 156.133 163.707C157.066 170.968 157.388 178.55 155.107 185.6C154.737 186.559 151.833 194.864 140.184 194.864C133.791 194.864 127.462 193.421 121.313 191.673C118.721 190.9 115.995 190.607 113.484 189.587C117.123 189.017 121.014 189.748 129.852 185.067C135.845 181.741 139.957 175.889 142.727 169.743C144.681 165.73 145.796 161.379 146.917 157.077C148.639 150.496 148.812 143.499 147.307 136.864ZM146.384 147.806C145.358 144.595 145.297 141.149 144.103 137.982C142.223 132.156 138.318 126.898 132.982 123.844C127.494 120.718 120.166 121.268 115.25 125.262C112.704 127.265 111.021 130.09 109.079 132.631C108.921 129.965 110.67 127.725 112.292 125.802C114.677 122.887 118.212 121.075 121.871 120.4C126.422 119.86 131.357 119.884 135.321 122.52C140.067 125.856 143.704 130.936 144.934 136.659C145.85 140.307 145.887 144.093 146.384 147.806ZM139.611 123.166C136.995 120.459 133.435 118.784 129.75 118.184C127.177 117.71 124.561 118.111 121.964 118.043C121.766 108.551 122.824 99.0278 124.86 89.7589C126.2 83.009 128.968 76.6822 131.713 70.414C132.512 68.6239 133.545 66.5964 135.484 65.8725C137.158 65.7845 139.884 65.447 140.376 67.5942C140.476 70.3138 139.981 73.0504 139.414 75.7064C137.716 81.0916 136.393 86.6628 136.293 92.3366C136.127 98.1107 136.115 103.944 137.292 109.627C138.398 115.846 140.698 121.767 143.146 127.561C141.933 126.118 140.953 124.494 139.611 123.166ZM142.617 121.065C140.227 114.716 138.961 108.02 138.269 101.297C138.369 96.6189 137.947 91.9013 138.644 87.257C138.712 86.7459 138.866 86.2715 139.107 85.819C138.481 88.6144 138.624 91.4831 138.693 94.3249C138.639 100.346 139.523 106.311 140.554 112.229C140.929 115.242 142.103 118.082 142.617 121.065ZM138.013 63.5443C137.297 63.5541 136.581 63.5541 135.869 63.5492C137.384 58.4403 138.802 53.077 142.371 48.9659C142.929 48.379 143.838 46.7062 144.42 48.2029C143.911 49.6727 143.161 51.0472 142.357 52.3751C140.244 55.7892 138.702 59.5799 138.013 63.5443ZM147.392 49.1127C145.95 53.8963 146.335 58.9954 147.075 63.8671C145.209 64.8087 143.996 66.5182 142.844 68.1934C142.573 66.4644 141.665 64.8527 141.592 63.109C142.266 59.3378 143.234 55.5569 145.126 52.1966C146.118 50.4455 147.158 48.4695 146.532 46.4029C145.672 45.1777 143.777 44.603 142.588 45.6888C138.174 49.729 135.94 55.4615 134.281 61.0864C133.786 62.9598 132.834 64.6742 131.63 66.1807C130.702 64.9261 129.823 63.6274 128.697 62.5391C130.602 57.3251 132.997 52.314 135.209 47.2247C136.369 44.4415 138.174 41.9984 139.467 39.2813C140.223 40.8367 141.27 42.375 142.934 43.0426C144.474 43.8155 146.413 43.8815 147.663 45.1777C148.437 46.4127 147.57 47.8312 147.392 49.1127ZM148.625 56.7112C148.725 54.6594 149.178 52.6173 149.923 50.7048C149.582 52.7224 149.395 54.8036 148.625 56.7112ZM163.863 119.569C160.625 108.859 159.505 97.6827 157.768 86.6725C156.579 80.3628 155.387 73.7817 151.706 68.3866C150.871 67.2274 149.687 66.369 148.912 65.1657C151.631 64.635 154.165 66.2761 155.473 68.5896C160.913 77.565 162.101 88.2426 163.665 98.4213C165.612 110.221 166.599 122.19 169.254 133.871C167.488 129.092 165.261 124.479 163.863 119.569ZM320.733 132.129C321.883 133.736 322.772 135.524 323.488 137.368C318.957 136.328 314.394 138.503 311.117 141.545C309.527 140.168 307.675 139.153 305.78 138.275C307.222 135.981 308.097 133.389 308.077 130.66C310.175 129.97 312.153 128.666 314.46 128.965C316.928 128.801 319.312 130.143 320.733 132.129ZM282.398 137.845C281.509 137.517 280.127 137.632 279.854 136.487C279.153 133.9 278.22 131.391 276.79 129.121C278.6 128.121 280.437 127.055 281.701 125.365C283.129 123.721 283.686 121.589 284.278 119.549C288.43 117.324 293.567 117.546 297.804 119.444C299.334 121.332 299.926 123.8 301.47 125.688C302.418 126.898 303.624 127.864 304.744 128.908C305.668 129.593 305.124 130.853 304.798 131.714C303.94 133.597 303.144 135.509 302.403 137.444C300.272 137.815 297.892 137.913 296.203 139.439C294.639 140.96 293.282 142.756 292.476 144.803C290.422 141.066 286.464 138.73 282.398 137.845ZM289.801 145.006C286.834 143.597 283.823 142.12 281.316 139.955C283.082 139.806 284.649 140.728 286.069 141.67C287.433 142.626 288.958 143.494 289.801 145.006ZM277.886 136.888C276.882 135.575 276.064 134.069 275.93 132.398C276.902 133.726 277.318 135.358 277.886 136.888ZM302.542 123.494C303.59 124.235 304.201 125.377 304.606 126.57C303.604 125.793 302.951 124.678 302.542 123.494ZM305.785 133.225C306.62 133.548 305.841 135.614 305.12 135.739C304.798 134.954 305.327 133.875 305.785 133.225ZM303.802 109.899C305.341 109.175 305.692 107.135 307.385 106.643C310.352 105.707 313.719 105.736 316.552 107.125C318.64 108.045 320.126 109.955 321.04 111.999C322.821 116.475 320.974 121.98 317.001 124.624C314.197 126.495 310.737 126.495 307.529 127.045C306.379 124.682 305.534 121.992 303.341 120.356C302.316 119.395 300.805 118.845 300.172 117.536C299.853 114.567 301.258 111.491 303.802 109.899ZM303.012 106.538C300.016 109.439 298.14 113.318 297.646 117.473C295.424 115.944 292.639 115.885 290.059 115.658C293.282 113.477 295.385 109.879 296.05 106.069C296.635 101.515 295.538 96.9246 293.745 92.7572C295.582 95.2151 296.995 98.0447 299.339 100.097C301.156 101.757 303.051 103.983 303.012 106.538ZM299.214 96.9955C296.664 93.3515 294.352 89.2649 293.682 84.7992C296.837 88.0152 299.373 92.3611 299.214 96.9955ZM285.823 93.195C289.229 93.2341 292.552 95.6675 293.504 98.9765C294.595 103.264 294.013 108.135 291.248 111.679C289.713 113.675 287.363 114.707 285.348 116.103C284.79 113.993 284.885 111.466 283.158 109.879C281.528 108.289 279.189 107.764 276.982 107.869C274.232 105.577 274.631 101.361 276.098 98.4311H276.103C276.186 98.1572 276.383 97.9273 276.641 97.7732C276.68 97.7243 276.719 97.6754 276.763 97.6314C276.782 97.6118 276.802 97.5922 276.826 97.5727C276.895 97.1545 277.16 96.8806 277.484 96.7534C277.516 96.6727 277.55 96.5944 277.591 96.5186C277.728 96.2618 277.925 96.0319 278.169 95.8681C278.164 95.8485 278.161 95.8314 278.159 95.8118C279.937 93.4836 283.094 93.0581 285.825 93.1926L285.823 93.195ZM271.25 56.8946C273.313 60.1596 275.141 63.6177 276.212 67.3497C278.022 72.6983 277.949 78.4014 278.22 83.9726C276.651 78.311 274.246 72.9159 271.082 67.9709C265.333 58.3009 256.126 50.3917 245.225 47.3396C251.386 46.804 257.783 47.5279 263.298 50.5116C266.3 52.1061 269.35 53.9746 271.25 56.8946ZM250.409 40.2375C253.525 41.3967 256.772 42.4435 259.452 44.4856C261.447 45.9627 263.644 47.2442 265.277 49.1494C262.587 47.6869 259.807 46.3075 256.792 45.6741C249.683 44.1627 242.387 45.1899 235.334 46.4714C232.209 46.6304 229.093 46.8676 226.004 47.3689C226.873 43.6981 230.396 41.5606 233.797 40.6386C239.183 39.2226 245.027 38.3299 250.409 40.2375ZM220.849 43.4731C223.86 40.169 228.26 38.5672 232.589 37.9533C234.372 37.7992 236.158 37.7503 237.936 37.518C235.826 38.2663 233.522 38.2957 231.483 39.2617C229.553 40.1886 227.573 41.1986 226.167 42.8739C224.778 44.3364 224.191 46.3027 223.565 48.1711C221.965 48.7825 220.323 49.2863 218.62 49.4453C218.742 47.2809 219.38 45.1141 220.849 43.4731ZM231.171 52.5488C236.552 54.789 241.558 58.4305 244.565 63.5296C239.653 61.556 234.574 60.0568 229.697 58.0098C226.917 56.8091 224.128 55.4958 221.838 53.4806C221.772 53.2115 221.655 52.676 221.594 52.4094C224.479 50.3771 228.191 51.1499 231.171 52.5488ZM210.583 55.9873C212.878 54.4564 215.236 52.8153 217.938 52.1404C216.269 54.3267 213.762 55.7501 211.93 57.8215C206.973 63.197 202.142 69.0103 199.781 76.0634C198.804 76.2199 197.823 76.3496 196.833 76.4449C199.569 68.6336 203.976 61.106 210.583 55.9873ZM222.108 106.247C221.304 98.952 218.025 91.9698 213.017 86.6432C210.849 84.8237 208.766 82.8476 206.254 81.5123C204.269 80.3384 202.018 79.7637 199.83 79.1302C202.476 77.9417 205.557 78.9762 207.967 80.309C211.791 82.2362 214.705 85.5524 216.919 89.1646C219.207 92.7817 221.022 96.7558 221.828 100.989C222.883 105.954 223.244 111.246 221.738 116.159C222.099 112.872 222.469 109.551 222.108 106.247ZM186.794 68.4502C186.453 64.031 187.881 59.5995 190.417 56.0069C192.624 57.4302 193.878 59.981 193.674 62.6076C193.369 65.2831 192.58 67.8804 192.341 70.5657C192.085 72.6787 192.288 74.8039 192.373 76.9194C189.157 75.364 187.247 71.9034 186.794 68.4502ZM199.002 131.902C198.573 130.831 199.752 130.207 200.285 129.473C200.108 128.363 198.69 127.14 197.791 128.304C195.808 129.796 196.829 132.408 197.223 134.394C194.568 133.983 191.849 134.049 189.247 133.315C183.028 131.983 177.897 127.28 175.198 121.603C171.919 115.122 171.831 107.392 173.929 100.529C175.978 93.7135 180.268 87.4454 186.246 83.5446C188.67 82.3609 191.459 80.3579 194.212 81.6174C195.155 81.7862 196 80.8984 196.972 81.0476C202.476 81.4829 207.521 84.4275 211.416 88.2426C215.991 93.0263 218.954 99.2846 219.896 105.841C220.318 109.488 220.064 113.181 219.39 116.783C218.683 119.671 218.096 122.689 216.347 125.172C213.253 130.251 207.433 132.848 201.771 133.765C200.527 134.176 199.348 133.002 199.002 131.902ZM246.969 117.079C242.012 116.624 236.83 118.324 233.29 121.877C230.121 124.861 228.245 129.116 228.052 133.457C228.057 135.446 228.562 137.392 228.635 139.385C223.456 137.214 217.857 136.099 212.257 135.881C208.914 135.876 205.562 136.025 202.225 135.861C203.633 135.199 205.265 135.367 206.736 134.876C212.844 133.22 217.558 128.419 220.627 123.041C225.268 115.954 225.875 106.851 223.609 98.8273C221.94 92.8013 218.832 87.1739 214.605 82.5737C211.272 79.1547 206.87 76.5428 202.032 76.2346C203.859 70.6708 207.591 66.0559 211.263 61.6171C213.584 58.8022 216.456 56.5572 219.107 54.0895C222.198 56.8751 225.86 58.971 229.726 60.4579C235.556 62.6712 241.444 64.7035 247.339 66.7309C248.287 66.9241 249.037 65.7209 248.375 64.9872C245.622 60.3381 241.919 56.2392 237.407 53.2556C234.72 51.6268 231.79 50.4724 228.861 49.367C231.202 48.8755 233.58 48.5575 235.965 48.3741C240.374 48.7409 244.896 49.1836 248.993 50.9958C256.772 54.2876 263.294 60.1596 267.973 67.1565C272.846 74.0458 275.837 82.1335 277.328 90.4094C277.489 91.7325 277.608 93.2537 276.497 94.2197C272.544 88.0739 263.603 86.3693 257.522 90.2456C253.223 92.723 251.12 97.9469 251.442 102.767C251.447 103.799 251.992 105.108 250.928 105.812C247.846 108.642 246.662 112.992 246.969 117.079ZM273.728 108.111C271.764 108.453 269.825 109.043 268.258 110.327C267.959 107.199 265.342 104.775 262.424 103.988C259.639 103.031 256.677 103.547 253.91 104.259C253.262 99.9572 254.458 94.9583 258.263 92.4613C263.13 88.9763 270.797 90.0964 274.13 95.1711C275.218 96.4893 273.754 97.9126 273.452 99.2553C272.207 102.124 273.009 105.225 273.728 108.111ZM250.75 120.082C252.453 120.608 253.444 122.244 254.224 123.741C252.738 122.907 251.415 121.679 250.75 120.082ZM258.239 127.338C257.176 124.895 256.599 122.114 254.631 120.202C253.074 118.595 250.852 118.038 248.962 116.971C248.691 113.731 249.515 110.192 251.968 107.923C254.521 105.587 258.346 105.257 261.544 106.238C262.39 106.48 262.77 107.382 263.233 108.057C263.993 109.424 265.05 110.593 266.117 111.738C262.602 115.281 261.89 121.303 265.109 125.277C262.741 125.614 260.326 126.113 258.239 127.338ZM274.444 127.397C272.005 127.28 269.647 126.382 267.696 124.92C264.375 122.511 264.443 117.15 267.05 114.254C267.647 114.408 268.249 114.558 268.86 114.682C269.399 113.403 269.542 111.772 270.941 111.095C274.812 109.211 280.057 110.936 281.297 115.233C281.928 117.424 281.509 119.828 280.498 121.87C279.879 123.125 279.026 124.272 277.981 125.201C276.946 126.118 275.365 126.446 274.444 127.397ZM290.474 168.877C287.501 172.727 283.187 175.334 278.58 176.72C273.737 178.415 268.105 178.173 263.584 175.661C259.398 173.36 256.816 168.826 256.165 164.169C255.459 158.187 257.028 151.829 260.994 147.221C264.482 143.45 269.099 140.684 274.149 139.657C275.338 139.41 276.583 139.231 277.791 139.496C278.814 140.303 279.608 141.362 280.605 142.205C283.058 144.247 285.981 145.6 288.917 146.779C290.383 147.28 290.985 148.855 291.45 150.202C292.32 152.861 293.441 155.461 293.923 158.231C294.038 162.051 292.654 165.788 290.474 168.877ZM307.697 162.861C305.624 163.915 303.081 164.546 300.873 163.534C299.093 162.746 296.983 161.785 296.396 159.748C296.442 157.613 296.776 155.441 296.125 153.355C295.789 151.007 293.908 148.835 294.712 146.407C295.078 145.16 295.424 143.484 296.9 143.162C298.825 142.592 300.569 141.606 302.316 140.645C303.629 140.139 305.081 140.645 306.328 141.144C310.728 143.162 313.451 148.033 313.368 152.819C313.1 156.769 311.225 160.853 307.697 162.861ZM327.924 141.755C331.9 144.793 333.218 150.396 332.073 155.13C330.872 159.425 327.822 163.326 323.632 164.996C319.627 166.74 314.859 166.082 311.359 163.509C311.69 162.191 312.806 161.35 313.512 160.254C316.674 155.074 316.102 148.097 312.589 143.245C314.879 140.655 318.323 139.048 321.8 139.454C323.927 139.892 326.248 140.232 327.924 141.755ZM348.466 142.741C344.921 143.567 340.987 143.751 337.759 141.814C334.1 139.505 331.483 135.918 329.12 132.369C333.406 132.736 336.797 135.653 340.453 137.617C343.094 139.134 345.922 140.278 348.707 141.486C348.648 141.799 348.529 142.428 348.466 142.741ZM350.663 124.301C355.214 122.379 359.942 120.738 364.863 120.124C362.963 121.075 360.941 121.767 359.065 122.77C351.294 126.715 342.651 128.488 334.056 129.434C335.566 128.383 337.423 128.092 339.165 127.642C343.026 126.634 346.97 125.856 350.663 124.301ZM341.072 124.201C343.04 121.034 345.564 118.226 348.008 115.431C347.277 117.566 346.032 119.478 344.773 121.332C343.82 122.577 342.709 123.944 341.072 124.201ZM345.676 137.835C342.025 136.125 338.524 134.108 335.079 132.017C338.909 131.762 342.641 132.78 346.422 133.171C349.408 133.795 353.012 134.196 354.878 136.937C352.515 139.429 348.575 139.129 345.676 137.835ZM356.459 135.128C352.395 131.462 346.768 130.951 341.569 130.65C343.411 129.921 345.421 129.85 347.335 129.39C353.959 127.864 359.981 124.543 366.252 122.012C362.076 125.614 359.039 130.298 356.459 135.128ZM356.291 119.909C352.809 121.207 349.275 122.337 345.815 123.67C347.557 120.945 349.547 118.275 350.471 115.122C350.607 114.088 350.746 112.941 350.198 111.999C349.294 111.762 348.471 112.427 347.82 112.968C343.825 116.088 341.101 120.439 337.961 124.35C336.47 126.228 334.056 126.861 331.919 127.691C330.073 128.28 328.217 128.943 326.277 129.107C327.303 127.947 328.321 126.764 329.091 125.406C332.017 119.884 336.365 114.736 342.256 112.332C346.719 110.067 352.02 109.458 356.853 110.781C361.414 111.95 365.818 113.988 369.49 116.976C365.046 117.715 360.585 118.527 356.291 119.909Z" fill="#C9A9D1"/>
</svg>
