<svg width="472" height="849" viewBox="0 0 472 849" fill="none" xmlns="http://www.w3.org/2000/svg">
<g opacity="0.6" clip-path="url(#clip0_1918_383)">
<path d="M270.534 849H270.945L270.916 847.494C267.74 847.603 264.601 846.783 261.884 845.136C301.834 844.375 335.034 843.637 346.556 843.225L347.07 843.207C349.641 843.119 350.941 843.071 351.694 842.193C352.447 841.315 352.315 839.941 351.966 836.999C351.889 836.352 351.804 835.628 351.716 834.794C350.449 823.039 345.766 799.322 341.63 778.404C339.515 767.696 337.469 757.343 336.194 750.095C340.602 755.521 345.186 762.284 347.346 771.964C350.1 784.231 354.387 803.135 357.828 818.326C359.011 823.542 360.087 828.296 360.961 832.157C361.424 834.181 361.732 835.805 361.978 837.109C363.04 842.729 363.367 842.987 368.957 842.678C370.371 842.601 372.13 842.502 374.397 842.48L461.933 841.488C463.671 841.488 465.114 841.488 466.275 841.524C469.261 841.591 470.62 841.62 471.417 840.716C472.214 839.813 472.019 838.406 471.634 835.573C471.42 834.019 471.152 832.083 470.936 829.545C470.822 828.097 470.568 824.119 470.201 818.098C468.335 787.397 463.381 705.843 457.713 681.097C457.001 677.956 455.759 676.156 453.923 675.587C449.655 674.286 443.194 680.363 435.018 688.077C427.327 695.329 417.755 704.355 407.901 708.918C388.93 717.734 345.072 723.245 325.572 719.248C318.227 717.742 311.843 705.56 307.131 684.018C306.176 679.646 305.335 675.113 304.596 670.572C308.343 673.879 310.91 679.202 312.012 686.233C312.174 687.262 312.329 688.257 312.478 689.22C316.089 712.503 316.948 718.032 346.945 718.609H347.254C357.457 718.609 398.432 708.403 401.492 706.853C401.767 706.717 402.193 706.519 402.752 706.262C407.699 703.962 422.762 696.96 433.725 686.387C465.492 655.632 462.701 612.312 460.001 570.415C459.267 559.027 458.507 547.271 458.507 536.122C458.507 496.832 457.423 456.29 456.376 417.096C455.465 383.06 454.54 347.863 454.286 313.382C454.117 292.281 451.906 274.589 441.666 256.809C431.382 238.947 413.249 221.365 382.899 199.794L381.654 198.909C369.985 190.592 356.763 181.165 343.999 176.246L343.816 176.176C341.781 170.831 337.076 166.511 332.599 165.593C328.305 164.715 325.066 166.963 323.714 171.768C323.582 172.242 323.442 172.73 323.292 173.237C317.823 174.17 313.077 176.786 308.967 181.103C307.994 182.124 307.006 183.174 306.029 184.232C290.647 200.565 273.215 219.08 252.018 206.564C247.097 203.662 245.282 200.639 244.57 197.924L245.029 198.372C248.507 201.774 251.508 204.713 271.863 202.92C284.127 201.848 295.77 194.838 304.648 183.149C315.211 169.251 320.243 150.604 317.466 135.638C317.43 135.432 317.367 134.973 317.294 134.389C317.099 132.879 316.879 131.358 316.625 129.889C319.784 130.704 324.338 129.216 329.539 119.411C333.991 111.054 332.147 101.411 328.937 95.1655C326.645 90.7094 323.538 87.7227 320.831 87.3701C316.291 86.7823 313.518 89.9967 311.281 92.583C309.952 94.1295 308.802 95.4667 307.817 95.3161C306.767 95.1618 305.485 93.3912 304.005 90.0518C294.18 67.797 272.249 54.4801 248.129 56.1259C232.703 57.1876 222.114 62.7384 215.785 66.0778C215.08 66.4476 214.42 66.7917 213.805 67.1101C212.915 67.577 211.936 67.8495 210.932 67.9097C209.928 67.9698 208.924 67.8162 207.984 67.4591C208.421 67.1541 208.869 66.8529 209.335 66.5627C225.085 56.8202 253.646 49.8367 271.041 54.9724C286.467 59.5277 293.1 70.1922 297.952 77.9766C299.072 79.773 300.13 81.4702 301.151 82.8368C303.788 86.3819 307.028 88.024 310.282 87.4619C314.124 86.7933 317.507 83.116 319.097 77.8627C322.63 66.3937 322.645 55.1193 319.145 44.3556C315.924 34.4368 309.705 25.3263 301.147 17.9717C290.522 8.82068 276.561 2.68206 261.847 0.683609C245.801 -1.454 229.481 1.17516 214.918 8.24391C199.051 15.841 188.815 29.1138 185.708 38.9003C183.184 46.6553 189.95 54.1458 195.257 59.1052C196.021 59.8179 196.789 60.5747 197.597 61.3792C199.947 63.7083 202.449 66.1843 205.123 67.7676C204.44 68.3539 203.79 68.9769 203.176 69.6338C202.485 66.019 200.304 64.3806 197.667 62.4078C196.399 61.4891 195.187 60.4955 194.038 59.4322C190.1 55.6961 186.916 54.3112 184.301 55.1965C181.392 56.181 179.46 59.9171 178.391 66.6215C176.948 75.8055 180.029 85.0116 182.747 93.145C183.522 95.4631 184.253 97.6489 184.87 99.7833C187.974 110.654 192.466 117.913 195.995 117.913C196.173 117.913 196.35 117.894 196.524 117.857C199.363 117.24 200.197 111.932 198.831 102.906C196.822 89.4494 197.674 80.2543 201.85 73.7336C201.681 75.603 201.373 77.4572 200.928 79.2808C199.459 85.7794 200.098 93.8651 200.719 101.69C201.038 105.705 201.339 109.496 201.339 112.894C201.339 125.726 203.657 131.758 206.114 138.143C206.941 140.292 207.782 142.482 208.575 145.006C203.723 140.799 198.291 140.362 192.862 143.749C187.21 147.257 184.503 150.362 184.349 153.547C184.143 157.771 188.44 161.059 193.417 164.869C197.34 167.874 201.788 171.276 204.013 175.423C218.099 201.741 200.403 250.857 185.072 277.451C178.094 289.519 166.406 301.63 155.083 313.342C141.181 327.724 126.911 342.488 121.468 357.326C116.994 357.414 112.741 357.458 108.558 357.499C109.163 356.99 109.745 356.456 110.306 355.897C117.85 348.418 120.895 336.765 120.179 318.125C120.124 316.792 120.072 315.381 120.017 313.9C119.602 302.663 119.033 287.27 116.19 276.896C114.39 270.305 112.227 267.087 109.579 267.058H109.542C108.224 267.058 106.942 267.903 105.719 269.321C105.634 268.829 105.539 268.336 105.439 267.852C104.617 263.899 103.798 260.276 103.078 257.08C98.5197 236.876 96.4371 227.625 106.229 200.312C121.718 157.117 128.535 142.614 134.272 140.619C136.909 139.701 139.568 141.354 143.241 143.646C149.852 147.772 159.88 154.01 178.637 149.157C191.922 145.748 195.9 139.76 196.873 135.34C198.078 129.936 195.331 123.845 189.527 119.04C184.661 115.018 178.141 112.248 171.141 111.23C163.016 110.099 154.736 111.252 147.23 114.562C118.846 126.935 97.4214 175.669 87.6992 213.647C84.0997 227.68 83.1227 246.982 82.1898 265.651C80.8125 292.803 79.3911 320.884 69.8929 332.577C64.7912 338.87 58.617 348.399 52.6302 357.62L50.8194 360.412C36.8623 362.535 27.522 367.392 27.7939 381.837C27.8379 383.945 28.1208 386.807 30.0601 387.347C33.9056 388.449 40.8658 378.461 51.7303 361.768C57.2911 360.978 63.6636 360.585 70.5834 360.159L73.3601 359.986C84.6581 359.277 94.1415 359.123 103.867 359.027C96.7456 363.435 87.1997 365.952 75.9532 368.579C66.6093 370.764 53.9377 380.448 42.8969 393.849C31.5108 407.659 24.58 421.982 24.378 432.158C24.1466 442.72 26.2806 454.009 28.1648 463.972C28.7231 466.91 29.2667 469.717 29.6854 472.322C32.6237 490.322 33.1306 501.582 25.6048 533.77C24.8996 536.39 24.2458 539.013 23.614 541.551C21.5499 549.831 19.5739 557.715 16.0479 565.257C15.5263 564.181 14.8101 563.457 13.969 563.17C12.8671 562.803 10.0389 562.737 7.48624 570.15C5.89294 575.014 4.57596 579.964 3.5415 584.977C2.67838 589.058 2.3772 594.94 2.07236 600.63C1.81525 605.637 1.57651 610.365 0.970459 613.694C-0.634583 622.779 -0.498688 623.337 1.99155 627.841C2.86572 629.435 4.06677 631.621 5.59103 635.03C8.03354 640.508 13.1646 646.822 18.1267 652.928C20.1579 655.43 22.0751 657.788 23.7243 659.992C24.0475 660.43 24.3523 660.856 24.6425 661.274C23.8124 660.768 22.806 660.095 21.6343 659.199C20.3622 658.227 19.148 657.182 17.9981 656.069C16.2641 654.387 14.6165 652.617 13.0617 650.768C10.1418 647.41 8.03354 644.978 6.13831 645.687C4.55527 646.279 3.50113 648.744 3.50113 658.85C3.45496 662.722 4.27838 666.554 5.91058 670.065C6.17136 670.675 6.39542 671.201 6.55334 671.671C7.48627 674.323 10.7993 678.155 16.1029 680.767C20.5053 682.866 24.6948 685.385 28.6129 688.29C30.3943 689.569 32.2381 690.891 34.8569 692.537C35.9587 693.213 37.1561 693.87 38.4306 694.565C41.6151 696.306 45.2255 698.279 48.0353 701.089C49.3502 702.404 51.1757 703.121 53.2509 703.492C49.5376 709.002 49.8644 718.157 50.1583 726.367C50.2391 728.572 50.3126 730.677 50.3126 732.657C50.3126 734.637 51.3116 753.835 52.4649 776.108C53.7945 801.857 55.3077 831.04 55.3555 835.254C55.3684 837.603 55.1046 839.946 54.5695 842.233C54.2022 844.037 53.9377 845.227 54.6796 846.15C55.7815 847.513 58.3967 847.527 67.0684 847.575H69.2722C99.3901 847.792 189.083 846.421 259.217 845.095C262.419 847.676 266.422 849.057 270.534 849ZM257.653 843.707C187.779 845.022 99.2726 846.366 69.386 846.157H67.1823C60.1413 846.12 56.6079 846.102 55.9578 845.294C55.664 844.926 55.866 843.964 56.1488 842.634C56.7081 840.238 56.9818 837.784 56.9642 835.323C56.9165 831.08 55.4069 801.893 54.0736 776.119C52.9717 754.79 51.9249 734.644 51.9249 732.745C51.9249 730.739 51.8478 728.634 51.7707 726.404C51.4732 718.091 51.1353 708.771 55.0543 703.808C57.5638 703.973 60.0815 703.973 62.5911 703.808H62.8335C64.5591 703.688 66.2717 703.425 67.9536 703.021C90.3327 712.503 124.061 711.019 144.053 704.895C168.118 697.526 212.149 681.88 233.966 673.339C235.092 672.893 236.194 672.455 237.272 672.023C246.366 668.376 253.546 665.495 258.498 668.254C262.306 670.378 264.855 675.793 266.515 685.304C274.144 728.777 253.293 765.829 233.114 801.662C228.927 809.097 224.596 816.79 220.586 824.438C219.436 826.61 218.532 828.557 217.739 830.272C214.492 837.285 213.008 840.485 202.816 841.62C186.438 843.405 166.568 842.476 147.355 841.576C126.662 840.606 105.263 839.603 87.4458 841.881L85.826 842.087C81.4773 842.652 78.3369 843.064 77.3783 841.884C76.6878 841.043 76.8824 839.082 77.966 835.885C83.4129 820.166 99.269 776.931 105.818 760.716C109.179 759.614 112.256 756.256 114.185 753.089C114.89 751.928 117.086 748.027 115.768 746.451C115.426 746.04 114.747 745.65 113.468 746.143C111.041 747.083 108.565 750.499 105.899 756.583C105.557 757.384 105.164 758.346 104.709 759.448C104.006 759.604 103.277 759.604 102.575 759.448C101.957 759.311 101.352 759.119 100.768 758.875C98.9311 751.984 89.5724 742.539 85.0584 739.725C83.1889 738.564 82.0797 738.285 81.3488 738.792C81.0145 739.023 80.6545 739.526 80.8492 740.496C81.5838 744.17 91.1995 756.149 99.4636 759.966C99.6122 760.651 99.6122 761.361 99.4636 762.046C97.7777 769.125 90.9902 788.992 82.6269 807.881C73.0149 829.589 64.7141 842.12 59.8548 842.255L59.8952 843.758C65.5992 843.6 73.7091 831.734 84.0006 808.491C92.4042 789.521 99.2285 769.529 100.925 762.395C101.061 761.809 101.103 761.205 101.05 760.606C101.451 760.734 101.844 760.844 102.229 760.929C102.821 761.06 103.428 761.105 104.033 761.061C97.2562 777.985 81.8777 819.949 76.5225 835.393C75.2039 839.276 75.1048 841.502 76.1956 842.829C77.6905 844.665 80.9998 844.225 86.006 843.563L87.6258 843.354C105.311 841.095 126.643 842.094 147.27 843.06C166.546 843.964 186.479 844.897 202.974 843.097C213.993 841.87 215.829 837.954 219.098 830.889C219.884 829.188 220.777 827.26 221.908 825.122C225.911 817.506 230.234 809.825 234.418 802.397C244.551 784.396 255.034 765.774 261.814 746.558C269.435 724.927 271.456 704.811 267.992 685.061C266.244 675.069 263.46 669.316 259.221 666.954C253.646 663.846 246.171 666.844 236.706 670.628C235.637 671.057 234.543 671.498 233.4 671.939C211.609 680.473 167.633 696.1 143.597 703.459C130.706 707.408 112.8 709.105 96.8705 707.889C88.8526 707.276 79.1377 705.791 70.3704 702.415C70.9801 702.25 71.5861 702.07 72.1774 701.883L72.8165 701.677C75.0937 702.188 77.5913 702.647 79.762 702.647C81.9327 702.647 86.8067 703.499 92.0039 704.399C96.9146 705.248 102.475 706.21 106.611 706.603C107.673 706.702 108.815 706.75 109.994 706.75C135.337 706.75 189.575 684.866 219.329 672.861C223.384 671.228 226.896 669.819 229.863 668.636C235.891 666.252 242.465 664.485 248.268 662.928C253.076 661.638 257.62 660.419 260.969 659.07C269.546 655.632 268.914 647.829 268.315 640.283C268.143 638.16 267.948 635.963 268.003 633.913C268.165 626.794 268.569 619.377 269.259 612.239C272.781 609.814 276.128 607.463 279.242 605.153C279.61 604.873 312.813 578.552 330.193 564.008C331.019 563.321 331.949 562.612 332.933 561.859C337.043 558.711 341.7 555.143 341.557 551.036C341.476 548.748 339.967 546.665 336.933 544.666C335.732 543.88 334.237 542.495 332.525 540.894C328.852 537.473 324.254 533.216 318.935 531.397C309.702 528.256 303.23 523.168 301.184 517.437C301.14 517.316 301.1 517.199 301.063 517.07C307.491 517.669 313.551 522.816 320.412 528.668C324.059 531.768 327.831 534.979 331.971 537.76C339.478 542.811 342.798 546.646 343.067 550.581C343.357 554.828 340.15 559.702 332.665 566.377C326.597 571.822 316.724 578.684 307.182 585.319C296.475 592.761 285.402 600.458 279.903 606.049C276.33 609.682 273.494 618.282 272.679 627.955C271.782 638.638 273.413 648.413 277.189 654.772C279.679 658.982 284.113 663.387 291.741 663.387C294.037 663.362 296.319 663.02 298.521 662.369C299.758 662.005 300.848 661.259 301.636 660.239C301.941 662.568 302.275 664.933 302.635 667.307C299.653 665.729 296.3 664.987 292.931 665.157C281.725 665.668 270.956 674.834 270.339 684.389C269.847 692.309 270.611 699.87 271.349 707.184C271.518 708.863 271.694 710.6 271.849 712.297C274.17 737.296 264.87 752.388 256.694 765.705C253.8 770.411 251.067 774.856 249.161 779.319C247.391 783.459 245.815 794.142 246.223 806.544C246.494 814.78 247.938 830.055 254.545 839.864C255.449 841.246 256.49 842.534 257.653 843.707ZM334.281 747.792C335.471 754.945 337.704 766.252 340.158 778.706C344.286 799.594 348.973 823.27 350.221 834.967C350.31 835.79 350.398 836.521 350.475 837.171C350.736 839.353 350.905 840.797 350.556 841.212C350.207 841.627 348.954 841.635 347.019 841.704H346.508C334.795 842.123 300.681 842.88 259.849 843.651C258.276 842.318 256.9 840.767 255.765 839.045C244.629 822.513 247.17 787.765 250.516 779.932C252.375 775.568 255.082 771.171 257.947 766.516C265.851 753.659 275.687 737.682 273.318 712.18C273.163 710.479 272.987 708.738 272.818 707.037C272.084 699.785 271.327 692.284 271.812 684.488C272.385 675.638 282.463 667.141 292.968 666.664C296.755 666.491 300.097 667.398 302.907 669.235C303.708 674.323 304.637 679.433 305.709 684.337C310.627 706.82 317.228 719.061 325.319 720.706C334.501 722.587 349.979 722.484 366.731 720.435C383.972 718.326 399.226 714.619 408.58 710.266C418.659 705.6 428.33 696.486 436.098 689.157C443.609 682.078 450.096 675.962 453.53 677.009C454.79 677.376 455.733 678.871 456.295 681.417C461.919 706.03 466.87 787.507 468.732 818.175C469.099 824.207 469.342 828.189 469.467 829.655C469.687 832.227 469.955 834.192 470.172 835.764C470.455 837.825 470.66 839.309 470.322 839.691C469.984 840.073 468.449 840.059 466.33 839.996C465.158 839.971 463.7 839.937 461.922 839.959L374.389 840.948C372.09 840.973 370.312 841.069 368.88 841.15C366.54 841.278 365.251 841.352 364.7 840.911C364.149 840.47 363.896 839.166 363.448 836.804C363.198 835.485 362.889 833.865 362.419 831.797L359.286 817.969C355.845 802.779 351.573 783.874 348.807 771.608C346.295 760.356 340.646 752.983 335.68 747.098C335.166 743.986 334.869 741.73 334.869 740.665C334.869 734.42 331.067 725.104 327.651 725.049C325.976 725.016 325.044 727.007 324.922 730.948C324.731 736.587 328.595 741.113 333.072 746.356C333.48 746.833 333.881 747.314 334.281 747.792ZM114.515 747.392C114.543 747.387 114.572 747.387 114.6 747.392C114.802 747.652 114.6 749.489 112.763 752.428C111.169 755 108.929 757.432 106.593 758.673C106.828 758.111 107.041 757.601 107.239 757.141C109.7 751.528 111.963 748.284 113.972 747.505C114.145 747.435 114.329 747.397 114.515 747.392ZM82.2707 740.044C82.5241 740.088 83.097 740.272 84.232 740.977C88.7019 743.762 96.4151 751.998 98.8172 757.924C93.0948 754.753 86.5643 747.752 83.5672 742.862C82.524 741.183 82.3074 740.379 82.2707 740.063V740.044ZM327.644 726.573C329.352 726.599 333.381 733.997 333.381 740.683C333.442 742.105 333.592 743.52 333.829 744.923C329.572 739.934 326.278 735.919 326.439 731.015C326.553 727.517 327.273 726.591 327.644 726.591V726.573ZM344.437 178.002C356.653 182.921 369.412 192.024 380.828 200.154L382.073 201.043C442.573 244.024 452.483 269.372 452.836 313.408C453.078 347.903 454.018 383.108 454.929 417.151C455.976 456.352 457.059 496.869 457.059 536.155C457.059 547.341 457.82 559.137 458.554 570.543C461.232 612.099 464.001 655.07 432.734 685.337C421.954 695.737 407.064 702.654 402.171 704.928C401.602 705.193 401.165 705.398 400.875 705.542C398.388 706.802 356.546 717.341 347.033 717.139C331.805 716.838 324.996 715.35 321.011 711.452C316.875 707.411 315.799 700.483 314.032 689.007C313.88 688.044 313.725 687.049 313.566 686.02C312.071 676.469 308.339 671.215 304.306 668.387C303.777 664.977 303.303 661.583 302.881 658.269C304.089 655.804 304.85 652.318 305.118 647.895C305.518 641.385 304.787 632.932 303.219 625.853C302.451 622.371 301.798 619.766 301.276 618.117C300.681 616.247 300.226 615.321 299.355 615.442C298.485 615.564 298.139 616.379 298.216 621.1C298.257 623.44 298.407 626.515 298.676 630.504C299.127 637.087 299.95 647.076 301.327 658.001C300.505 659.544 299.44 660.595 298.103 660.966C289.288 663.464 282.676 661.138 278.471 654.052C274.864 647.954 273.296 638.505 274.17 628.127C274.956 618.785 277.622 610.553 280.965 607.155C286.364 601.644 297.379 594.007 308.031 586.604C317.61 579.94 327.519 573.052 333.657 567.546C341.52 560.522 344.881 555.268 344.558 550.515C344.246 546.004 340.841 541.959 332.804 536.555C328.735 533.822 324.996 530.64 321.378 527.566C314.418 521.64 307.806 516.016 300.659 515.579C300.046 512.346 300.725 508.907 302.694 505.322C304.802 509.267 307.065 512.269 309.566 514.205C312.927 516.802 315.391 518.172 318.803 520.082C321.742 521.725 325.414 523.756 330.986 527.353C334.817 529.832 337.965 533.425 341.035 536.904C345.7 542.201 350.17 547.282 356.267 547.282C358.35 547.282 360.619 546.687 363.154 545.309C375.84 538.425 388.761 516.39 403.82 475.973C416.419 442.099 441.134 349.744 447.752 315.069C448.285 312.273 448.696 309.378 448.968 306.469C450.048 294.188 448.142 283.038 443.459 274.218C438.919 265.677 431.981 259.608 423.39 256.669C412.099 252.808 398.513 254.711 385.136 262.029C370.096 270.258 355.33 285.206 342.438 305.256C327.346 328.768 329.37 364.302 331.001 392.869C331.736 405.726 332.426 417.904 331.423 426.912C328.298 454.986 308.872 492.02 302.826 502.196C298.253 492.574 294.514 478.684 291.117 464.519C287.359 448.759 284.006 431.552 280.763 414.925C278.074 401.123 275.536 388.089 273.068 377.546C270.104 364.945 260.907 321.453 267.041 290.922C268.789 282.157 273.549 277.774 277.751 273.909C279.181 272.655 280.53 271.311 281.791 269.887C283.527 267.786 285.128 265.578 286.584 263.274C294.702 260.082 304.67 256.482 317.176 256.702C327.266 256.809 334.163 252.481 336.139 244.807C338.71 234.837 341.649 210.121 343.57 193.766C344.062 189.607 344.488 186.014 344.815 183.446C345.037 181.63 344.909 179.788 344.437 178.02V178.002ZM267.639 613.326C266.857 621.89 266.582 629.56 266.482 633.858C266.442 635.989 266.626 638.222 266.802 640.383C267.397 647.708 267.959 654.625 260.407 657.649C257.142 658.96 252.643 660.169 247.875 661.451C242.035 663.019 235.417 664.797 229.309 667.211C226.331 668.391 222.817 669.801 218.767 671.439C187.731 683.963 129.964 707.283 106.743 705.079C102.666 704.686 97.1313 703.727 92.25 702.875C86.7406 701.923 82.0172 701.104 79.762 701.104C78.3163 701.077 76.8758 700.922 75.4574 700.641C78.4288 699.337 78.3957 698.466 78.3957 698.088C78.37 696.754 76.5592 696.233 71.913 696.233C70.8736 696.233 69.4778 696.325 67.8728 696.431C65.0904 696.666 62.2973 696.75 59.5059 696.681C59.1165 696.405 58.7345 696.126 58.3562 695.836C59.3291 695.978 60.3153 696.006 61.2946 695.917C62.2435 695.862 63.1955 695.899 64.1374 696.027C66.3852 696.229 68.9122 696.46 70.5577 695.737C71.9718 695.134 73.6026 693.9 73.496 692.43C73.4226 691.328 72.4529 690.509 70.6164 690.01C68.1923 689.319 62.0291 689.481 56.068 689.642C54.6906 689.675 53.3427 689.712 52.1086 689.734L51.5099 688.999C54.9294 688.922 58.3452 688.856 59.2231 688.896C65.0998 689.216 67.3035 686.986 67.4357 684.98C67.5679 682.721 65.0777 680.153 60.2074 679.837C57.3535 679.661 50.2207 679.018 44.1273 678.452C38.8126 669.867 33.1747 658.754 27.4229 645.478C14.8982 616.504 10.7919 592.21 15.8568 577.075C17.113 573.273 17.3003 569.849 16.7824 567.34C20.8226 559.258 22.9162 550.809 25.1273 541.94C25.7848 539.303 26.4679 536.573 27.1988 533.859C34.721 501.622 34.2031 490.264 31.239 472.105C30.7983 469.478 30.2694 466.679 29.7111 463.718C27.8379 453.829 25.7186 442.62 25.95 432.217C26.1447 422.364 32.9286 408.39 44.1237 394.83C54.9771 381.671 67.3329 372.182 76.3719 370.07C88.8121 367.161 99.2065 364.398 106.707 359.016H107.441C111.849 358.972 116.33 358.932 121.031 358.843C119.806 362.47 119.209 366.279 119.268 370.107C119.499 379.199 123.833 387.571 132.527 395.697C134.933 397.949 137.302 400.006 139.601 401.994C141.438 403.574 143.146 405.065 144.703 406.494C142.951 419.319 142.499 427.121 145.217 428.47C146.877 429.289 148.787 427.603 150.08 426.265C152.809 423.448 154.076 420.707 153.951 417.897C153.771 413.812 150.719 410.068 146.293 405.925C146.712 402.912 147.182 399.738 147.667 396.487C149.21 386.138 150.804 375.437 151.068 367.344C151.192 363.68 151.865 360.056 153.063 356.592C160.28 354.722 167.534 351.107 174.123 346.026C181.535 340.321 190.005 332.698 188.231 328.79C187.831 327.904 186.541 326.545 182.406 327.364C177.447 328.345 169.348 332.434 162.421 339.359C158.719 343.062 154.506 348.41 151.935 355.324C149.404 355.943 146.823 356.331 144.222 356.485C136.435 356.926 129.556 357.161 123.154 357.297C128.638 342.944 142.62 328.485 156.236 314.389C167.622 302.615 179.375 290.437 186.446 278.204C195.037 263.304 202.665 244.406 206.856 227.651C212.457 205.242 211.958 186.944 205.409 174.714C203.029 170.28 198.431 166.772 194.39 163.693C189.748 160.141 185.741 157.081 185.91 153.639C186.038 151.038 188.591 148.227 193.714 145.046C198.838 141.865 203.712 142.419 208.237 146.692C208.663 147.096 209.084 147.531 209.501 147.996C209.791 149.098 210.07 150.229 210.334 151.46C210.676 153.084 210.959 154.766 211.234 156.368C212.171 161.878 213.137 167.554 216.641 172.991C218.355 175.595 220.303 178.036 222.462 180.283C224.184 189.123 225.254 198.078 225.662 207.075C227.131 237.684 222.088 266.062 211.785 284.956C209.394 289.328 204.921 294.959 199.437 300.954C192.862 301.112 185.968 303.078 178.979 306.832C169.609 311.865 160.298 320.057 154.069 328.749C152.027 331.6 147.531 338.495 149.893 340.997C151.256 342.444 154.135 341.732 158.708 338.859C168.772 332.504 187.078 316.571 200.087 302.446C204.775 302.396 209.416 303.385 213.677 305.341C239.725 317.302 244.915 326.912 245.602 328.408C245.616 328.431 245.628 328.456 245.639 328.481C245.658 328.522 245.675 328.563 245.69 328.606C246.671 330.575 254.77 347.018 260.973 365.195C269.711 390.911 289.894 470.966 295.131 507.544C295.521 510.376 295.766 513.225 295.866 516.082C294.995 516.328 294.145 516.644 293.324 517.026C292.667 508.209 291.436 500.436 290.162 495.407C286.489 480.929 283.264 466.385 280.131 452.297C274.306 426.126 268.282 399.062 259.39 371.701C258.9 370.18 258.402 368.629 257.895 367.047C251.728 347.727 244.739 325.832 229.827 321.126C221.585 318.533 212.061 321.494 200.708 330.171C194.611 334.833 190.982 344.612 189.924 359.24C187.83 388.236 196.073 428.146 201.171 449.354C208.083 478.097 216.736 503.93 220.876 508.162C221.978 509.264 223.226 510.443 224.596 511.618C219.66 511.034 211.065 510.402 202.732 509.782C193.226 509.084 183.397 508.36 179.706 507.746C178.692 507.585 177.763 507.419 176.9 507.265C172.812 506.53 169.965 506.027 166.818 507.449C165.055 504.444 161.771 502.192 156.813 500.579C150.227 498.434 141.974 496.681 137.041 495.635C134.775 495.153 133.001 494.775 132.494 494.599C131.165 494.223 129.816 493.922 128.454 493.695C123.099 492.648 113.127 490.701 109.494 487.222C93.0507 471.425 87.4568 469.717 66.6901 474.103C62.9437 474.923 55.058 480.507 49.2988 484.584C47.6019 485.789 46.1328 486.829 45.1998 487.435C41.4902 489.812 40.1091 491.917 41.1008 493.68C41.474 494.275 42.0127 494.747 42.6508 495.039C41.6418 495.629 40.6824 496.3 39.7823 497.045C35.4666 500.682 33.8578 503.088 34.563 504.844C35.2976 506.681 38.3425 506.975 41.9089 506.872C41.2698 507.309 40.5977 507.728 39.8851 508.121C35.3968 510.597 33.5824 512.581 34.1737 514.366C34.8569 516.42 38.8493 517.129 42.7243 517.261C42.1954 517.709 41.6224 518.198 41.0384 518.731C38.5555 520.968 38.5592 523.054 38.9962 524.41C40.1789 528.062 46.0152 530.964 53.8679 531.805C56.8157 532.086 59.6745 532.969 62.2679 534.399C65.7902 536.173 68.5743 537.576 78.1606 534.619C107.511 525.475 117.461 533.429 127.102 541.121C133.31 546.077 139.179 550.754 149.68 550.552C157.143 550.412 157.077 543.425 157 535.339C156.923 527.073 156.827 516.791 164.739 510.491C165.185 510.135 165.649 509.804 166.131 509.499C168.1 514.535 165.573 521.074 162.902 527.981C158.616 539.071 153.753 551.643 168.25 559.761C182.45 567.718 208.59 572.509 231.652 576.737L236.497 577.626C229.871 583.976 222.881 589.934 215.561 595.469C191.977 613.065 178.097 611.791 164.647 610.556C155.244 609.693 145.518 608.8 132.781 614.428C123.198 618.66 116.866 623.612 111.276 627.991C107.728 630.769 104.664 633.168 101.278 635.008C92.7789 639.644 88.4779 643.748 88.4926 647.197C88.4926 648.369 89.0252 650.048 91.4934 651.359C97.4655 654.541 110.357 653.53 116.572 649.394C120.543 646.745 122.996 643.711 125.02 640.86C124.954 642.026 124.721 643.177 124.329 644.277C122.445 649.166 114.17 654.28 101.627 658.306C100.158 658.776 92.9221 661.447 86.1309 664.625C73.8927 670.356 72.7871 673.148 73.0186 674.753C73.3418 676.99 76.9265 678.133 84.3018 678.342C91.9488 678.57 108.58 673.24 115.437 670.628C117.013 670.036 118.838 669.459 120.686 668.901C119.092 671.421 117.233 674.018 114.467 675.084C109.182 677.13 101.755 677.883 95.7907 678.485C93.7191 678.695 91.9268 678.878 90.4612 679.092C83.4607 680.072 79.4425 682.196 79.6739 684.764C79.9714 687.872 86.4798 689.539 96.2535 689.032L96.7823 689.003C104.282 688.636 113.619 688.151 119.668 685.748C122.452 684.628 125.323 683.736 128.252 683.081C127.44 683.757 126.536 684.315 125.567 684.738C120.425 686.791 105.094 691.45 101.642 691.45C100.58 691.45 99.3167 691.049 98.0973 690.667C96.147 690.054 94.3068 689.473 92.9148 690.3C92.1582 690.752 91.6549 691.575 91.4236 692.746C91.1224 694.311 91.3611 695.579 92.1324 696.516C93.6714 698.382 96.8338 698.382 98.9274 698.382C102.163 698.382 127.495 694.708 133.952 693.147L137.17 692.353C135.818 693.591 134.448 694.609 132.939 695.105C131.653 695.542 126.75 696.38 121.553 697.261C103.853 700.277 102.086 700.891 102.193 702.199C102.266 703.073 103.353 703.253 104.558 703.37C105.763 703.488 107.643 703.551 110.119 703.551C115.342 703.551 131.638 702.379 137.401 699.734C139.068 698.965 140.688 698.099 142.253 697.14C144.611 695.74 146.473 694.635 150.525 693.933C170.439 690.528 179.86 680.532 188.973 670.866C191.966 667.689 195.066 664.404 198.493 661.399C210.342 651.069 228.666 639.049 246.384 627.426C253.84 622.573 261.028 617.856 267.639 613.341V613.326ZM65.5882 701.941C64.6539 702.116 63.7091 702.229 62.76 702.279H62.5103C60.5122 702.364 58.4003 702.456 56.4206 702.36C57.9486 701.111 59.8658 700.384 62.2165 700.156C63.3036 700.805 64.4276 701.405 65.5882 701.956V701.941ZM60.2037 698.966C58.3248 699.348 56.5786 700.216 55.1387 701.482C54.8853 701.71 54.6429 701.945 54.4041 702.195C52.2628 701.916 50.4007 701.306 49.1813 700.086C46.2172 697.122 42.5076 695.094 39.2313 693.305C37.9752 692.618 36.7888 691.968 35.731 691.317C33.16 689.697 31.3235 688.378 29.5642 687.126C25.5815 684.171 21.3218 681.61 16.8449 679.477C11.9158 677.049 8.87463 673.599 8.02988 671.241C7.85724 670.723 7.62213 670.172 7.34665 669.529C5.78955 666.208 5.00714 662.576 5.05844 658.909C5.05844 649.225 6.10156 647.388 6.72229 647.153C7.63684 646.815 9.94345 649.467 11.9783 651.811C13.5651 653.697 15.247 655.501 17.0175 657.215C18.2081 658.368 19.4652 659.45 20.7823 660.455C22.986 662.134 24.8224 663.255 26.2916 663.828C28.2787 667.196 28.8884 669.683 28.0987 671.245C27.2759 672.879 24.8298 673.71 20.83 673.71C19.7497 673.692 18.6745 673.556 17.6235 673.306C16.4075 671.911 15.2836 670.438 14.2591 668.897C12.599 666.513 11.5045 664.926 10.1895 665.029C9.56516 665.073 9.05093 665.495 8.65424 666.282C8.34958 666.869 8.20795 667.528 8.24414 668.189C8.2803 668.85 8.49292 669.489 8.85989 670.04C10.2262 672.244 13.6347 673.86 16.8228 674.657C17.7002 675.606 18.6979 676.436 19.7905 677.126C22.6407 678.856 27.32 678.963 31.4484 679.036C33.2077 679.073 34.8716 679.106 36.2563 679.257L36.4215 679.275L43.1687 679.911C44.9488 682.749 46.6971 685.307 48.4136 687.585L47.2419 687.614C45.3798 687.658 43.8482 687.695 43.1283 687.706C41.5012 686.549 39.8227 685.381 37.6189 686.501C37.1892 686.718 36.1755 687.236 36.3958 688.114C36.6309 689.069 37.8173 689.297 42.1623 689.216H42.6435C43.8262 690.05 45.1741 690.921 46.9114 691.148C48.3896 691.269 49.8734 691.305 51.3557 691.259C52.0609 692.074 52.7587 692.839 53.4492 693.555L53.6843 693.793C52.8799 693.709 52.1343 693.639 51.4805 693.61C49.7285 692.453 47.9252 691.641 46.0446 693.433C45.2219 694.231 44.5754 694.947 44.9868 695.638C45.3982 696.328 46.3752 696.111 47.9508 695.638C48.7167 695.389 49.5017 695.203 50.2979 695.083C50.5302 695.069 50.7633 695.069 50.9957 695.083L51.4842 695.417C52.8175 696.343 54.3307 697.394 56.1819 697.801C57.0909 697.992 58.0129 698.115 58.9402 698.169C59.3847 698.455 59.7997 698.709 60.2037 698.981V698.966ZM267.823 611.376C260.951 616.093 253.399 621.045 245.569 626.184C227.807 637.833 209.442 649.883 197.516 660.283C194.03 663.332 190.905 666.645 187.889 669.834C178.534 679.753 169.701 689.128 150.282 692.449C145.952 693.184 143.888 694.425 141.497 695.847C139.977 696.778 138.405 697.619 136.788 698.367C131.227 700.917 115.261 702.041 110.13 702.041C107.728 702.041 106.185 701.982 105.197 701.908C108.602 700.99 116.33 699.671 121.817 698.738C127.304 697.805 132.028 697 133.42 696.534C135.958 695.7 138 693.72 140.127 691.578C141.929 691.086 143.686 690.442 145.379 689.653C146.682 689.045 147.902 688.273 149.011 687.357C150.995 685.733 151.031 684.962 150.848 684.473C150.429 683.404 148.864 683.775 147.241 684.337C144.097 685.44 141.702 687.853 139.385 690.193L139.344 690.234C137.934 690.623 136.152 691.06 133.607 691.703C126.684 693.367 101.767 696.894 98.9384 696.894C97.2378 696.894 94.3913 696.894 93.3041 695.579C92.8229 694.995 92.6944 694.168 92.9111 693.051C93.058 692.317 93.3151 691.839 93.6971 691.615C94.5089 691.13 96.1102 691.615 97.6565 692.122C98.9861 692.537 100.36 692.97 101.653 692.97C105.52 692.97 121.347 688.062 126.14 686.152C127.977 685.417 129.56 684.033 131.201 682.548C132.556 682.327 133.924 682.204 135.297 682.181C137.662 682.181 145.056 680.282 145.184 677.96C145.269 676.406 142.778 676.123 141.838 676.028C136.799 675.473 133.468 678.456 130.529 681.112C126.623 681.785 122.799 682.87 119.121 684.349C113.303 686.659 104.106 687.126 96.7163 687.5L96.1873 687.53C85.1172 688.114 81.2973 685.818 81.1798 684.617C81.0806 683.588 83.5745 681.579 90.6853 680.576C92.1214 680.37 93.8992 680.186 95.9523 679.981C102.009 679.367 109.542 678.603 115.018 676.483C118.633 675.095 120.748 671.678 122.614 668.669C122.702 668.523 122.79 668.379 122.879 668.24C129.258 666.322 131.694 665.429 131.694 663.96C131.694 662.942 130.514 662.49 129.49 662.174C125.934 661.124 123.907 663.806 121.916 666.95C119.507 667.685 117.024 668.42 114.938 669.206C106.571 672.398 91.0636 677.016 84.3789 676.829C75.5198 676.575 74.6089 674.992 74.5392 674.525C74.451 673.908 75.0717 671.469 86.803 665.977C93.5318 662.828 100.694 660.191 102.123 659.732C115.29 655.511 123.69 650.21 125.765 644.809C126.54 642.763 126.599 640.676 126.654 638.66C126.654 638.616 126.654 638.575 126.654 638.531C127.664 636.985 128.796 635.523 130.041 634.159C132.417 631.658 134.977 627.143 133.589 625.765C132.516 624.696 130.65 626.221 129.148 627.668C125.552 631.129 125.27 634.648 125.163 638.046L125.042 638.222C122.728 641.599 120.341 645.088 115.771 648.141C109.568 652.267 97.2525 652.704 92.2316 650.033C90.7625 649.258 90.0279 648.303 90.0279 647.19C90.0279 645.584 91.5668 642.047 102.027 636.331C105.52 634.428 108.782 631.878 112.234 629.174C117.744 624.858 124.006 619.961 133.416 615.806C145.798 610.336 154.903 611.17 164.54 612.055C178.259 613.315 192.455 614.627 216.487 596.674C223.921 591.138 231.329 584.672 238.355 577.964C245.514 579.294 252.209 580.591 257.954 581.939C262.989 583.096 268.161 584.099 272.932 583.706C270.313 591.674 268.741 601.953 267.823 611.39V611.376ZM69.8745 700.957C69.2648 701.126 68.6478 701.284 68.0381 701.431C67.1346 701.038 66.242 700.623 65.3679 700.185C65.9849 700.237 66.624 700.31 67.2888 700.413C67.9536 700.516 68.8498 700.729 69.8745 700.972V700.957ZM76.7686 698.213C76.2581 698.709 74.6934 699.407 72.7284 700.083L70.9507 699.664C69.588 699.337 68.4127 699.058 67.5202 698.929C65.8747 698.659 64.2049 698.566 62.5397 698.654L61.8492 698.238C63.9134 698.216 66.062 698.073 67.9756 697.948C69.566 697.845 70.9397 697.754 71.9314 697.754C75.1783 697.765 76.3609 698.058 76.7686 698.227V698.213ZM55.5905 695.531C55.9101 695.807 56.2333 696.078 56.5638 696.346C55.725 696.145 54.9231 695.813 54.1875 695.362L55.5905 695.531ZM63.5351 691.023C66.4734 691.023 68.993 691.126 70.2087 691.475C71.4943 691.843 71.9681 692.258 71.9901 692.548C72.0195 692.992 71.2556 693.812 69.948 694.385C68.6404 694.958 66.2237 694.752 64.2623 694.557C62.9254 694.44 61.7684 694.333 61.0228 694.466C60.2772 694.598 58.1909 694.344 56.248 694.098C55.6823 693.588 55.1461 693.062 54.6025 692.519C54.2058 692.107 53.8067 691.679 53.4051 691.233L56.1194 691.163C58.4885 691.108 61.1403 691.038 63.5351 691.038V691.023ZM48.7075 693.918C48.3402 694.017 47.9729 694.124 47.6056 694.227L47.455 694.271C47.6297 694.132 47.8308 694.03 48.0463 693.972C48.2617 693.914 48.4867 693.901 48.7075 693.933V693.918ZM50.1767 689.767C49.174 689.788 48.1709 689.752 47.1722 689.661C46.5995 689.579 46.0423 689.412 45.5194 689.165L47.3558 689.121L49.633 689.065L50.1767 689.767ZM148.978 685.41C147.75 686.591 146.339 687.565 144.799 688.294C143.972 688.661 143.26 688.97 142.536 689.242C144.123 687.772 145.812 686.453 147.759 685.774C148.148 685.638 148.544 685.522 148.945 685.425L148.978 685.41ZM39.4664 687.563C39.758 687.567 40.0465 687.623 40.3185 687.728C39.7125 687.728 39.2166 687.703 38.8089 687.669C39.0112 687.607 39.2218 687.576 39.4333 687.578L39.4664 687.563ZM58.393 687.401C56.7071 687.401 53.4786 687.471 50.3639 687.545C48.6744 685.357 46.9433 682.873 45.1705 680.091C50.9957 680.631 57.4527 681.193 60.1486 681.377C63.8546 681.608 66.0547 683.393 65.9666 684.914C65.8857 686.288 63.7628 687.658 59.3296 687.412C59.0945 687.42 58.7713 687.416 58.3599 687.416L58.393 687.401ZM143.631 677.975C142.859 678.867 138.048 680.693 135.322 680.693C134.656 680.693 133.952 680.725 133.21 680.789C135.572 678.794 138.169 677.148 141.702 677.538C142.355 677.577 142.997 677.73 143.597 677.989L143.631 677.975ZM15.5483 569.787C15.5776 572.117 15.2048 574.434 14.4464 576.638C11.622 585.087 11.4861 596.002 14.0461 609.113C16.2205 620.255 20.2607 632.705 26.0565 646.11C31.6871 659.107 37.0753 669.867 42.2174 678.309L36.6052 677.78H36.451C35.0075 677.622 33.3142 677.585 31.5219 677.549C27.5808 677.471 23.1182 677.38 20.6133 675.859C20.2684 675.647 19.9361 675.415 19.6179 675.164C20.0587 675.208 20.481 675.231 20.8704 675.231C25.5497 675.231 28.3668 674.154 29.4834 671.943C30.4236 670.08 30.0527 667.589 28.3117 664.287C28.6339 664.301 28.955 664.242 29.2513 664.115C29.5475 663.987 29.8114 663.795 30.0233 663.552C32.2748 660.981 27.7424 652.928 23.5847 648.769C23.3827 648.56 22.8501 647.936 22.1339 647.142C20.7492 645.566 19.5371 644.203 18.4609 643.039C18.739 642.911 18.9888 642.728 19.1955 642.502C20.2974 641.257 20.044 638.803 18.3985 635.001C16.7275 631.22 14.7895 627.563 12.599 624.057C12.2317 623.513 11.6697 622.76 11.0233 621.893L10.6119 621.335C11.9195 620.817 13.2564 619.278 12.9001 615.027C12.4337 609.807 11.0967 600.792 10.1748 596.824C10.7992 595.961 11.1482 594.47 11.2216 592.368C11.5338 583.309 12.4263 576.704 13.7927 573.266C14.2421 572.159 14.7598 571.082 15.3426 570.04C15.4198 569.978 15.4675 569.889 15.5153 569.801L15.5483 569.787ZM10.4062 666.531C10.8837 666.531 12.2427 668.482 13.1169 669.76C13.7266 670.635 14.384 671.597 15.1075 672.523C12.9515 671.711 11.038 670.547 10.2336 669.25C10.0025 668.917 9.86758 668.527 9.8436 668.123C9.81961 667.718 9.90756 667.315 10.0977 666.958C10.2299 666.605 10.3548 666.546 10.3548 666.546L10.4062 666.531ZM130.099 664.026C129.405 664.628 126.72 665.521 124.223 666.296C125.74 664.147 127.099 663.042 129.111 663.64C129.438 663.739 129.752 663.873 130.048 664.041L130.099 664.026ZM16.6539 643.215C17.9272 644.594 19.3963 646.233 21.0614 648.134C21.796 648.975 22.3322 649.581 22.5673 649.824C27.2943 654.552 30.0306 661.315 28.9435 662.564C28.8847 662.634 28.5395 662.931 27.3935 662.601C26.7361 661.528 25.9537 660.396 25.0465 659.151C23.379 656.921 21.4507 654.548 19.4123 652.039C14.5126 646.007 9.44391 639.769 7.08221 634.475C5.53226 631.011 4.3165 628.792 3.4093 627.176C1.13577 623.043 0.999878 622.793 2.54984 614.017C3.15955 610.597 3.40564 605.821 3.65173 600.766C3.9382 595.135 4.23572 589.312 5.07681 585.337C6.09814 580.385 7.39798 575.495 8.97012 570.69C10.5862 565.999 12.4373 564.28 13.5539 564.651C14.2297 564.882 14.8321 565.797 15.1884 567.222C14.8284 567.923 14.4538 568.623 14.0645 569.324C13.4518 570.422 12.9073 571.557 12.4337 572.722C10.9645 576.37 10.072 582.964 9.74878 592.328C9.73224 593.101 9.64621 593.87 9.49167 594.628C8.84891 593.342 7.87561 592.644 7.10797 592.519C6.86276 592.467 6.60797 592.484 6.37195 592.569C6.13593 592.653 5.92792 592.801 5.771 592.997C5.48819 593.364 5.26413 594.058 5.80405 595.285C6.50558 596.909 7.72134 597.857 8.85626 597.706C9.71573 601.652 10.9608 609.921 11.4273 615.17C11.5595 616.772 11.5448 619.535 9.92139 620.001C9.84436 620.024 9.76581 620.041 9.68631 620.053C8.50363 618.425 7.3577 616.746 7.07486 615.898C6.93805 615.482 6.68839 615.112 6.35373 614.83C6.01907 614.548 5.61261 614.364 5.17969 614.3C4.82343 614.233 4.45566 614.267 4.11722 614.396C3.77878 614.526 3.48288 614.747 3.26236 615.035C2.97589 615.435 2.61227 616.324 3.3689 617.768C4.20999 619.406 6.67453 621.339 8.92603 621.552L9.84058 622.79C10.476 623.646 11.027 624.384 11.3832 624.909C13.5204 628.333 15.4118 631.904 17.0432 635.596C18.9604 640.004 18.3361 641.231 18.0973 641.499C17.9943 641.595 17.8727 641.669 17.74 641.716C17.6073 641.762 17.4663 641.781 17.326 641.771C12.6908 636.786 11.3061 636.007 10.4246 636.411C10.1528 636.533 9.71939 636.871 9.83691 637.767C10.1014 639.699 13.3592 642.274 15.8385 643.031C16.0883 643.116 16.3436 643.185 16.6024 643.237L16.6539 643.215ZM299.781 618.234C300.196 619.498 300.839 621.834 301.79 626.155C303.803 635.247 304.585 647.693 302.525 655.011C301.353 645.221 300.633 636.382 300.222 630.398C299.693 623.399 299.649 619.95 299.73 618.256L299.781 618.234ZM11.7321 638.333C12.5256 638.986 13.281 639.684 13.9947 640.423C13.1103 639.869 12.3276 639.167 11.6807 638.347L11.7321 638.333ZM132.476 627.014C132.432 627.936 131.264 630.688 128.935 633.157C128.169 633.967 127.455 634.826 126.798 635.728C127.006 633.07 128.212 630.588 130.173 628.781C131.469 627.536 132.16 627.139 132.476 627.014ZM4.84174 615.784H4.95926C5.11786 615.807 5.26666 615.875 5.38873 615.979C5.51083 616.083 5.60126 616.219 5.64978 616.372C5.90689 617.136 6.57538 618.231 7.5083 619.579C6.29254 618.976 5.15027 617.94 4.70584 617.081C4.37897 616.456 4.38632 616.063 4.48917 615.916C4.53354 615.87 4.58746 615.835 4.64713 615.812C4.70676 615.789 4.77069 615.779 4.83438 615.784H4.84174ZM299.451 517.048C299.539 517.353 299.634 517.661 299.744 517.963C301.948 524.127 308.758 529.546 318.429 532.837C323.435 534.553 327.89 538.686 331.471 542.021C333.249 543.671 334.777 545.096 336.092 545.948C338.663 547.635 339.978 549.376 340.04 551.114C340.158 554.445 335.824 557.763 332.004 560.687C331.005 561.451 330.064 562.156 329.216 562.891C311.847 577.409 278.647 603.72 278.313 603.984C275.533 606.034 272.561 608.143 269.439 610.299C270.512 600.09 272.179 590.594 274.581 583.563C276.996 583.214 279.308 582.35 281.361 581.032C289.721 575.587 293.717 559.618 295.594 547.175C297.066 537.284 297.673 527.284 297.408 517.287C297.754 517.221 298.103 517.173 298.448 517.136C298.793 517.099 299.113 517.055 299.451 517.048ZM6.97937 594.04C7.32095 594.176 7.97473 594.73 8.36038 595.836C8.39713 595.939 8.43756 596.064 8.48163 596.204C8.11435 596.115 7.57806 595.616 7.17773 594.683C7.07794 594.48 7.01096 594.263 6.97937 594.04ZM273.45 582.17C268.697 582.71 263.416 581.689 258.27 580.506C252.786 579.217 246.447 577.979 239.67 576.715C260.745 556.37 278.188 534.167 282.39 528.704C285.695 524.439 288.851 521.357 291.958 519.454C293.21 539.6 291.359 564.023 280.344 571.396C277.505 573.284 275.246 577.174 273.45 582.17ZM295.921 517.632C296.498 538.447 292.553 571.928 280.539 579.749C278.901 580.803 277.077 581.534 275.165 581.902C276.84 577.494 278.838 574.217 281.192 572.648C290.54 566.403 293.148 549.328 293.68 536.114C293.903 530.287 293.818 524.453 293.427 518.635C294.229 518.233 295.064 517.898 295.921 517.632ZM291.862 517.775C288.366 519.763 284.843 523.08 281.211 527.786C276.969 533.296 259.199 555.919 237.87 576.377L231.953 575.275C209.005 571.069 182.993 566.3 169.018 558.468C155.656 550.985 160.071 539.575 164.335 528.539C167.145 521.276 169.8 514.407 167.493 508.801C170.193 507.603 172.669 508.044 176.643 508.753C177.532 508.911 178.45 509.076 179.471 509.242C183.225 509.862 192.649 510.557 202.61 511.288C211.793 511.964 221.32 512.665 225.819 513.294C226.132 513.338 226.462 513.393 226.811 513.463C236.122 520.92 248.926 528.212 253.109 527.195C254.512 526.857 254.623 525.979 254.608 525.619C254.501 523.414 248.364 520.13 243.24 517.75C237.422 515.046 231.465 512.908 227.48 512.067C225.54 510.519 223.69 508.864 221.937 507.107C218.529 503.621 210.184 480.415 202.621 449.002C197.545 427.878 189.336 388.144 191.415 359.365C192.44 345.185 195.87 335.773 201.611 331.383C212.546 323.026 221.625 320.146 229.364 322.566C243.53 327.019 250.395 348.521 256.452 367.491C256.955 369.071 257.454 370.628 257.947 372.149C266.82 399.444 272.837 426.471 278.651 452.602C281.788 466.69 285.031 481.256 288.693 495.752C289.967 500.803 291.205 508.782 291.848 517.775H291.862ZM165.492 508.176C164.913 508.53 164.357 508.92 163.828 509.344C155.34 516.104 155.439 526.794 155.52 535.383C155.604 544.06 155.373 548.976 149.676 549.078C139.708 549.277 134.055 544.758 128.068 539.979C118.592 532.411 107.867 523.837 77.7493 533.216C68.7433 535.993 66.3228 534.773 62.9768 533.087C60.8612 532.018 58.4627 530.809 54.0589 530.339C46.9114 529.575 41.4461 527.033 40.4691 523.98C40.0284 522.625 40.572 521.247 42.0852 519.884C43.2348 518.855 44.2339 518.01 45.1227 517.312C46.5363 517.292 47.9477 517.192 49.3503 517.015C51.554 516.736 53.89 515.123 54.3638 513.977C54.4537 513.787 54.4907 513.576 54.4706 513.366C54.4506 513.157 54.3743 512.956 54.2499 512.787C53.8055 512.214 52.9681 512.254 52.3767 512.338C49.7102 512.665 47.7782 513.345 44.5644 515.832C40.223 515.854 36.0579 515.178 35.6429 513.929C35.5657 513.69 35.4335 512.353 40.6527 509.477C42.0683 508.667 43.429 507.765 44.726 506.777L45.9528 506.696H46.1952C52.5383 506.273 54.2278 505.862 54.4115 504.69C54.5768 503.647 53.2031 503.099 52.542 502.853C49.4494 501.567 46.9959 503.276 44.1935 505.333C40.785 505.524 36.4803 505.612 35.9808 504.352C35.7971 503.893 35.8926 502.379 40.7556 498.265C41.9228 497.307 43.1899 496.478 44.535 495.792C47.2309 496.468 50.6651 496.321 52.1563 495.601C53.1774 495.109 53.2986 494.341 53.0709 493.787C52.9264 493.456 52.7027 493.165 52.4196 492.941C52.1365 492.717 51.8027 492.566 51.4475 492.501C49.7653 492.097 46.9922 492.89 44.355 494.191C43.1393 493.823 42.4011 493.287 42.3166 492.721C42.2542 492.284 42.4855 491.02 46.0152 488.761C46.9812 488.133 48.4614 487.086 50.173 485.874C55.5061 482.094 63.5645 476.385 67.0096 475.635C87.3026 471.344 92.3528 472.891 108.459 488.368C112.411 492.152 122.276 494.081 128.168 495.23C129.453 495.447 130.727 495.727 131.984 496.072C132.575 496.285 134.228 496.634 136.729 497.174C141.632 498.213 149.838 499.955 156.346 502.074C160.897 503.514 163.898 505.528 165.477 508.176H165.492ZM411.229 256.166C415.196 256.143 419.14 256.776 422.901 258.039C440.164 263.943 449.567 282.425 447.469 306.278C447.201 309.136 446.801 311.983 446.272 314.727C439.661 349.369 414.986 441.584 402.41 475.404C387.487 515.446 374.786 537.242 362.438 543.943C353.538 548.788 348.267 542.8 342.167 535.861C339.041 532.312 335.809 528.638 331.802 526.045C326.2 522.43 322.506 520.376 319.534 518.723C316.181 516.857 313.757 515.509 310.488 512.981C307.99 511.049 305.713 507.838 303.612 503.738C309.048 494.83 329.668 456.172 332.915 427.015C333.932 417.882 333.234 405.66 332.496 392.722C330.883 364.372 328.871 329.091 343.698 306.024C356.458 286.187 371.036 271.408 385.852 263.3C394.465 258.587 403.17 256.177 411.214 256.177L411.229 256.166ZM253.102 525.622C252.997 525.674 252.886 525.712 252.771 525.736C250.873 526.199 245.514 524.013 239.119 520.174C236.181 518.411 233.242 516.431 230.528 514.414C234.631 515.695 238.642 517.253 242.535 519.076C249.84 522.478 252.83 524.847 253.087 525.633L253.102 525.622ZM299.127 515.542C298.848 515.542 298.569 515.575 298.29 515.604C298.011 515.634 297.666 515.681 297.353 515.737C297.217 512.43 296.968 509.572 296.641 507.317C291.381 470.669 271.162 390.47 262.406 364.696C256.125 346.294 247.912 329.664 247.02 327.875C246.307 326.159 241.213 316.307 214.364 303.996C210.322 302.144 205.952 301.119 201.508 300.98C206.676 295.257 210.874 289.901 213.174 285.694C223.605 266.591 228.728 237.915 227.234 207.042C226.851 198.726 225.92 190.445 224.446 182.252C227.339 185.065 230.45 187.644 233.749 189.967C234.991 191.014 234.366 192.447 233.621 193.464C231.388 196.558 232.041 202.259 232.736 208.291C232.814 208.96 232.89 209.629 232.963 210.301C230.484 218.416 229.213 235.781 229.081 243.532C228.982 249.542 225.511 259.92 222.448 269.078C220.358 275.324 218.554 280.72 218.231 283.575C216.395 299.165 230.165 309.97 244.445 319.697C247.938 322.089 250.744 322.636 252.79 321.303C259.335 317.056 255.225 294.445 253.017 282.296C252.613 280.092 252.283 278.347 252.162 277.311C251.427 271.926 251.6 269.383 252.757 268.237C254.41 266.602 259.019 267.271 265.998 268.289C271.558 269.078 277.42 266.86 284.157 264.196C283.07 265.813 281.9 267.373 280.653 268.869C279.431 270.241 278.127 271.538 276.748 272.752C272.594 276.576 267.426 281.334 265.583 290.577C259.386 321.409 268.635 365.151 271.621 377.843C274.078 388.354 276.616 401.377 279.301 415.164C282.548 431.82 285.912 449.042 289.67 464.835C293.607 481.271 297.408 494.661 301.889 503.727C299.396 507.824 298.492 511.795 299.113 515.553L299.127 515.542ZM52.6412 513.804C51.6609 514.697 50.4445 515.289 49.1372 515.509C48.5495 515.59 47.9362 515.656 47.3007 515.703C48.8604 514.639 50.6654 513.989 52.5457 513.815L52.6412 513.804ZM52.4869 504.429C51.3152 504.756 48.7185 504.977 47.0656 505.098C48.7662 503.996 50.2574 503.492 51.9617 504.198C52.1637 504.297 52.3363 504.374 52.4722 504.44L52.4869 504.429ZM51.5907 494.165C51.0251 494.532 49.1005 494.782 47.0436 494.624C48.7148 494.003 50.2133 493.706 51.1022 493.915C51.2822 493.954 51.4469 494.045 51.576 494.176L51.5907 494.165ZM146.062 407.791C149.808 411.395 152.306 414.653 152.471 417.996C152.574 420.373 151.447 422.746 149.022 425.252C146.932 427.415 146.11 427.257 145.904 427.154C145.305 426.861 144.391 425.207 144.982 417.452C145.188 414.616 145.57 411.343 146.047 407.802L146.062 407.791ZM151.362 357.062C150.293 360.391 149.69 363.853 149.57 367.348C149.309 375.356 147.733 386.014 146.187 396.322C145.742 399.316 145.327 402.126 144.96 404.749C143.597 403.518 142.128 402.247 140.593 400.917C138.308 398.937 135.947 396.876 133.563 394.672C125.181 386.836 120.998 378.81 120.778 370.14C120.72 366.309 121.342 362.498 122.614 358.884C129.192 358.748 136.27 358.517 144.317 358.057C146.688 357.915 149.044 357.582 151.362 357.062ZM49.813 362.157C45.905 368.167 42.2247 373.711 38.9779 378.031C33.4024 385.451 31.3088 386.201 30.5522 385.984C30.2253 385.892 29.4503 385.305 29.3806 381.881C29.1345 368.917 37.1084 364.262 49.813 362.142V362.157ZM106.196 357.583C95.6401 357.683 85.5506 357.804 73.3381 358.568L70.565 358.741C64.2329 359.13 58.2461 359.501 52.8763 360.21L53.9781 358.517C59.9283 349.332 66.0988 339.832 71.1306 333.602C80.9374 321.527 82.3735 293.192 83.7618 265.802C84.7021 247.209 85.6754 227.985 89.2382 214.095C94.608 193.119 102.6 172.334 111.742 155.575C122.882 135.157 135.388 121.476 147.913 116.017C164.03 109.037 179.985 113.119 188.65 120.278C194.016 124.712 196.576 130.252 195.496 135.09C194.232 140.759 188.15 145.263 178.354 147.775C160.221 152.456 150.921 146.673 144.13 142.43C140.251 140.013 137.188 138.106 133.872 139.26C127.462 141.486 120.965 155.082 104.903 199.875C94.9643 227.6 97.0762 236.978 101.704 257.481C102.439 260.673 103.236 264.288 104.058 268.23C104.249 269.152 104.426 270.107 104.551 271.088C101.91 275.1 99.6142 281.514 97.91 287.252C94.4501 298.82 92.1361 307.967 91.0416 314.437C89.7156 322.269 90.5714 323.937 91.3281 324.513C91.6366 324.749 92.2941 325.053 93.227 324.462C95.9302 322.754 100.125 313.658 102.982 303.306C104.907 296.326 107.684 283.468 106.115 271.408C107.375 269.593 108.569 268.63 109.634 268.63C110.684 268.63 112.756 269.795 114.82 277.363C117.615 287.572 118.181 302.861 118.592 314.025C118.647 315.495 118.702 316.924 118.754 318.254C119.455 336.438 116.55 347.738 109.329 354.898C108.351 355.863 107.304 356.755 106.196 357.569V357.583ZM184.723 328.676C185.858 328.676 186.633 328.948 186.868 329.469C187.632 331.152 184.51 336.199 173.212 344.898C167.093 349.615 160.401 353.035 153.716 354.924C159.96 339.403 175.486 330.329 182.703 328.9C183.367 328.757 184.044 328.677 184.723 328.661V328.676ZM198.015 302.556C185.201 316.277 167.677 331.46 157.933 337.614C152.475 341.067 151.222 340.204 151.024 339.994C150.315 339.259 150.877 335.869 155.329 329.657C161.43 321.145 170.549 313.125 179.728 308.188C184.631 305.532 191.011 303.019 198.015 302.542V302.556ZM104.822 273.505C105.524 281.293 104.631 290.588 102.215 300.282C99.5187 311.094 95.787 319.194 93.462 322.144C92.7275 323.077 92.3234 323.246 92.2133 323.283C91.9708 322.967 89.9324 319.124 99.3498 287.667C101.153 281.587 103.03 276.764 104.822 273.491V273.505ZM256.481 265.739C254.277 265.739 252.716 266.132 251.666 267.172C249.877 268.946 249.932 272.315 250.637 277.517C250.777 278.586 251.097 280.342 251.504 282.572C253.341 292.678 257.642 316.343 251.938 320.043C250.45 321.009 248.206 320.472 245.26 318.456C231.362 308.989 217.937 298.512 219.693 283.751C219.998 281.051 221.779 275.724 223.84 269.556C226.94 260.299 230.451 249.803 230.554 243.562C230.664 237.041 231.582 223.669 233.349 214.907C233.541 217.303 233.461 219.712 233.11 222.089C230.829 235.189 235.024 248.389 238.205 253.631C241.003 258.157 246.168 262.293 249.11 260.978C251.251 260.038 251.563 256.82 250.039 251.427C249.194 248.436 248.026 244.917 246.895 241.508C245.036 235.906 243.115 230.12 242.693 226.847C240.357 209.261 238.524 205.54 236.497 205.337C235.608 205.253 234.833 205.859 234.102 207.27C233.481 201.848 233 196.826 234.804 194.335C236.291 192.307 236.302 190.294 234.851 188.949L234.87 188.92C230.926 186.158 227.252 183.029 223.899 179.574C223.193 176.099 222.393 172.771 221.5 169.63C218.679 159.711 215.039 152.055 210.896 147.291C209.976 144.019 208.88 140.8 207.613 137.647C205.104 131.123 202.941 125.491 202.941 112.938C202.941 109.478 202.636 105.661 202.316 101.616C201.703 93.9018 201.068 85.941 202.489 79.6702C203.264 76.3162 203.558 73.7373 203.481 71.6837C204.43 70.5443 205.49 69.5009 206.643 68.5685C209.122 69.6706 211.752 69.9204 214.547 68.495C215.168 68.1791 215.833 67.8301 216.542 67.4591C223.153 63.9765 233.191 58.7122 248.29 57.6762C271.771 56.0745 293.122 69.0387 302.69 90.7057C304.46 94.71 305.996 96.6056 307.656 96.8554C309.459 97.1199 310.862 95.4961 312.482 93.6152C314.576 91.1796 316.948 88.4207 320.684 88.9093C322.887 89.1959 325.609 91.9401 327.662 95.8892C330.696 101.789 332.437 110.889 328.272 118.732C324.886 125.117 321.418 128.526 318.249 128.592C317.605 128.605 316.966 128.48 316.375 128.224C315.457 123.64 314.106 119.893 311.821 119.264C311.654 119.21 311.479 119.189 311.304 119.203C311.129 119.218 310.959 119.267 310.804 119.349C310.649 119.43 310.511 119.542 310.4 119.678C310.289 119.814 310.206 119.97 310.157 120.139C309.511 121.976 311.413 127.155 315.024 129.231C315.325 130.808 315.604 132.601 315.861 134.609C315.946 135.241 316.004 135.711 316.052 135.943C318.752 150.505 313.83 168.689 303.513 182.263C294.896 193.6 283.631 200.411 271.794 201.447C252.129 203.177 249.356 200.463 246.142 197.322C245.639 196.829 245.117 196.319 244.518 195.808L244.225 195.547C244.173 194.985 244.144 194.445 244.118 193.938C244.011 191.808 243.92 189.963 242.238 188.894C240.456 187.792 239.611 188.16 239.215 188.711C238.15 190.147 240.144 193.681 242.785 196.256C243.196 199.654 244.651 203.971 251.317 207.887C261.234 213.765 271.268 213.636 281.96 207.549C291.168 202.299 299.678 193.262 307.186 185.29C308.181 184.232 309.165 183.186 310.124 182.164C313.951 178.123 318.249 175.835 322.858 174.887C316.644 195.459 299.318 240.457 285.567 261.977L284.281 262.484C277.442 265.195 271.536 267.532 266.178 266.768C262.046 266.187 258.88 265.724 256.481 265.724V265.739ZM316.049 255.137C304.732 255.137 295.539 258.149 287.899 261.085C301.728 238.521 318.62 194.419 324.515 174.626C330.219 173.851 336.371 174.993 342.696 177.344C343.335 179.234 343.541 181.243 343.298 183.222C342.967 185.794 342.563 189.394 342.053 193.556C340.125 209.871 337.208 234.524 334.656 244.399C332.209 253.914 322.645 255.236 317.172 255.166L316.049 255.137ZM236.346 206.836C236.39 206.836 237.488 207.02 238.954 213.544C239.924 217.853 240.695 223.312 241.191 227.045C241.631 230.454 243.49 236.056 245.459 241.986C246.583 245.376 247.743 248.885 248.581 251.838C249.796 256.144 249.763 259.049 248.493 259.608C246.785 260.343 242.289 257.382 239.475 252.834C236.412 247.783 232.372 235.031 234.579 222.343C235.208 218.698 234.895 214.562 234.451 210.444C234.484 210.337 234.517 210.234 234.554 210.132C235.626 206.928 236.342 206.836 236.357 206.836H236.346ZM240.386 189.714C240.752 189.806 241.096 189.966 241.404 190.184C242.351 190.79 242.48 191.929 242.579 193.857C241.073 192.028 240.35 190.305 240.401 189.714H240.386ZM211.771 150.916C215.91 156.96 219.396 166.191 221.871 177.389C220.434 175.757 219.116 174.025 217.926 172.205C214.591 167.029 213.692 161.739 212.74 156.144C212.461 154.517 212.175 152.838 211.826 151.174L211.771 150.916ZM330.906 166.955C331.384 166.959 331.862 167.009 332.331 167.106C336.04 167.867 339.923 171.232 341.954 175.526C335.658 173.322 330.013 172.517 324.955 173.057C325.04 172.771 325.117 172.488 325.194 172.212C326.178 168.778 328.18 166.955 330.92 166.955H330.906ZM311.512 120.774C312.655 121.23 313.665 123.324 314.528 127.019C313.845 126.363 313.256 125.615 312.78 124.797C311.714 122.979 311.421 121.34 311.527 120.774H311.512ZM201.946 71.2098C195.22 79.7657 195.68 91.4992 197.424 103.17C198.915 113.119 197.424 116.182 196.286 116.428C194.298 116.851 189.759 111.183 186.398 99.4049C185.77 97.2411 185.035 95.0406 184.257 92.7079C181.59 84.7398 178.571 75.7063 179.956 66.897C180.918 60.8833 182.567 57.4411 184.863 56.6623C186.872 55.979 189.638 57.2941 193.083 60.5637C194.274 61.6672 195.53 62.6988 196.844 63.6532C199.617 65.7435 201.644 67.2607 201.96 71.2098H201.946ZM251.111 1.59466C269.182 1.59466 286.823 7.59002 300.255 19.1619C318.054 34.492 324.423 55.7475 317.734 77.477C316.302 82.1829 313.375 85.4598 310.095 86.0292C307.391 86.4994 304.743 85.1035 302.426 81.9882C301.441 80.6694 300.45 79.0787 299.3 77.2125C294.32 69.2224 287.499 58.2787 271.536 53.5617C253.741 48.3121 224.622 55.3985 208.594 65.3173C207.859 65.7912 207.124 66.2798 206.46 66.7868C203.804 65.3614 201.248 62.8303 198.746 60.3432C197.927 59.535 197.152 58.7673 196.374 58.0399C191.364 53.3597 184.988 46.332 187.228 39.3889C190.236 29.9073 200.194 17.0312 215.657 9.63255C226.725 4.33509 238.841 1.58837 251.111 1.59466Z" fill="#A6D6CC"/>
</g>
<defs>
<clipPath id="clip0_1918_383">
<rect width="472" height="849" fill="white" transform="matrix(-1 0 0 1 472 0)"/>
</clipPath>
</defs>
</svg>
