<svg width="19" height="18" viewBox="0 0 19 18" fill="none" xmlns="http://www.w3.org/2000/svg">
    <g clip-path="url(#clip0_1918_3835)">
        <path
            d="M9.5 12.375C8.91887 12.375 8.33773 12.1844 7.84203 11.7981L0.5 6.08906V14.0625C0.5 14.9941 1.25551 15.75 2.1875 15.75H16.8125C17.7445 15.75 18.5 14.9945 18.5 14.0625V6.08906L11.1594 11.802C10.6637 12.1852 10.0801 12.375 9.5 12.375ZM1.0727 5.1082L8.53285 10.9125C9.10203 11.3555 9.89937 11.3555 10.4686 10.9125L17.9287 5.1082C18.2574 4.82695 18.5 4.39453 18.5 3.9375C18.5 3.00551 17.7441 2.25 16.8125 2.25H2.1875C1.25551 2.25 0.5 3.00551 0.5 3.9375C0.5 4.39453 0.711289 4.82695 1.0727 5.1082Z"
            fill="#C9A9D1" />
    </g>
    <defs>
        <clipPath id="clip0_1918_3835">
            <rect width="18" height="18" fill="white" transform="translate(0.5)" />
        </clipPath>
    </defs>
</svg>
    