<svg width="27" height="27" viewBox="0 0 27 27" fill="none" xmlns="http://www.w3.org/2000/svg">
<path d="M13.0916 3.27344H8.72798C5.71552 3.27344 3.27344 5.71552 3.27344 8.72798V17.4553C3.27344 20.4677 5.71552 22.9098 8.72798 22.9098H17.4553C20.4677 22.9098 22.9098 20.4677 22.9098 17.4553V8.72798C22.9098 5.71552 20.4677 3.27344 17.4553 3.27344H13.0916Z" stroke="#3AB8B7" stroke-width="2" stroke-linecap="round" stroke-linejoin="round"/>
<path d="M13.0902 8.72852C15.5002 8.72852 17.4538 10.6822 17.4538 13.0922C17.4538 15.5021 15.5002 17.4558 13.0902 17.4558C10.6802 17.4558 8.72656 15.5021 8.72656 13.0922C8.72656 10.6822 10.6802 8.72852 13.0902 8.72852Z" stroke="#3AB8B7" stroke-width="2" stroke-linecap="round" stroke-linejoin="round"/>
<path d="M18.5426 9.27273C19.4464 9.27273 20.179 8.5401 20.179 7.63636C20.179 6.73262 19.4464 6 18.5426 6C17.6389 6 16.9062 6.73262 16.9062 7.63636C16.9062 8.5401 17.6389 9.27273 18.5426 9.27273Z" fill="#3AB8B7"/>
</svg>
