<svg width="470" height="490" viewBox="0 0 470 490" fill="none" xmlns="http://www.w3.org/2000/svg">
<g clip-path="url(#clip0_1918_510)">
<path d="M412.338 486.851C414.045 485.179 415.428 483.205 416.417 481.028C420.691 471.919 419.721 458.625 414.3 452.003C411.387 448.446 407.564 447.133 403.241 448.208C331.671 466.018 312.403 456.623 265.851 433.922C251.34 426.845 234.893 418.825 213.368 409.831C200.29 404.364 189.137 400.62 179.299 397.319C161.227 391.255 149.291 387.248 143.602 378.215C142.344 376.195 141.399 373.995 140.799 371.691C141.42 371.305 142.063 370.955 142.725 370.644C148.477 367.933 155.441 368.077 163.45 371.068C181.462 377.783 205.232 390.014 210.614 392.92L212.088 393.718C239.779 408.68 297.398 439.811 325.662 444.52C342.931 447.398 359.431 446.688 373.286 445.613C374.223 445.54 375.164 445.532 376.102 445.588C375.182 445.818 374.409 446.18 373.944 446.824C373.527 447.401 373.408 448.118 373.59 448.955C373.87 450.27 374.795 451.17 376.263 451.557C379.369 452.379 384.232 450.686 385.523 449.228C385.734 448.997 385.868 448.706 385.906 448.395C385.943 448.084 385.883 447.77 385.733 447.495C385.447 446.923 384.755 446.342 383.772 445.83L384.002 445.714C385.232 445.067 386.494 444.484 387.782 443.966C388.503 443.671 389.124 443.417 388.949 442.683C388.774 441.95 388.199 441.991 387.053 442.086C386.46 442.137 385.56 442.208 384.354 442.275C379.675 442.54 376.12 441.772 375.301 440.317C374.873 439.558 375.14 438.471 376.09 437.071C377.834 434.534 382.456 432.919 389.825 432.271C393.683 431.976 397.554 431.889 401.421 432.012C399.939 433.796 398.43 435.622 396.875 437.516C391.328 444.268 390.734 445.844 391.505 446.824C392.425 448.005 394.586 446.958 399.787 444.43C402.318 443.193 405.491 441.661 408.808 440.296C410.693 439.561 412.483 438.604 414.141 437.445C414.951 436.903 415.867 436.291 417.263 435.482C419.657 434.086 422.137 432.844 424.688 431.763C426.344 431.044 427.543 430.522 428.599 429.687C429.655 428.852 429.722 427.747 429.765 426.954C429.823 425.893 429.857 425.254 432.464 424.952C433.74 424.808 435.024 424.739 436.308 424.746C438.536 424.73 439.879 424.721 442.465 422.737C444.453 421.215 444.66 419.134 444.844 417.298C445.021 415.51 445.162 414.098 446.685 413.166C447.922 412.407 448.971 412.474 450.08 412.537C451.859 412.643 453.874 412.767 455.581 408.908C455.993 407.985 456.601 406.659 457.302 405.127C460.795 397.515 467.292 383.363 468.5 376.791C469.91 369.117 471.044 358.82 468.433 353.36C467.101 350.58 464.425 349.318 462.414 348.746C459.221 347.839 455.498 348.089 453.561 349.337C453.037 349.676 452.234 350.093 451.304 350.575C450.287 351.101 449.096 351.729 447.885 352.437C449.054 343.03 449.3 332.467 448.712 320.115C448.065 306.473 444.308 289.98 438.128 273.678C431.861 257.129 423.634 242.228 414.935 231.714C411.371 227.409 407.449 223.07 403.662 218.874C396.047 210.45 388.855 202.496 384.479 194.951C383.933 194.008 383.439 193.078 382.974 192.162C383.296 192.236 383.634 192.185 383.92 192.019C384.75 191.542 384.633 190.511 384.483 189.203C384.451 188.937 384.419 188.651 384.391 188.354C384.23 186.481 385.937 183.6 388.843 180.841C390.891 178.899 393.214 177.341 395.262 176.493C390.891 180.774 387.143 184.472 386.575 186.781C385.27 192.252 388.438 202.342 395.483 205.082C395.976 205.281 396.515 205.337 397.039 205.245C397.562 205.153 398.05 204.916 398.446 204.561C402.656 201.115 403.903 185 402.765 178.232C402.419 176.188 401.37 174.85 399.785 174.347C401.536 172.58 403.192 170.832 404.548 169.18C414.132 157.533 418.812 134.664 415.922 113.572C414.04 99.835 409.296 89.683 402.56 84.9819C397.542 81.4687 392.004 71.1807 390.122 62.0621C392.062 65.3515 393.953 68.8762 395.644 72.0157C397.372 75.2267 398.865 77.9994 400.015 79.8286C404.801 87.3809 408.528 90.9494 411.415 90.7326C412.832 90.6265 413.946 89.66 414.751 87.8607C417.348 81.9578 419.739 70.0734 421.112 60.9203C421.752 56.6482 420.192 53.1858 416.626 50.9113C413.635 49.0083 409.404 48.0833 404.729 48.3093C400.222 48.54 395.895 49.8226 392.851 51.864C390.838 53.2135 389.443 54.8628 388.71 56.6667C387.76 55.2111 386.729 53.8103 385.622 52.4707C383.112 49.4996 379.208 47.9864 374.627 48.2009C368.303 48.5031 361.617 51.9909 358.364 56.6805C356.063 60.0184 348.951 63.4831 339.369 65.9444C329.577 68.4587 318.801 69.4552 310.546 68.6086C292.578 66.7633 261.981 53.7648 250.91 46.2333C233.006 34.0537 222.874 29.6847 217.028 31.6224C212.555 33.1056 210.857 37.989 208.89 43.6428C208.069 46.0026 207.22 48.4408 206.095 50.939C200.428 63.5384 180.817 87.8745 170.025 93.8813C166.556 95.812 163.215 97.7358 159.985 99.5951C151.431 104.52 144.046 108.771 137.712 111.23C137.045 111.5 136.351 111.693 135.641 111.807C137.88 108.495 140.898 105.297 144.858 102.229C147.004 100.564 150.354 98.1672 154.231 95.3922C169.438 84.509 192.422 68.0596 194.442 59.4809C195.211 56.2376 195.632 52.2354 196.211 46.6969C196.596 43.0269 197.03 38.8679 197.679 33.8715C199.382 20.6331 192.158 10.6218 176.768 4.92418C162.292 -0.436679 141.372 -1.48625 120.799 2.11918C100.07 5.7523 84.1289 13.3853 78.154 22.5408C61.4096 48.1894 37.2295 116.487 21.2282 161.681C16.9788 173.676 13.3115 184.043 10.5185 191.526C4.60114 207.38 -0.651367 222.812 0.0710449 237.291C0.455261 244.987 2.4776 251.787 6.25763 258.082C10.4149 265.002 16.5762 271.145 25.0933 276.84C43.1997 288.935 80.1648 299.119 134.96 307.112C138.989 307.705 142.976 308.552 146.898 309.649C145.58 317.054 144.287 323.441 143.268 327.607C138.188 348.294 136.757 361.59 138.897 370.96C134.525 374.03 131.134 378.849 128.967 385.093C124.287 398.539 120.636 426.038 117.413 450.3C116.108 460.138 114.882 469.43 113.66 477.153C113.374 478.719 112.97 480.261 112.453 481.766C111.597 484.468 110.858 486.8 111.992 488.348C112.706 489.319 114.04 489.789 116.076 489.762L406.733 488.532C405.107 489.142 403.385 489.451 401.649 489.443L275.162 489.999M409.786 486.86L116.074 488.085C114.624 488.099 113.704 487.854 113.334 487.344C112.694 486.479 113.345 484.426 114.024 482.253C114.484 480.779 115.02 479.107 115.289 477.409C116.506 469.668 117.742 460.365 119.049 450.517C122.27 426.333 125.9 398.925 130.524 385.635C132.489 379.975 135.501 375.569 139.338 372.683C139.985 374.947 140.946 377.108 142.194 379.103C148.196 388.634 160.355 392.712 178.774 398.892C188.587 402.186 199.711 405.919 212.733 411.365C234.214 420.34 250.639 428.349 265.128 435.415C288.312 446.718 305.061 454.888 324.868 457.889C345.063 460.948 368.622 458.535 403.643 449.816C408.263 448.662 411.293 450.939 413.023 453.045C418.085 459.227 418.952 471.714 414.921 480.311C413.865 482.569 412.241 485.054 409.786 486.862V486.86ZM384.235 448.183C383.262 449.154 379.143 450.598 376.691 449.95C375.564 449.652 375.31 449.038 375.216 448.605C375.099 448.063 375.244 447.862 375.292 447.795C375.741 447.172 377.505 446.988 379.063 446.824C379.794 446.748 380.54 446.669 381.26 446.549C382.928 447.11 384.016 447.774 384.235 448.185V448.183ZM449.167 410.832C447.987 410.805 446.825 411.121 445.819 411.741C443.599 413.104 443.385 415.24 443.197 417.125C443.026 418.841 442.879 420.324 441.462 421.408C439.315 423.055 438.434 423.062 436.299 423.076C434.956 423.07 433.613 423.141 432.278 423.291C428.597 423.72 428.203 425.219 428.113 426.852C428.072 427.602 428.028 428.006 427.568 428.382C426.689 429.074 425.578 429.567 424.037 430.239C421.428 431.343 418.892 432.613 416.444 434.042C415.004 434.877 414.063 435.505 413.223 436.061C411.658 437.159 409.965 438.064 408.183 438.755C404.817 440.139 401.628 441.687 399.067 442.933C396.737 444.065 394.141 445.327 393.019 445.597C393.359 444.817 394.544 442.962 398.152 438.57C399.992 436.324 401.78 434.169 403.524 432.075C404.796 432.119 405.951 432.172 406.943 432.215C408.76 432.298 409.959 432.352 410.566 432.315C415.973 431.973 420.586 428.843 421.92 426.013C422.484 424.815 422.451 423.681 421.828 422.815C420.827 421.431 418.531 420.94 415 421.374C414.079 421.484 413.097 421.644 412.075 421.835C415.023 418.301 417.788 414.954 420.376 411.722C428.544 408.751 436.348 405.383 441.119 400.172C443.036 398.08 449.726 390.715 455.365 383.746C464.036 373.031 463.947 371.087 463.187 370.104C462.29 368.951 460.256 369.843 458.386 370.865C456.727 371.794 454.865 372.294 452.965 372.321C451.628 372.383 450.293 372.17 449.042 371.694C447.79 371.217 446.65 370.489 445.691 369.553C445.338 369.209 445.011 368.841 444.711 368.45C445.986 363.883 446.953 359.234 447.605 354.536C449.107 353.563 450.708 352.734 452.064 352.031C453.032 351.53 453.867 351.097 454.459 350.716C455.793 349.856 458.963 349.475 461.961 350.326C463.645 350.804 465.872 351.839 466.94 354.061C469.487 359.382 467.989 370.388 466.871 376.473C465.702 382.84 459.26 396.874 455.798 404.415C455.094 405.951 454.484 407.28 454.07 408.216C452.825 411.019 451.829 410.959 450.179 410.862C449.862 410.853 449.524 410.834 449.167 410.834V410.832ZM374.818 443.892C374.267 443.892 373.716 443.914 373.164 443.957C359.399 445.022 343.025 445.728 325.931 442.879C297.938 438.218 240.483 407.173 212.873 392.253L211.396 391.455C205.996 388.537 182.129 376.259 164.027 369.509C155.586 366.356 148.182 366.231 142.019 369.138C141.467 369.398 140.926 369.684 140.397 369.991C139.789 367.052 139.541 363.724 139.631 359.913C139.819 351.945 141.485 341.805 144.874 327.999C145.911 323.757 147.202 317.421 148.516 310.113C152.593 311.331 155.676 312.556 157.272 313.319C160.42 314.832 164.924 319.813 169.282 324.622C172.705 328.408 176.246 332.32 179.354 334.841C188.985 342.605 204.554 353.237 207.294 354.91C208.154 355.443 211.467 357.56 215.661 360.243C224.588 365.957 238.079 374.586 243.73 378.005C246.187 379.497 254.971 382.78 256.784 380.311C257.994 378.669 255.633 376.215 253.452 374.259C249.799 370.992 243.136 365.56 237.235 360.845C245.72 367.419 260.932 378.814 261.942 379.377C262.041 379.433 262.335 379.626 262.676 379.85C266.842 382.597 272.799 386.138 276.342 385.179C278.532 384.59 279.333 383.262 279.62 382.254C280.469 379.255 278.04 375.255 276.199 373.287C275.564 372.595 274.863 371.887 274.129 371.165C275.689 372.469 276.735 373.304 277.094 373.509C277.453 373.714 278.118 374.226 278.896 374.824C281.047 376.478 284.3 378.976 287.088 379.753C287.715 379.942 288.381 379.955 289.014 379.793C289.648 379.63 290.225 379.297 290.684 378.831C292.633 376.985 293.351 373.064 292.799 370.593C292.295 368.286 290.268 363.32 287.233 362.686C286.226 362.478 284.703 362.672 283.166 364.801C281.923 366.52 280.529 368.213 278.353 368.413C275.132 368.706 272.334 365.216 269.967 361.92C268.66 360.074 266.766 357.138 264.763 354.022C262.02 349.756 259.183 345.348 257.449 343.143C256.054 341.371 254.688 339.54 253.374 337.768C248.573 331.309 243.608 324.641 236.425 320.089C231.952 317.268 229.047 312.819 228.658 311.324C229.118 311.513 230.156 312.085 232.13 313.815C237.308 318.35 245.738 327.349 251.315 333.302C253.445 335.577 255.13 337.374 256.045 338.294C258.666 340.924 260.741 344.695 262.745 348.345C263.927 350.492 265.147 352.711 266.454 354.635C270.121 360.077 274.002 365.246 277.529 366.12C278.981 366.485 280.221 366.321 281.21 365.629C282.538 364.706 283.334 362.939 283.644 360.22C284.838 349.452 271.849 332.294 261.413 318.507C256.726 312.318 252.67 306.973 250.685 303.246C246.829 296.062 229.493 277.341 221.997 270.951C221.553 270.575 220.916 270.029 220.299 269.489C222.784 270.594 226.364 272.374 227.873 273.126C232.18 275.286 235.417 277.124 236.993 278.303C241.825 281.869 253.788 285.714 258.751 286.24C264.404 286.845 268.14 286.626 271.635 285.488C275.06 284.374 276.802 282.757 276.811 280.681C276.825 278.01 273.777 274.84 267.751 271.263C263.242 268.587 258.473 266.515 257.242 266.105C218.56 253.173 213.835 253.978 199.81 256.373C193.556 257.441 184.993 258.91 170.398 259.512C164.036 259.777 160.523 259.533 155.034 258.52C155.169 254.613 155.087 251.383 154.719 249.153C154.597 248.405 154.488 247.72 154.373 247.076C153.639 242.678 153.271 240.47 153.076 235.907C152.326 218.653 188.065 212.402 222.628 206.353C233.975 204.37 245.711 202.316 255.827 199.894C263.44 198.077 272.336 195.143 281.758 192.035C308.071 183.355 340.821 172.55 364.727 180.502C368.535 181.77 374.938 186.61 378.761 189.498L379.537 190.082C379.87 190.333 380.179 190.561 380.457 190.762C381.225 192.377 382.045 194.019 383.038 195.733C387.502 203.424 394.751 211.444 402.426 219.938C406.206 224.12 410.115 228.445 413.656 232.722C431.054 253.771 445.721 292.171 447.048 320.147C447.669 333.196 447.317 344.084 446.029 353.572C443.199 355.539 440.721 358.118 440.721 361.449C440.714 364.033 441.465 366.561 442.879 368.72C438.345 384.374 430.419 396.426 419.366 410.288C417.705 410.887 416.03 411.471 414.367 412.052C405.679 415.086 397.473 417.953 393.058 422.386C389.968 425.482 388.917 427.38 389.664 428.545C390.325 429.581 391.977 429.537 395.025 428.409C397.084 427.646 402.366 425.853 407.656 424.499L407.127 425.131C405.7 426.838 404.251 428.571 402.771 430.345C393.125 430.029 378.738 430.222 374.721 436.091C373.385 438.054 373.093 439.735 373.856 441.092C375.4 443.834 380.867 444.026 383.768 443.924C383.593 444.012 383.413 444.107 383.229 444.204C382.63 444.495 381.991 444.699 381.334 444.808C379.218 444.188 377.023 443.88 374.818 443.894V443.892ZM417.266 422.885C419.61 422.885 420.305 423.547 420.487 423.789C420.813 424.25 420.632 424.864 420.425 425.307C419.32 427.648 415.197 430.361 410.465 430.658C409.947 430.691 408.654 430.633 407.014 430.559L404.865 430.465L408.397 426.241L410.361 423.893C412.071 423.51 413.72 423.201 415.193 423.023C415.88 422.936 416.573 422.89 417.266 422.885ZM409.443 422.398C404.365 423.618 399.358 425.119 394.445 426.894C392.223 427.717 391.362 427.701 391.095 427.655C391.16 427.334 391.585 426.246 394.224 423.602C398.366 419.436 406.404 416.631 414.908 413.662L417.374 412.797C414.891 415.87 412.248 419.058 409.457 422.398H409.443ZM461.823 371.232C461.738 371.91 460.79 374.462 453.619 383.264C448.097 390.041 441.717 397.065 439.893 399.056C435.853 403.464 429.376 406.544 422.362 409.206C429.864 399.644 435.766 390.927 440.176 380.99C441.713 377.529 443.037 373.977 444.14 370.353C444.264 370.487 444.391 370.616 444.522 370.743C446.795 372.955 449.724 374.067 453 373.973C455.161 373.944 457.28 373.375 459.166 372.316C460.79 371.451 461.535 371.264 461.837 371.232H461.823ZM222.46 331.584C222.261 331.573 222.064 331.626 221.898 331.736C221.759 331.817 221.643 331.935 221.564 332.076C221.485 332.217 221.446 332.377 221.45 332.539C221.45 333.083 221.468 333.556 227.04 336.601C227.967 337.083 228.867 337.614 229.737 338.193C232.535 340.269 236.832 343.383 237.359 343.75C237.75 344.026 245.954 350.421 253.192 356.063C256.922 358.97 260.568 361.811 263.184 363.846C265.052 365.313 271.237 370.413 274.964 374.457C276.602 376.208 278.626 379.652 278.005 381.839C277.755 382.72 277.062 383.301 275.889 383.617C273.738 384.198 269.592 382.478 263.564 378.505C263.134 378.222 262.874 378.044 262.719 377.965C261.424 377.193 236.54 358.536 233.057 355.452C232.47 354.928 231.794 354.298 231.009 353.551C227.804 350.531 223.417 346.4 219.046 344.128C216.783 343.041 214.421 342.176 211.992 341.547C210.257 341.132 209.001 340.869 208.131 340.742C207.36 340.629 206.304 340.474 206.026 341.325C205.732 342.22 206.601 342.728 208.801 343.757C210.239 344.43 212.125 345.231 213.789 345.936L214.614 346.289C217.799 347.643 219.358 348.935 221.337 350.568C222.301 351.364 223.394 352.268 224.788 353.272C227.135 354.963 245.301 369.269 252.318 375.539C255.636 378.508 255.417 379.366 255.415 379.373C255.307 379.513 254.225 379.896 250.977 379.094C248.646 378.515 246.005 377.497 244.556 376.616C238.93 373.207 225.46 364.582 216.529 358.875C212.157 356.081 209.012 354.063 208.136 353.526C205.414 351.851 189.947 341.3 180.371 333.568C177.364 331.129 173.867 327.263 170.478 323.526C165.81 318.364 161.4 313.488 157.956 311.834C156.292 311.038 153.05 309.758 148.778 308.484C151.539 292.854 154.3 273.306 154.935 260.241C160.339 261.224 164.045 261.487 170.439 261.221C185.138 260.606 193.763 259.134 200.06 258.059C213.779 255.718 218.401 254.929 256.689 267.726C260.216 268.91 275.148 276.185 275.127 280.723C275.127 282.001 273.765 283.089 271.096 283.952C267.832 285.013 264.293 285.209 258.889 284.633C254.207 284.137 242.483 280.37 237.953 277.02C235.841 275.44 231.692 273.251 228.584 271.694C224.781 269.8 222.234 268.582 220.569 267.86C218.468 266.938 217.421 266.603 216.908 267.385C216.395 268.167 217.249 269 217.937 269.659C218.625 270.319 219.616 271.18 220.898 272.271C228.126 278.425 245.492 297.184 249.196 304.076C251.251 307.917 255.334 313.303 260.062 319.554C270.321 333.106 283.09 349.971 281.967 360.079C281.719 362.259 281.136 363.684 280.237 364.307C279.643 364.72 278.877 364.801 277.893 364.552C274.902 363.804 271.103 358.67 267.788 353.747C266.525 351.885 265.375 349.798 264.16 347.586C262.089 343.837 259.966 339.96 257.18 337.166C256.282 336.262 254.607 334.474 252.486 332.209C246.886 326.23 238.424 317.197 233.183 312.602C229.677 309.529 228.46 309.414 227.733 309.707C227.503 309.802 227.306 309.961 227.163 310.166C227.021 310.37 226.94 310.611 226.93 310.86C226.734 313.035 230.857 318.599 235.505 321.531C242.427 325.914 247.082 332.174 252.008 338.797C253.333 340.578 254.704 342.421 256.112 344.209C257.798 346.352 260.612 350.728 263.334 354.958C265.349 358.091 267.245 361.052 268.584 362.926C270.622 365.763 274.032 370.506 278.477 370.104C281.583 369.816 283.396 367.311 284.479 365.814C285.296 364.681 286.09 364.199 286.868 364.349C288.708 364.732 290.604 368.476 291.154 370.99C291.598 372.983 290.99 376.259 289.516 377.663C289.264 377.932 288.942 378.124 288.586 378.218C288.231 378.313 287.856 378.305 287.505 378.196C285.025 377.504 281.926 375.126 279.876 373.548C279.239 373.035 278.577 372.555 277.89 372.111C277.025 371.617 269.26 364.919 264.62 360.919C261.733 358.427 259.453 356.462 258.854 355.987L258.746 355.902C253.225 351.519 234.985 337.127 232.33 335.602C230.394 334.525 228.391 333.574 226.332 332.758C224.029 331.821 222.998 331.584 222.474 331.584H222.46ZM445.688 355.915C445.141 359.481 444.41 363.016 443.498 366.506C442.755 364.939 442.371 363.226 442.373 361.491C442.387 359.304 443.804 357.461 445.702 355.915H445.688ZM228.306 335.404C229.401 335.907 230.512 336.465 231.508 337.035C233.538 338.188 246.38 348.209 257.718 357.191L257.826 357.276C258.275 357.632 259.844 358.976 261.834 360.693L254.209 354.75C244.839 347.45 238.67 342.645 238.307 342.389C237.782 342.024 233.51 338.929 230.731 336.864C229.958 336.328 229.153 335.84 228.32 335.404H228.306ZM211.442 343.111L211.61 343.152C213.907 343.748 216.142 344.566 218.282 345.595C222.437 347.754 226.728 351.798 229.863 354.748C230.655 355.496 231.34 356.132 231.946 356.684C232.024 356.753 232.116 356.833 232.222 356.914C229.001 354.377 226.523 352.458 225.75 351.902C224.392 350.931 223.371 350.086 222.382 349.267C220.382 347.616 218.657 346.19 215.249 344.742L214.424 344.391C213.584 344.029 212.505 343.57 211.456 343.111H211.442ZM153.301 259.918C152.687 272.771 149.912 292.376 147.172 308.007C143.233 306.911 139.229 306.063 135.183 305.469C80.6318 297.513 43.8968 287.417 25.9975 275.461C10.201 264.898 2.4845 252.744 1.70917 237.211C1.00284 223.047 6.19778 207.795 12.0622 192.109C14.8599 184.612 18.5318 174.246 22.7812 162.239C38.7571 117.119 62.8982 48.9345 79.5321 23.4519C91.7257 4.78577 145.914 -4.72721 176.186 6.48585C186.348 10.2481 198.043 18.0195 196.03 33.6615C195.378 38.6764 194.941 42.847 194.557 46.5262C193.982 52.0024 193.568 55.9608 192.822 59.1003C190.945 67.0747 167.356 83.9577 153.262 94.0451C149.369 96.8293 146.01 99.2329 143.829 100.919C139.499 104.273 136.154 107.839 133.706 111.724C133.174 111.574 132.688 111.292 132.291 110.905C131.038 109.687 130.43 107.364 130.32 104.416C134.281 98.1557 137.953 92.232 140.337 86.8065C143.001 80.7306 143.705 74.1794 141.947 71.8957C141.733 71.5912 141.438 71.3532 141.096 71.2092C140.753 71.0652 140.377 71.0209 140.01 71.0815C137.224 71.5428 134.489 77.8033 132.669 82.9819C130.718 88.5643 129.319 94.6148 128.833 99.5904C128.681 101.054 128.616 102.525 128.638 103.996L127.902 105.15C124.508 110.504 121 116.04 118.262 121.297C112.151 133.013 82.569 195.113 73.7137 215.483C71.7259 220.03 71.6914 224.355 73.6125 228.339C76.0696 233.434 81.7914 238.027 90.6168 241.976C97.5672 245.088 105.044 247.231 111.44 248.917C118.112 250.675 122.52 252.059 126.418 253.282C131.567 254.896 136.014 256.28 143.728 257.932L145.58 258.324C148.624 258.961 151.122 259.491 153.315 259.918H153.301ZM345.655 176.089C339.162 176.089 332.018 176.843 324.141 178.354C309.612 181.138 294.531 186.112 281.229 190.501C271.842 193.597 262.977 196.522 255.431 198.324C245.365 200.727 233.655 202.776 222.331 204.757C204.926 207.802 186.928 210.951 173.605 215.557C166.36 218.062 161.059 220.782 157.401 223.875C153.228 227.402 151.212 231.488 151.408 236.018C151.608 240.682 151.983 242.924 152.728 247.39C152.837 248.029 152.958 248.714 153.073 249.466C153.416 251.542 153.495 254.569 153.37 258.246C151.265 257.833 148.852 257.323 145.911 256.691L144.059 256.297C136.419 254.682 132.006 253.298 126.899 251.683C122.987 250.456 118.545 249.065 111.848 247.3C103.305 245.047 80.6134 239.063 75.0895 227.605C73.3893 224.078 73.433 220.224 75.216 216.136C84.0645 195.786 113.614 133.756 119.716 122.056C122.3 117.094 125.603 111.844 128.836 106.741C129.186 109.156 129.952 110.949 131.136 112.093C131.62 112.569 132.197 112.939 132.83 113.182C132.31 114.104 131.838 115.043 131.415 115.998C129.195 121.009 128.302 126.432 128.684 132.577C129.39 143.894 134.47 156.087 139.382 167.87C143.353 177.401 147.458 187.247 149.351 196.76C150.731 203.68 153.244 216.346 163.698 216.346C164.121 216.346 164.556 216.325 165.007 216.284C176.483 215.197 237.872 198.27 266.999 189.064C286.255 182.972 333.258 173.023 358.336 174.869C372.11 175.879 375.566 180.732 378.918 187.588C374.788 184.474 369.043 180.236 365.24 178.968C359.477 177.048 352.987 176.089 345.668 176.089H345.655ZM351.724 172.984C325.496 172.984 284.256 181.863 266.497 187.48C237.433 196.672 176.237 213.546 164.848 214.635C155.558 215.518 152.814 205.705 150.973 196.439C149.047 186.774 144.911 176.832 140.907 167.233C132.855 147.91 125.164 129.447 134.541 113.519C135.658 113.563 136.912 113.315 138.303 112.773C144.745 110.271 152.19 105.989 160.801 101.03C164.022 99.1729 167.363 97.2538 170.823 95.3276C181.846 89.194 201.839 64.4173 207.597 51.6172C208.748 49.0544 209.654 46.4662 210.448 44.1849C212.346 38.7294 213.844 34.4205 217.543 33.1956C222.773 31.4609 232.774 35.9037 249.983 47.6035C255.815 51.5711 266.44 56.7681 277.706 61.1717C290.539 66.1843 302.142 69.4091 310.376 70.2557C318.944 71.1322 329.66 70.1449 339.781 67.5452C349.902 64.9455 357.156 61.3332 359.726 57.6263C362.654 53.4026 368.956 50.1363 374.705 49.8618C377.574 49.7257 381.575 50.2516 384.357 53.5526C385.742 55.246 387.016 57.0274 388.171 58.8858C388.096 59.6599 388.127 60.4407 388.263 61.2063C389.775 69.8958 395.497 82.0754 401.607 86.3498C407.865 90.7188 412.483 100.723 414.273 113.8C417.105 134.468 412.577 156.809 403.264 168.126C401.702 170.027 399.705 172.087 397.629 174.154C397.543 174.154 397.458 174.163 397.374 174.181C391.551 174.924 382.279 183.178 382.735 188.504C382.765 188.82 382.799 189.117 382.829 189.396C382.866 189.715 382.912 190.109 382.926 190.405C382.522 190.198 382.133 189.962 381.762 189.701C381.635 189.431 381.506 189.161 381.38 188.894C377.54 180.797 374.507 174.4 358.46 173.222C356.367 173.058 354.112 172.984 351.738 172.984H351.724ZM398.336 175.773C399.919 175.798 400.809 176.682 401.117 178.502C402.24 185.173 400.761 200.503 397.385 203.269C397.215 203.437 396.999 203.55 396.765 203.596C396.53 203.641 396.288 203.617 396.067 203.525C389.908 201.131 387.03 191.95 388.169 187.166C388.629 185.32 392.612 181.399 396.463 177.616C397.095 177.005 397.724 176.391 398.349 175.773H398.336ZM140.328 72.7054C140.401 72.7054 140.496 72.7377 140.622 72.9038C141.662 74.2509 141.616 79.7364 138.814 86.1307C136.769 90.7833 133.727 95.8605 130.366 101.217C130.702 95.8674 132.206 89.3093 134.217 83.524C137.76 73.3951 140.015 72.7539 140.261 72.7123C140.288 72.708 140.315 72.7057 140.342 72.7054H140.328ZM406.011 49.931C409.678 49.931 413.212 50.7107 415.724 52.3069C418.747 54.2308 420.004 57.0427 419.461 60.6666C418.103 69.7136 415.752 81.4272 413.223 87.1825C412.425 88.9841 411.562 89.0487 411.279 89.0694C410.046 89.164 407.124 87.9645 401.4 78.9198C400.273 77.1413 398.796 74.3916 397.084 71.2083C394.917 67.1739 392.411 62.512 389.885 58.4798C390.332 56.0415 392.126 54.3276 393.76 53.225C397.02 51.0544 401.621 49.931 406.025 49.931H406.011Z" fill="#C9A9D1"/>
</g>
<defs>
<clipPath id="clip0_1918_510">
<rect width="470" height="490" fill="white" transform="matrix(-1 0 0 1 470 0)"/>
</clipPath>
</defs>
</svg>
