<svg width="28" height="27" viewBox="0 0 28 27" fill="none" xmlns="http://www.w3.org/2000/svg">
    <path
        d="M7.56187 3.33399C7.27279 3.33377 6.98649 3.3905 6.71933 3.50096C6.45218 3.61141 6.2094 3.77341 6.00487 3.97771C5.80034 4.18201 5.63806 4.4246 5.5273 4.69163C5.41655 4.95866 5.35948 5.2449 5.35938 5.53398C5.35937 6.75065 6.34521 7.75899 7.55938 7.75899C8.77521 7.75899 9.76187 6.75065 9.76187 5.53565C9.76209 5.2466 9.70535 4.96034 9.59489 4.69324C9.48443 4.42613 9.32241 4.1834 9.1181 3.97894C8.91379 3.77447 8.67119 3.61227 8.40416 3.50161C8.13714 3.39094 7.85092 3.33398 7.56187 3.33399ZM18.3052 9.16732C16.456 9.16732 15.3985 10.134 14.8902 11.0957H14.8369V9.42648H11.1927V21.6673H14.9902V15.6082C14.9902 14.0115 15.1102 12.4682 17.086 12.4682C19.0335 12.4682 19.0619 14.289 19.0619 15.709V21.6673H22.8594V14.944C22.8594 11.654 22.1519 9.16732 18.3052 9.16732ZM5.66187 9.42565V21.6673H9.46187V9.42565H5.66187Z"
        fill="#C9A9D1" />
</svg>
    