<svg width="23" height="23" viewBox="0 0 23 23" fill="none" xmlns="http://www.w3.org/2000/svg">
<path d="M14.5169 9.58333C14.5169 11.4311 13.0471 12.9167 11.2624 12.9167C9.47761 12.9167 8.00781 11.4311 8.00781 9.58333C8.00781 7.73555 9.47761 6.25 11.2624 6.25C13.0471 6.25 14.5169 7.73555 14.5169 9.58333ZM13.6396 9.58333C13.6396 8.25999 12.5835 7.16667 11.2624 7.16667C9.94116 7.16667 8.88508 8.25999 8.88508 9.58333C8.88508 10.9067 9.94116 12 11.2624 12C12.5835 12 13.6396 10.9067 13.6396 9.58333Z" fill="#3AB8B7" stroke="#3AB8B7"/>
<path d="M11.0125 20.5014L11.0106 20.5001C10.8854 20.4096 9.17362 19.1496 7.50157 17.1594C5.82109 15.1592 4.24115 12.4932 4.25398 9.58107H4.25399V9.57887C4.25399 5.62291 7.40811 2.41699 11.2623 2.41699C15.1162 2.41699 18.2705 5.6227 18.2705 9.58366L18.2705 9.58586C18.2834 12.4955 16.7035 15.1603 15.023 17.16C13.3509 19.1496 11.6391 20.4096 11.5139 20.5001L11.512 20.5014C11.4381 20.5553 11.3507 20.5835 11.2623 20.5835C11.1738 20.5835 11.0865 20.5553 11.0125 20.5014ZM10.9431 19.298L11.262 19.5623L11.5811 19.2982C12.3535 18.6587 13.7995 17.3618 15.0539 15.6742C16.3021 13.9948 17.4037 11.8708 17.3934 9.58729C17.3928 6.14593 14.6537 3.33366 11.2623 3.33366C7.8711 3.33366 5.13167 6.14565 5.13105 9.5825C5.12085 11.8674 6.22257 13.9923 7.47093 15.6725C8.72537 17.3608 10.1713 18.6581 10.9431 19.298Z" fill="#3AB8B7" stroke="#3AB8B7"/>
</svg>
