<svg width="24" height="24" viewBox="0 0 24 24" fill="none" xmlns="http://www.w3.org/2000/svg">
<path d="M15.5 10C15.5 11.9299 13.9299 13.5 12 13.5C10.0701 13.5 8.5 11.9299 8.5 10C8.5 8.07014 10.0701 6.5 12 6.5C13.9299 6.5 15.5 8.07014 15.5 10ZM14.5 10C14.5 8.62086 13.3791 7.5 12 7.5C10.6209 7.5 9.5 8.62086 9.5 10C9.5 11.3791 10.6209 12.5 12 12.5C13.3791 12.5 14.5 11.3791 14.5 10Z" fill="#C9A9D1" stroke="#C9A9D1"/>
<path d="M11.7107 21.4071L11.7088 21.4058C11.5742 21.3105 9.74818 19.9941 7.9647 17.9152C6.17208 15.8256 4.48639 13.04 4.50008 9.99725H4.50009V9.995C4.50009 5.86535 7.86503 2.5 12.0001 2.5C16.1349 2.5 19.5001 5.86514 19.5001 10L19.5001 10.0023C19.5138 13.0424 17.8282 15.8267 16.0355 17.9158C14.252 19.9941 12.426 21.3105 12.2914 21.4058L12.2895 21.4071C12.2051 21.4674 12.1039 21.4998 12.0001 21.4998C11.8963 21.4998 11.7951 21.4674 11.7107 21.4071ZM11.6849 20.1232L11.9999 20.3789L12.315 20.1234C13.1369 19.4569 14.6759 18.1052 16.0107 16.3464C17.339 14.5962 18.511 12.383 18.5001 10.0038C18.4994 6.41449 15.5851 3.5 12.0001 3.5C8.41534 3.5 5.50073 6.41422 5.50009 9.99882C5.48922 12.3795 6.66133 14.5936 7.98976 16.3446C9.32474 18.1042 10.8637 19.4564 11.6849 20.1232ZM12.5801 21.814C12.8841 21.599 20.0291 16.44 20.0001 10L11.4201 21.814C11.5893 21.9349 11.7921 21.9998 12.0001 21.9998C12.2081 21.9998 12.4108 21.9349 12.5801 21.814Z" fill="#C9A9D1" stroke="#C9A9D1"/>
</svg>
