<svg width="50" height="50" viewBox="0 0 50 50" fill="none" xmlns="http://www.w3.org/2000/svg">
<path d="M11.3932 18.7503C15.4203 18.7503 18.6849 15.4857 18.6849 11.4587C18.6849 7.43158 15.4203 4.16699 11.3932 4.16699C7.36615 4.16699 4.10156 7.43158 4.10156 11.4587C4.10156 15.4857 7.36615 18.7503 11.3932 18.7503Z" stroke="#3AB8B7" stroke-width="4"/>
<path d="M35.3542 31.25H41.6042C43.8958 31.25 45.7708 33.125 45.7708 35.4167V41.6667C45.7708 43.9583 43.8958 45.8333 41.6042 45.8333H35.3542C33.0625 45.8333 31.1875 43.9583 31.1875 41.6667V35.4167C31.1875 33.125 33.0625 31.25 35.3542 31.25Z" stroke="#3AB8B7" stroke-width="4"/>
<path d="M25.0025 10.417H30.5858C34.44 10.417 36.2316 15.1878 33.3358 17.7295L16.69 32.292C13.7941 34.8128 15.5858 39.5837 19.4191 39.5837H25.0025" stroke="#3AB8B7" stroke-width="4" stroke-linecap="round" stroke-linejoin="round"/>
<path d="M11.4268 11.4587H11.4509" stroke="#3AB8B7" stroke-width="4" stroke-linecap="round" stroke-linejoin="round"/>
<path d="M38.5127 38.5417H38.5368" stroke="#3AB8B7" stroke-width="4" stroke-linecap="round" stroke-linejoin="round"/>
</svg>
