<svg width="30" height="30" viewBox="0 0 30 30" fill="none" xmlns="http://www.w3.org/2000/svg">
<path d="M8.90616 4.42701L9.72386 3.60931C10.2446 3.08861 11.0888 3.08861 11.6095 3.60931L15.0572 7.05703C15.5779 7.57773 15.5779 8.42195 15.0572 8.94265L12.6673 11.3325C12.2688 11.731 12.17 12.3398 12.422 12.8439C13.8791 15.7579 16.2419 18.1208 19.1559 19.5778C19.66 19.8298 20.2688 19.731 20.6673 19.3325L23.0572 16.9426C23.5779 16.4219 24.4221 16.4219 24.9428 16.9426L28.3905 20.3904C28.9112 20.9111 28.9112 21.7553 28.3905 22.276L27.5728 23.0937C24.7577 25.9088 20.3009 26.2255 17.116 23.8368L15.5048 22.6284C13.1801 20.8849 11.115 18.8198 9.37143 16.4951L8.16302 14.8839C5.7743 11.6989 6.09103 7.24214 8.90616 4.42701Z" fill="#3AB8B7"/>
</svg>
