<svg width="253" height="568" viewBox="0 0 253 568" fill="none" xmlns="http://www.w3.org/2000/svg">
<g opacity="0.8">
<g clip-path="url(#clip0_1918_275)">
<path d="M48.4848 567.299C50.2989 567.302 52.0796 566.811 53.6355 565.878C57.4109 563.587 59.4513 558.835 58.3696 554.83C57.8322 552.822 55.6545 548.133 47.0338 547.931C46.8968 547.928 46.7605 547.952 46.6327 548.001C46.5048 548.05 46.388 548.124 46.2888 548.219C46.1896 548.313 46.1101 548.427 46.0547 548.552C45.9994 548.677 45.9693 548.812 45.9662 548.949C45.9631 549.087 45.987 549.223 46.0366 549.351C46.0862 549.479 46.1604 549.596 46.2552 549.695C46.3499 549.794 46.4633 549.873 46.5887 549.929C46.7142 549.984 46.8494 550.014 46.9865 550.017C52.1371 550.138 55.4628 552.039 56.3528 555.37C57.1931 558.513 55.5551 562.263 52.5395 564.093C48.989 566.248 44.5342 565.265 40.3091 561.399C34.5216 556.106 22.6414 541.4 13.6325 522.575C6.20941 507.069 -1.5166 483.987 3.88263 462.087C9.53278 439.124 22.5065 420.469 35.0494 404.892C36.3939 404.972 37.5396 404.591 39.1279 404.059C42.0819 403.071 47.0243 401.419 58.9045 400.661C62.145 400.455 65.1535 400.28 68.065 400.112C85.0201 399.132 96.2327 398.486 109.457 393.801C114.802 391.907 128.11 397.29 143.517 403.523C150.272 406.258 157.26 409.084 164.529 411.712C175.327 415.618 186.24 419.158 195.869 422.278C203.308 424.692 209.735 426.776 214.519 428.516C220.768 430.786 222.176 431.766 222.484 432.123C222.886 439.872 230.629 505.208 243.041 538.777C244.313 542.186 246.594 545.127 249.58 547.206C252.565 549.285 256.114 550.403 259.753 550.412C260.029 550.412 260.294 550.303 260.489 550.107C260.684 549.912 260.794 549.647 260.794 549.371C260.794 549.234 260.768 549.098 260.716 548.971C260.663 548.845 260.587 548.73 260.49 548.633C260.393 548.536 260.278 548.459 260.152 548.406C260.025 548.354 259.89 548.327 259.753 548.327C256.54 548.319 253.407 547.331 250.771 545.495C248.134 543.66 246.121 541.063 244.999 538.052C238.513 520.513 233.431 494.235 230.309 475.28C226.624 452.899 224.704 435.165 224.562 431.882C224.462 429.588 219.158 427.637 196.512 420.294C186.9 417.176 176.004 413.642 165.237 409.75C158.005 407.134 151.034 404.305 144.3 401.589C127.847 394.932 114.852 389.677 108.761 391.831C95.8067 396.419 84.7218 397.058 67.9442 398.029C65.0304 398.197 62.0266 398.372 58.7719 398.578C46.6196 399.355 41.5162 401.059 38.4675 402.079C37.871 402.278 37.3763 402.444 36.936 402.567C39.3669 399.591 41.7695 396.729 44.0821 393.974L45.2017 392.638C46.0633 392.234 46.9131 391.857 47.7415 391.519L48.731 391.294C50.6885 390.849 52.5395 390.43 53.8745 390.11C54.5988 389.935 55.1291 389.798 55.496 389.691C55.9694 389.551 56.9683 389.26 56.8026 388.285C56.6203 387.215 55.619 387.338 54.1349 387.504C52.3502 387.712 50.2672 388.313 48.1463 389.118C55.0107 380.832 60.2632 373.998 62.1828 368.035C63.7285 363.234 63.4184 358.873 62.0787 354.697C63.7664 354.143 66.4199 353.677 69.1917 353.187C73.4121 352.446 78.1864 351.603 81.5453 350.145C82.5086 349.723 83.6022 349.247 83.2732 348.201C82.9442 347.155 81.808 347.354 80.3641 347.593C79.3155 347.768 77.9071 348.047 76.4182 348.343C75.1258 348.599 73.4216 348.937 71.8996 349.205C77.1071 346.982 87.3942 343.656 93.2479 343.478C95.8919 343.402 98.3418 344.922 101.177 346.686C104.442 348.715 108.139 351.016 112.84 351.016C115.811 351.016 121.775 353.146 130.032 356.113C143.467 360.928 163.772 368.203 187.572 371.737C201.538 373.804 213.681 374.976 224.403 375.998C231.978 376.728 238.669 377.374 244.405 378.198C249.271 383.879 255.821 386.495 260.065 387.149C263.481 387.672 265.746 387.118 266.309 385.626C266.783 384.353 265.883 382.992 263.635 381.585C259.438 378.965 253.343 377.419 245.491 376.249C242.693 372.76 240.442 367.907 240.104 361.221C238.736 334.333 236.215 304.273 233.971 288.12C233.687 286.072 236.691 280.173 242.821 273.277C249.508 265.751 257.409 259.906 264.494 257.241C275.212 253.216 283.87 256.076 290.231 265.763C294.674 272.529 296.726 273.144 298.016 272.924C298.726 272.801 299.689 272.273 300.146 270.443C301.526 264.916 298.096 249.27 294.084 236.216C292.728 231.806 288.976 220.218 284.616 211.932C285.963 207.55 286.657 203.227 286.652 199.181C286.652 192.288 284.607 186.677 280.77 182.953C276.587 178.893 269.869 176.325 262.091 173.34C243.628 166.261 220.647 157.455 224.249 122.574C226.003 105.586 226.188 89.9191 224.796 76.011C223.357 61.6246 220.218 49.0232 215.47 38.5335C210.499 27.5893 203.734 18.8468 195.336 12.5496C186.564 5.97077 175.907 1.98653 163.665 0.712897C156.462 -0.0422857 149.64 -0.174843 143.384 0.31283C135.147 0.959115 127.653 2.7014 121.108 5.49486C86.7267 20.1724 86.7859 59.52 87.1575 67.2588C87.6309 77.223 91.0868 88.6786 93.1106 94.623C93.3142 95.2196 98.1122 109.253 100.543 110.392C100.749 110.495 100.98 110.539 101.209 110.519C101.438 110.499 101.658 110.416 101.843 110.278C102.458 109.805 102.567 108.976 102.259 107.08C102.086 106.005 101.663 104.417 101.125 102.407C98.7347 93.4488 93.7592 74.8083 100.16 58.4831C104.74 46.805 114.329 43.1356 120.057 40.9411C122.107 40.1551 123.589 39.5894 124.472 38.8414C126.128 37.4399 128.446 33.304 131.412 27.3881C128.964 33.4603 128.448 36.0857 129.535 37.1723C130.621 38.2589 132.666 37.9844 136.435 37.5441C143.391 36.7297 155.035 35.366 168.245 41.4643C180.63 47.1814 185.288 60.4528 190.005 84.5239C190.368 86.3752 190.716 93.534 191.037 102.516C189.781 110.683 188.768 118.789 188.886 125.952C189.033 134.678 185.3 146.437 179.145 156.64C172.823 167.123 165.18 174.043 158.671 175.148C150.443 176.55 140.809 171.678 135.798 168.65C135.208 168.295 134.629 167.94 134.06 167.563C131.22 158.08 125.328 147.455 121.397 140.947C114.672 129.821 106.468 118.76 104.186 117.761C103.959 117.644 103.701 117.599 103.448 117.632C103.194 117.664 102.956 117.773 102.766 117.944C102.094 118.564 102.441 119.568 102.588 119.996C104.827 126.459 112.544 142.318 117.157 151.792C118.388 154.323 119.361 156.323 119.901 157.474C121.229 160.298 126.337 164.966 132.278 168.906C133.114 171.853 133.615 174.653 133.615 177.127C133.615 197.524 131.696 201.887 120.767 206.305C117.394 207.668 109.169 217.431 101.632 228.991C97.3713 235.542 87.4747 251.822 87.8226 261.464C87.9907 266.151 90.54 267.946 92.649 268.628C105.564 272.794 115.796 273.017 126.869 269.368C138.167 265.645 150.852 257.768 169.284 243.008C176.75 237.031 185.165 228.016 193.303 219.297C198.702 213.511 203.805 208.045 208.04 204.146C213.501 199.111 215.813 198.289 216.798 198.493C216.852 198.499 216.903 198.516 216.949 198.545C216.949 198.545 217.092 198.798 216.831 199.671C215.146 205.339 201.938 220.708 185.428 236.216C166.491 254.004 148.362 267.217 136.929 271.561C127.717 275.062 116.573 276.603 105.54 275.902C95.4871 275.263 87.1338 272.803 83.1951 269.326C81.3204 267.669 80.5913 265.898 81.0482 264.054C85.6118 245.285 99.7596 226.446 107.36 216.323C112.125 209.977 112.944 208.762 112.568 207.69C112.5 207.494 112.384 207.319 112.23 207.181C112.077 207.042 111.891 206.944 111.69 206.897C109.893 206.449 103.047 208.594 96.5712 212.136C90.4998 215.45 82.7501 221.072 80.2978 228.944C79.7913 230.575 79.235 232.369 78.6409 234.277C74.2287 248.548 67.5584 270.114 64.3369 276.229C62.3249 280.048 59.3448 283.591 56.1919 287.341C49.9169 294.806 42.8039 303.267 42.8039 315.61C42.8039 325.924 47.9191 333.961 52.8662 341.731C55.4155 345.734 57.8961 349.631 59.4608 353.636C52.4425 357.734 49.1405 362.969 48.7073 365.353C48.6627 365.577 48.6758 365.809 48.7453 366.028C48.8149 366.246 48.9386 366.443 49.1049 366.6C49.4192 366.878 49.8219 367.035 50.2411 367.043C49.9855 367.182 49.7322 367.329 49.486 367.488C45.2254 370.213 41.4878 377.523 42.6737 379.561C42.7795 379.746 42.9267 379.903 43.1038 380.021C43.2808 380.139 43.4828 380.214 43.6939 380.241C42.7564 380.767 41.847 381.343 40.9694 381.964C36.7821 384.916 34.7205 388.56 35.8377 391.033C36.1573 391.744 37.1324 393.124 39.8451 393.124C37.168 394.667 30.9876 398.536 30.5616 401.578C30.3982 402.733 31.0018 403.687 32.2185 404.193C32.4149 404.274 32.6067 404.35 32.7889 404.416C28.2916 410.053 23.7113 416.125 19.4246 422.706C10.7825 435.98 5.03537 448.709 1.85645 461.623C-8.35971 503.134 25.934 551.108 38.903 562.974C42.605 566.302 45.8952 567.299 48.4848 567.299ZM40.3067 395.235C38.3136 397.617 36.2661 400.084 34.1949 402.64C33.7988 402.526 33.4099 402.388 33.0304 402.226C32.6067 402.049 32.6233 401.93 32.6375 401.828C32.7984 400.725 35.2649 398.221 40.3138 395.233L40.3067 395.235ZM44.6218 390.089C43.7152 390.297 42.8228 390.508 41.9636 390.711C39.7599 391.239 38.1455 391.017 37.7455 390.134C37.1845 388.891 38.5479 386.19 42.179 383.631C45.6088 381.216 47.7841 380.591 49.3724 380.137C50.9607 379.682 52.1797 379.332 52.9609 377.49C53.0602 377.265 53.0869 377.014 53.0372 376.773C52.9876 376.532 52.8641 376.313 52.6839 376.145C52.3644 375.854 51.8815 375.411 48.499 376.356C47.1831 376.721 45.8933 377.174 44.6383 377.712C45.178 375.667 47.5143 371.2 50.6175 369.211C52.0898 368.264 53.8343 367.736 55.3752 367.265C57.1931 366.709 58.5092 366.307 59.1033 365.353C59.239 365.153 59.3106 364.917 59.3085 364.676C59.3064 364.435 59.2307 364.2 59.0915 364.003C58.4974 363.184 57.4488 363.442 54.6438 364.136C53.6497 364.372 52.0069 364.787 51.027 364.905C51.7868 363.092 54.2651 359.15 60.1685 355.613C61.3118 359.356 61.5485 363.224 60.2087 367.384C58.2441 373.508 52.0519 381.226 44.6289 390.087L44.6218 390.089ZM264.323 384.907C263.777 385.302 261.095 385.617 256.936 384.215C253.541 383.037 250.428 381.164 247.797 378.716C254.126 379.791 259.083 381.188 262.539 383.349C263.886 384.185 264.243 384.72 264.331 384.904L264.323 384.907ZM273.354 253.389C270.333 253.389 267.136 254.014 263.781 255.283C256.389 258.062 248.187 264.113 241.28 271.885C236.267 277.529 231.429 284.825 231.926 288.402C234.16 304.5 236.676 334.487 238.04 361.316C238.345 367.343 240.13 372.114 242.634 375.833C237.332 375.134 231.317 374.554 224.623 373.91C213.927 372.878 201.803 371.711 187.899 369.649C164.304 366.153 144.109 358.918 130.756 354.129C122.303 351.101 116.194 348.921 112.861 348.921C108.757 348.921 105.476 346.88 102.302 344.896C99.3075 343.036 96.4836 341.281 93.2053 341.376C89.6831 341.483 83.8721 342.768 77.6586 344.813C74.74 345.775 67.8519 348.187 66.9666 349.809C66.8524 350.01 66.7984 350.24 66.811 350.471C66.8235 350.702 66.9022 350.925 67.0377 351.113C67.1129 351.219 67.2049 351.311 67.3099 351.387C64.9783 351.807 62.9143 352.211 61.3923 352.718C59.7566 348.606 57.2334 344.641 54.6415 340.571C49.8553 333.052 44.9058 325.276 44.9058 315.57C44.9058 303.986 51.4625 296.188 57.8038 288.646C61.0325 284.806 64.0812 281.179 66.1974 277.164C69.5112 270.874 75.9472 250.056 80.6505 234.855C81.2399 232.947 81.7938 231.155 82.3074 229.524C84.5372 222.358 91.7756 217.128 97.4376 214.001C102.865 211.011 107.838 209.401 110.087 208.978C109.261 210.294 107.526 212.607 105.713 215.019C98.0222 225.262 83.6993 244.327 79.0409 263.509C78.4042 266.13 79.3699 268.665 81.834 270.848C86.1113 274.622 94.9309 277.275 105.429 277.95C116.748 278.66 128.207 277.081 137.691 273.476C149.908 268.836 169.095 254.703 189.018 235.676C197.341 227.727 204.941 219.692 210.419 213.049C216.367 205.834 219.283 200.943 219.087 198.504C219.069 197.996 218.874 197.509 218.537 197.127C218.2 196.745 217.741 196.492 217.238 196.412C212.902 195.524 204.747 203.987 191.804 217.848C183.719 226.51 175.356 235.47 168.009 241.351C133.923 268.642 117.162 274.309 93.3189 266.615C91.146 265.905 90.0382 264.196 89.9364 261.362C89.6997 254.992 94.6184 243.607 103.41 230.113C111.103 218.303 119.013 209.259 121.579 208.225C126.957 206.049 130.993 203.587 133.192 198.642C135.305 193.883 135.732 186.876 135.732 177.111C135.695 174.884 135.406 172.669 134.87 170.508C139.502 173.292 147.773 177.471 155.674 177.471C156.802 177.474 157.928 177.383 159.04 177.196C166.236 175.972 174.222 168.87 180.952 157.708C187.392 147.029 191.146 135.14 190.993 125.907C190.96 122.368 191.127 118.83 191.492 115.309L191.62 119.298C191.956 129.714 192.301 140.479 192.675 147.803C192.912 152.232 194.197 159.211 199.107 167.317C204.078 175.513 211.621 183.06 221.549 189.752C233.055 197.508 243.863 198.201 253.397 198.812L254.507 198.883C260.027 202.512 264.11 206.17 265.396 210.388C268.757 221.345 263.668 233.224 261.223 238.934C260.778 239.973 260.427 240.792 260.207 241.415C260.001 241.997 259.615 243.084 260.46 243.664C261.407 244.313 262.456 243.377 263.67 242.298C264.854 241.252 266.584 239.573 269.008 237.206C274.495 231.838 278.943 225.502 282.128 218.518C282.696 217.255 283.213 215.993 283.679 214.73C286.448 220.36 289.4 228.037 292.103 236.829C296.75 251.942 299.23 265.557 298.137 269.939C297.952 270.675 297.732 270.858 297.682 270.867C297.632 270.877 296.208 271.035 292.001 264.617C287.113 257.177 280.772 253.389 273.354 253.389ZM282.384 212.197C279.641 220.601 274.459 228.951 267.552 235.698C266.111 237.106 264.361 238.816 263.005 240.07L263.147 239.739C265.689 233.801 270.982 221.446 267.408 209.759C266.196 205.81 262.996 202.42 258.609 199.174C265.32 199.776 271.687 201.028 277.546 205.566C278.959 206.653 280.616 208.954 282.382 212.197H282.384ZM151.013 2.08834C155.168 2.09828 159.32 2.32424 163.452 2.76537C186.808 5.2132 203.67 17.5328 213.572 39.3811C222.853 59.8586 225.75 87.7743 222.178 122.347C220.505 138.547 224.145 150.798 233.303 159.796C241.195 167.551 251.901 171.654 261.348 175.274C268.596 178.051 275.444 180.676 279.319 184.438C282.741 187.752 284.555 192.854 284.566 199.17C284.547 202.618 284.087 206.051 283.196 209.382C281.754 206.979 280.27 205.036 278.798 203.902C271.425 198.206 263.519 197.375 255.17 196.821C251.646 194.534 247.615 192.278 243.37 189.904C230.948 182.953 216.871 175.075 208.939 162.814C201.057 150.627 202.212 133.933 203.436 116.253C203.928 109.135 204.44 101.777 204.383 94.4739C204.312 86.7895 203.396 78.8494 201.8 72.0978C201.263 69.7226 200.556 67.3887 199.687 65.1141C198.643 62.51 197.921 61.8756 197.466 61.6318C197.249 61.5081 197.002 61.4457 196.752 61.4511C196.502 61.4565 196.258 61.5296 196.046 61.6625C195.379 62.091 194.979 62.9906 195.185 65.9924C195.658 73.04 194.306 82.2726 192.711 92.1539C192.507 88.1294 192.294 85.2436 192.07 84.0907C189.781 72.4031 187.572 63.1043 184.183 55.7134C180.535 47.7307 175.753 42.5912 169.138 39.5373C155.392 33.1929 143.384 34.5966 136.21 35.437C134.205 35.6738 131.736 35.9603 131.095 35.6951C131.047 35.3377 131.095 33.9953 132.82 29.5092C134.079 26.2233 135.831 22.2676 137.379 18.7781C141.18 10.1965 141.552 9.11225 140.989 8.24817C140.885 8.08689 140.742 7.95433 140.573 7.8629C140.404 7.77147 140.215 7.72399 140.023 7.72488C138.821 7.72488 138.03 9.04352 132.969 19.4764C129.703 26.2162 125.224 35.4513 123.139 37.215C122.528 37.7334 121.044 38.3016 119.328 38.9597C113.275 41.275 103.149 45.1526 98.2353 57.6901C91.5839 74.6497 96.6777 93.74 99.1253 102.906C99.4211 104.017 99.6815 104.994 99.8804 105.809C98.6424 103.328 96.8742 99.1802 94.9403 93.4346C93.0065 87.6891 89.7044 76.6502 89.2594 67.1216C88.9068 59.6266 88.831 21.5124 121.944 7.37695C128.28 4.67344 135.554 2.98311 143.564 2.35813C145.962 2.18058 148.454 2.08591 151.02 2.08591L151.013 2.08834ZM197.215 64.6642C197.895 66.061 198.872 68.6887 199.843 72.9002C201.358 79.4294 202.226 87.1044 202.295 94.4999C202.361 101.711 201.855 109.028 201.365 116.107C200.115 134.141 198.936 151.174 207.197 163.946C215.409 176.642 229.727 184.653 242.36 191.724C245.302 193.37 248.138 194.956 250.76 196.528C241.893 195.905 232.705 194.738 222.708 188.005C198.496 171.687 195.092 154.37 194.751 147.682C194.38 140.377 194.041 129.62 193.7 119.217C193.513 113.396 193.329 107.691 193.144 102.608C193.523 100.153 193.923 97.6911 194.328 95.2481C196.12 84.2186 197.814 73.7999 197.27 65.8598C197.23 65.3816 197.215 64.9886 197.215 64.6642ZM105.53 121.812C108.567 125.342 114.076 132.82 119.676 142.105C123.186 147.926 128.299 157.1 131.26 165.624C126.315 162.073 122.687 158.437 121.792 156.55C121.248 155.393 120.27 153.388 119.034 150.85C115.252 143.038 108.548 129.262 105.53 121.812Z" fill="#3AB8B7"/>
</g>
</g>
<defs>
<clipPath id="clip0_1918_275">
<rect width="300.475" height="567.296" fill="white" transform="matrix(-1 0 0 1 300.477 0)"/>
</clipPath>
</defs>
</svg>
