<svg width="19" height="18" viewBox="0 0 19 18" fill="none" xmlns="http://www.w3.org/2000/svg">
<g clip-path="url(#clip0_1918_3842)">
<path d="M2.00301 16.5L3.01701 12.774C2.34886 11.6286 1.99783 10.326 2.00001 9C2.00001 4.85775 5.35776 1.5 9.50001 1.5C13.6423 1.5 17 4.85775 17 9C17 13.1423 13.6423 16.5 9.50001 16.5C8.17459 16.5021 6.8725 16.1514 5.72751 15.4838L2.00301 16.5ZM6.79326 5.481C6.69641 5.48701 6.60177 5.51252 6.51501 5.556C6.43365 5.60207 6.35938 5.65967 6.29451 5.727C6.20451 5.81175 6.15351 5.88525 6.09876 5.9565C5.82157 6.31725 5.67247 6.76006 5.67501 7.215C5.67651 7.5825 5.77251 7.94025 5.92251 8.27475C6.22926 8.95125 6.73401 9.6675 7.40076 10.3312C7.56126 10.491 7.71801 10.6515 7.88676 10.8007C8.7143 11.5293 9.70045 12.0548 10.7668 12.3353L11.1935 12.4005C11.3323 12.408 11.471 12.3975 11.6105 12.3907C11.8289 12.3795 12.0422 12.3203 12.2353 12.2175C12.3598 12.1515 12.4183 12.1185 12.5225 12.0525C12.5225 12.0525 12.5548 12.0315 12.6163 11.985C12.7175 11.91 12.7798 11.8568 12.8638 11.769C12.926 11.7045 12.98 11.6287 13.0213 11.5425C13.0798 11.4202 13.1383 11.187 13.1623 10.9928C13.1803 10.8442 13.175 10.7633 13.1728 10.713C13.1698 10.6328 13.103 10.5495 13.0303 10.5142L12.5938 10.3185C12.5938 10.3185 11.9413 10.0343 11.543 9.85275C11.501 9.83445 11.456 9.82402 11.4103 9.822C11.3589 9.81673 11.3071 9.8225 11.2582 9.83893C11.2093 9.85536 11.1645 9.88206 11.1268 9.91725V9.91575C11.123 9.91575 11.0728 9.9585 10.5305 10.6155C10.4994 10.6573 10.4565 10.6889 10.4074 10.7063C10.3582 10.7237 10.305 10.726 10.2545 10.713C10.2056 10.6999 10.1578 10.6834 10.1113 10.6635C10.0183 10.6245 9.98601 10.6095 9.92226 10.5817L9.91851 10.5802C9.48944 10.3929 9.09218 10.1399 8.74101 9.83025C8.64651 9.74775 8.55876 9.65775 8.46876 9.57075C8.17369 9.28818 7.91655 8.96851 7.70376 8.61975L7.65951 8.5485C7.62773 8.50062 7.60203 8.44898 7.58301 8.39475C7.55451 8.2845 7.62876 8.196 7.62876 8.196C7.62876 8.196 7.81101 7.9965 7.89576 7.8885C7.96633 7.79874 8.03217 7.70536 8.09301 7.60875C8.18151 7.46625 8.20926 7.32 8.16276 7.20675C7.95276 6.69375 7.73526 6.183 7.51176 5.676C7.46751 5.5755 7.33626 5.5035 7.21701 5.48925C7.17651 5.48475 7.13601 5.48025 7.09551 5.47725C6.99479 5.47225 6.89386 5.474 6.79326 5.481Z" fill="#3AB8B7"/>
</g>
<defs>
<clipPath id="clip0_1918_3842">
<rect width="18" height="18" fill="white" transform="translate(0.5)"/>
</clipPath>
</defs>
</svg>
