<svg width="16" height="16" viewBox="0 0 16 16" fill="none" xmlns="http://www.w3.org/2000/svg">
    <path
        d="M13.6873 5.30103V2.47614C13.6873 1.59881 13.2891 1.24414 12.2998 1.24414H9.78599C8.79666 1.24414 8.39844 1.59881 8.39844 2.47614V5.29481C8.39844 6.17836 8.79666 6.52681 9.78599 6.52681H12.2998C13.2891 6.53303 13.6873 6.17836 13.6873 5.30103Z"
        stroke="#3AB8B7" stroke-width="1.5" stroke-linecap="round" stroke-linejoin="round" />
    <path
        d="M13.6873 12.3012V9.78746C13.6873 8.79812 13.2891 8.3999 12.2998 8.3999H9.78599C8.79666 8.3999 8.39844 8.79812 8.39844 9.78746V12.3012C8.39844 13.2906 8.79666 13.6888 9.78599 13.6888H12.2998C13.2891 13.6888 13.6873 13.2906 13.6873 12.3012Z"
        stroke="#3AB8B7" stroke-width="1.5" stroke-linecap="round" stroke-linejoin="round" />
    <path
        d="M6.53498 5.30103V2.47614C6.53498 1.59881 6.13676 1.24414 5.14743 1.24414H2.63365C1.64432 1.24414 1.24609 1.59881 1.24609 2.47614V5.29481C1.24609 6.17836 1.64432 6.52681 2.63365 6.52681H5.14743C6.13676 6.53303 6.53498 6.17836 6.53498 5.30103Z"
        stroke="#3AB8B7" stroke-width="1.5" stroke-linecap="round" stroke-linejoin="round" />
    <path
        d="M6.53498 12.3012V9.78746C6.53498 8.79812 6.13676 8.3999 5.14743 8.3999H2.63365C1.64432 8.3999 1.24609 8.79812 1.24609 9.78746V12.3012C1.24609 13.2906 1.64432 13.6888 2.63365 13.6888H5.14743C6.13676 13.6888 6.53498 13.2906 6.53498 12.3012Z"
        stroke="#3AB8B7" stroke-width="1.5" stroke-linecap="round" stroke-linejoin="round" />
</svg>
    