<svg width="16" height="15" viewBox="0 0 16 15" fill="none" xmlns="http://www.w3.org/2000/svg">
<path d="M14.5105 5.30103V2.47614C14.5105 1.59881 14.115 1.24414 13.1324 1.24414H10.6359C9.65331 1.24414 9.25781 1.59881 9.25781 2.47614V5.29481C9.25781 6.17836 9.65331 6.52681 10.6359 6.52681H13.1324C14.115 6.53303 14.5105 6.17836 14.5105 5.30103Z" stroke="#4C4D4D" stroke-width="1.5" stroke-linecap="round" stroke-linejoin="round"/>
<path d="M14.5105 12.3017V9.78795C14.5105 8.79861 14.115 8.40039 13.1324 8.40039H10.6359C9.65331 8.40039 9.25781 8.79861 9.25781 9.78795V12.3017C9.25781 13.2911 9.65331 13.6893 10.6359 13.6893H13.1324C14.115 13.6893 14.5105 13.2911 14.5105 12.3017Z" stroke="#4C4D4D" stroke-width="1.5" stroke-linecap="round" stroke-linejoin="round"/>
<path d="M7.4011 5.30103V2.47614C7.4011 1.59881 7.0056 1.24414 6.02305 1.24414H3.52649C2.54393 1.24414 2.14844 1.59881 2.14844 2.47614V5.29481C2.14844 6.17836 2.54393 6.52681 3.52649 6.52681H6.02305C7.0056 6.53303 7.4011 6.17836 7.4011 5.30103Z" stroke="#4C4D4D" stroke-width="1.5" stroke-linecap="round" stroke-linejoin="round"/>
<path d="M7.4011 12.3017V9.78795C7.4011 8.79861 7.0056 8.40039 6.02305 8.40039H3.52649C2.54393 8.40039 2.14844 8.79861 2.14844 9.78795V12.3017C2.14844 13.2911 2.54393 13.6893 3.52649 13.6893H6.02305C7.0056 13.6893 7.4011 13.2911 7.4011 12.3017Z" stroke="#4C4D4D" stroke-width="1.5" stroke-linecap="round" stroke-linejoin="round"/>
</svg>
